<?xml version="1.0" encoding="UTF-8"?>
<svg id="Layer_1" data-name="Layer 1" xmlns="http://www.w3.org/2000/svg" viewBox="0 0 400 400">
  <defs>
    <style>
      .cls-1 {
        fill: #3e3e3e;
      }
    </style>
  </defs>
  <path class="cls-1" d="m59.87,93.17c-2.36-10.44,1.16-22.29-4.64-31.67-1.55-3.04-6.84-6.76-3.7-10.21,19.37,4.05,10.38,44.27,34.48,37.72,3.16-11.2,13.81-8.34,16.58-18.97,0,0,0,.01,0,.01.57-.8.97-1.72,1.47-2.57,0,0,0,.01,0,.01,5.35-3.63,2.72-10.68,8.3-14.62-.94-3.53-4.46-7.51-3.57-11.18,6.91-7.65-4.23-18.45-.84-25.99,5.37-.48,4.81,8.44,8.57,11.14,4.55,2.84,6.88,7.91,11.1,11.18.12-.64.18-.99.27-1.49,4.89,6.87,13.24,4.38,18.78,10.84,3.13,2.66,6.94.87,10.44,2.21,3.35-.57,5.77,2.86,8.65,2.5,4.45-1.23,8.14-5.63,13.03-3.24,3.01-4.98,2.02-16.01-1.7-19.34.32-4.58-3.68-8.02-2.96-12.7.93-5.27.3-13.65,4.57-17.03,4.87,3.39,1.51,10.52,2.83,15.49,3.25,9.96,12.22,16.94,15.89,26.68h0c1.42,5.88,1.85,13.36-.85,18.92-.47.96-1.09,2.03-1.63,2.97-.59,1.55-2.16,2.87-2.83,4.4-.57.6,1.67,2.61-.08,3.33.41.36.4.94.75,1.35,0,0,0,0,0,0-.02.25-.04.49-.22.68,0,0,.01-.02.01-.02-4.84,4.79-3.44,13.45-2.1,19.6.46,10.62,7.89,5.25,5.1-2.85h.01c-.21-.27-.54-.65-.07-.8-3.26-9.88,1.78-19.61,9.35-26.29,6.52-8.63,16.8-9.91,27.13-9.09,4.41.36,8.88-.02,13.27.62h0c3.36.33,6.76.96,10.03,1.63h0c3.12.94,5.15,3.83,7.66,5.81.03-.08.07-.16.1-.24,8.71,8.96,20.08,15.53,26.98,26.11h0c.79,1.62,1.28,3.34,1.64,5.11h0c.07.2.13.41.2.62h0c-.07.82-.13,1.64-.2,2.46h0c.35,3.99-1.39,7.3-1.01,11.45,3.35,4.94,1.31,11.58,4.65,16.37h0c.05.08.24.16.2.26.4.46.83.92,1.24,1.38h0c5.46,4.64,5.52,12.71,10.48,17.32,6.93,4.01,14.57,6.27,18.17,14.72h0c.23.22.3.53.41.82h0c.18.49.49.92.62,1.43,0,0,0-.01,0-.01.13.22.27.43.39.65.13.41.08.92.45,1.19h0c.18.83.51,1.61.59,2.47.13.41.06.93.44,1.2h0c2.3,4.84,9.99,5.24,12.03,10.44.56,7.03,4.59,14.4,1.86,20.83h0c.26.54.36,1.22.82,1.63,0,0,0,0,0,0,.21.41.42.82.62,1.23h0c.06.13.12.27.19.42h0c.21.27.42.54.63.81,0,0,0,0,0,0,.88,2.46,2.21,4.86,3.07,7.37h0c.05,1.36,1.54,1.87,1.97,2.88,2.13,6.68,4.4,14.12,3.78,21.47h.01c-.18.9-.07,2.01-1.07,2.43h0c-5.32,6.13-4.17,11.26-2.86,19h0c.32.95.55,1.83.82,2.86h0c.23.73.29,1.49.42,2.25h0c-.03,1.57.11,3.16-.21,4.71h0c-.41.95-.15,2.04-.21,3.05,0,0,0,0,0,0-.33,1.08-1.68,1.72-2.66,2.09v-.07c-3.67.09-5.43,3.39-8.37,4.93-.91.11-.67,1.34-1.28,1.81.07.18-.06.41-.22.49-.39,1.47-1.27,3.21-1.84,4.57.03,0,.06,0,.09,0-3.17,6.79-12.3,9.31-19.24,10.7-4.51.48-8.92,1.76-13.48,1.64,0,0,0,0,0,0-6.21,1.73-12.01-2.3-17.63-2.22-5.57.43-7.18,5.23-8.92,9.78-.04.38-.22.81-.47,1.08-.5.97-1.23,2.17-1.84,3.06-1.64,5.32-7.09,7.59-11.24,10.55-6.32,10.09,1.38,11.26-13.63,21.56-7.27,6.91-14.6-.77-15.56,3.08.05.02.09.04.14.05-1.39,6.33,2.82,13.59,3.3,20.19.21.2.28.52.44.76,2.27,3.07.28,7.87,3.27,9.79h0c.21.34.6.64.59,1.01,3.2,5.8,1.58,15.9-4.63,19.41,0,0,.01,0,.01,0-3.19,1.72-5.93,4.38-9.42,5.5-20.18,3.79-56.19,7.95-72.54-6.97,0,0,0,0,0,0-4.33-4.59-4.22-10.34-1.01-15.12-1.25-4-.32-8.51,2.84-11.43,1.85-6.75,3.45-17.43,2.46-23.71-9.25-1.35-29.16,1.48-29.18-12.38-7.44-9.56-9.32-22.4-8.68-34.21-3-7.92-5.43-14.11-15.37-10.68-.73.29-1.63.84-2.48.99-5.38,1.98-12.5,8.16-17.88,5.22-1.14.61-3.62-.12-4.61-.93-3.29-.44-5.93-2.13-7.87-4.81h.01c-.07-.06-.15-.13-.22-.2h.01c-.07-.06-.14-.13-.21-.21-.72-1.21-.83-2.84-1.64-4.09h.01c-4.42-7.25-11.54-13.72-14.79-20.75-.52-.32-.47-1.58-.24-2.08-.03,0-.06,0-.09,0,.55-4.21,1.51-8.95,2.76-13.04.21-.57.23-1.46.65-1.84.07-2.66,1.46-5.74,2.11-8.49h0c.17-.55-.55-.6-.83-.99,0,0,.01.01.01.01-.2-.16-.43-.26-.63-.42h.01c-9.1-5.05-18.63-11.09-10.02-22.32v.02c.74-2.75,1.08-5.76.62-8.57h0c-.65-6.64,1.57-12.69,5.11-18.2,0,0,0,0,0,0,.14-.2.28-.41.42-.61,0,0,0,0,0,0,.61-1.26,1.58-2.27,2.23-3.5h-.02c.08-.12.16-.26.24-.39h0c.07-.07.14-.13.21-.2,0,0,0,0,0,0,1.45-1.95,2.81-3.98,4.47-5.76h-.01c1.3-1.78,2.56-3.56,3.9-5.32,0,0-.02.01-.02.01.55-.69.99-1.48,1.65-2.06h-.02c.34-.41.62-.88,1.04-1.23,0,0-.02,0-.02,0,.56-.73,1.16-1.45,1.87-2.05,0,0-.02.01-.02.01,2.05-1.63,1.96-3.1,1.27-5.48h0c-.28-2.17,1.79-3.62,1.23-5.93h0c.82-5.18-4.38-19.91,4.14-17.62h-.02c5.25,1.07,8.15,16.67,14.08,10.24h0c.07-.07.14-.14.2-.21,0,0,0,0,0,0l.63-.4s0,0,0,0c.95-4.24,13.97-.45,9.42-4.7-2.04-1.24-3.63-3.06-5.31-4.72h0c-8.99-13.35,17.33-11.27-14.96-18.77,0,0,.01.01.01.01-.54-.12-1.2.09-1.64-.22h0c-.14-.06-.28-.13-.42-.2h.01c-1.78-.52-3.66-.78-5.32-1.64h0c-.45-.27-.94-.45-1.44-.61,0,0,0,0,0,0-10.38-3.06-12.48-6.74-13.72-16.98Z"/>
</svg>