<svg width="170" height="149" viewBox="0 0 170 149" fill="none" xmlns="http://www.w3.org/2000/svg">
<g filter="url(#filter0_dii_459_1347)">
<path d="M48.8632 71.883C48.5219 77.4493 53.087 82.2146 59.0174 82.535C59.2307 82.535 59.444 82.535 59.6574 82.535C65.6304 82.535 70.4515 78.0099 70.4089 72.4036C70.4089 66.7974 65.5878 62.2723 59.6147 62.3123C53.8976 62.3123 49.1618 66.517 48.8632 71.883Z" fill="#312783"/>
<path d="M8.67275 69.2801C6.75283 69.1599 5.08891 70.5615 5.00358 72.3635C4.91825 74.1655 6.36885 75.7273 8.28876 75.8074C10.2087 75.9275 11.8299 74.5259 11.9579 72.7239C12.0859 70.9219 10.5927 69.4002 8.67275 69.2801Z" fill="#312783"/>
<path d="M48.1801 13.1774C49.8867 12.3765 50.5693 10.3742 49.716 8.77243C48.8627 7.17064 46.7295 6.52992 45.0229 7.33082C43.3163 8.13171 42.6337 10.0939 43.487 11.6957C44.3403 13.3375 46.4309 14.0183 48.1801 13.1774Z" fill="#312783"/>
<path d="M59.1027 31.0773C61.7479 29.836 62.8145 26.7926 61.4919 24.3098C60.1693 21.827 56.9268 20.8259 54.2816 22.0673C51.6364 23.3087 50.5697 26.3521 51.8924 28.8348C53.215 31.3176 56.4575 32.3187 59.1027 31.0773Z" fill="#312783"/>
<path d="M22.3255 43.3711C24.3734 44.6125 27.1039 44.0919 28.4692 42.1698C29.7918 40.2476 29.2372 37.6848 27.1893 36.4033C25.1414 35.162 22.4108 35.6825 21.0455 37.6047C19.6803 39.5268 20.2776 42.1298 22.3255 43.3711Z" fill="#312783"/>
<path d="M28.8534 67.4781C25.8669 67.3179 23.3496 69.4403 23.179 72.2434C23.0083 75.0466 25.2696 77.4092 28.2561 77.5694C31.2426 77.7296 33.7598 75.6072 33.9305 72.8041C34.1012 70.041 31.8399 67.6383 28.8534 67.4781Z" fill="#312783"/>
<path d="M22.9233 101.396C20.7474 102.437 19.8515 104.92 20.9608 107.002C22.07 109.045 24.7153 109.885 26.9338 108.844C29.1097 107.803 30.0057 105.32 28.8964 103.238C27.7871 101.196 25.0992 100.355 22.9233 101.396Z" fill="#312783"/>
<path d="M43.8282 57.0264C46.7721 58.8284 50.6973 58.0676 52.5745 55.3045C54.4944 52.5414 53.6838 48.8573 50.7399 47.0953C47.7961 45.2933 43.8709 46.0541 41.9936 48.8172C40.0737 51.5403 40.8844 55.2244 43.8282 57.0264Z" fill="#312783"/>
<path d="M110.172 30.6769C112.647 32.1986 116.017 31.5579 117.638 29.2353C119.26 26.9127 118.577 23.7492 116.103 22.2275C113.628 20.7058 110.257 21.3465 108.636 23.6691C106.972 26.0317 107.655 29.1552 110.172 30.6769Z" fill="#312783"/>
<path d="M121.18 12.857C122.801 13.8581 124.934 13.4176 126.001 11.8959C127.068 10.3742 126.598 8.372 124.977 7.37088C123.356 6.36976 121.223 6.81026 120.156 8.29191C119.132 9.81362 119.601 11.8559 121.18 12.857Z" fill="#312783"/>
<path d="M110.983 62.2322C105.053 61.9118 99.9328 66.1966 99.6342 71.7628C99.2929 77.3291 103.858 82.1345 109.788 82.4148C110.002 82.4148 110.215 82.4148 110.386 82.4148C116.316 82.4148 121.137 77.8897 121.137 72.2834C121.18 66.9575 116.7 62.5125 110.983 62.2322Z" fill="#312783"/>
<path d="M62.6437 56.3056C64.4783 59.7094 68.1901 61.8718 72.2859 61.8718C78.2163 61.8718 83.0374 57.3467 83.0374 51.7405C83.0374 50.1787 82.6535 48.617 81.8855 47.1754C79.1976 42.1698 72.7126 40.1675 67.4221 42.6903C62.0891 45.2532 59.9558 51.34 62.6437 56.3056Z" fill="#312783"/>
<path d="M147.077 43.3711C149.253 42.33 150.107 39.8072 148.997 37.7649C147.888 35.7226 145.2 34.9217 143.024 35.9629C140.848 37.004 139.995 39.4868 141.062 41.5291C142.214 43.5714 144.859 44.4123 147.077 43.3711Z" fill="#312783"/>
<path d="M119.772 46.5747C116.657 48.0564 115.377 51.6204 116.956 54.5436C118.535 57.4669 122.332 58.6683 125.446 57.1866C128.561 55.7049 129.841 52.141 128.262 49.2177C126.684 46.2944 122.886 45.1331 119.772 46.5747Z" fill="#312783"/>
<path d="M84.5731 11.3353C87.005 11.4554 89.0955 9.69346 89.2662 7.41091C89.4368 5.12836 87.5169 3.16616 85.085 3.00598C82.6531 2.88585 80.5626 4.60777 80.3919 6.89033C80.2639 9.21292 82.1412 11.1751 84.5731 11.3353Z" fill="#312783"/>
<path d="M84.5307 37.4845C88.0292 37.6847 91.0157 35.1619 91.1864 31.8782C91.3997 28.5946 88.7118 25.7914 85.2133 25.6313C81.7148 25.431 78.7283 27.9539 78.5576 31.2375C78.387 34.5212 81.0322 37.3243 84.5307 37.4845Z" fill="#312783"/>
<path d="M50.2285 98.1924C53.343 96.7108 54.6229 93.1468 53.0444 90.2235C51.4658 87.3003 47.6686 86.0989 44.5541 87.5806C41.4395 89.0622 40.1596 92.6262 41.7382 95.5495C43.3168 98.4728 47.114 99.6741 50.2285 98.1924Z" fill="#312783"/>
<path d="M88.6263 46.1743C85.3838 50.8595 86.7491 57.1065 91.7408 60.1499C96.7326 63.1933 103.388 61.9119 106.631 57.2267C109.873 52.5414 108.508 46.2944 103.516 43.251C101.767 42.1698 99.7191 41.6092 97.6286 41.6092C94.0021 41.6092 90.6315 43.3311 88.6263 46.1743Z" fill="#312783"/>
<path d="M107.357 88.4615C104.669 83.4559 98.1838 81.4537 92.8933 83.9765C87.5602 86.4994 85.427 92.5862 88.1149 97.5517C90.8028 102.557 97.2878 104.56 102.578 102.037C107.869 99.554 110.045 93.5472 107.399 88.5416C107.399 88.5016 107.399 88.5016 107.357 88.4615Z" fill="#312783"/>
<path d="M126.172 87.7408C123.228 85.9387 119.303 86.6996 117.425 89.4627C115.505 92.2258 116.316 95.9099 119.26 97.6719C122.204 99.4739 126.129 98.713 128.006 95.9499C129.926 93.2269 129.115 89.5428 126.172 87.7408Z" fill="#312783"/>
<path d="M146.821 72.5638C146.992 69.7606 144.731 67.398 141.744 67.2378C138.757 67.0776 136.24 69.2 136.07 72.0031C135.899 74.8063 138.16 77.1689 141.147 77.3291C144.091 77.4893 146.65 75.3269 146.821 72.5638Z" fill="#312783"/>
<path d="M161.711 68.9598C159.791 68.8396 158.127 70.2412 158.042 72.0432C157.957 73.8452 159.407 75.407 161.327 75.4871C163.247 75.6072 164.869 74.2056 164.997 72.4036C165.082 70.6016 163.631 69.0799 161.711 68.9598Z" fill="#312783"/>
<path d="M147.675 101.396C145.627 100.155 142.896 100.675 141.531 102.597C140.208 104.52 140.763 107.082 142.811 108.364C144.859 109.605 147.589 109.085 148.955 107.162C150.32 105.24 149.723 102.637 147.675 101.396Z" fill="#312783"/>
<path d="M48.7773 131.91C47.156 130.909 45.0228 131.35 43.9562 132.831C42.8896 134.353 43.3589 136.355 44.9375 137.356C46.5587 138.357 48.692 137.917 49.7586 136.435C50.8679 134.954 50.3985 132.911 48.7773 131.91Z" fill="#312783"/>
<path d="M121.82 131.59C120.113 132.391 119.431 134.393 120.284 135.995C121.137 137.596 123.27 138.237 124.977 137.436C126.684 136.635 127.366 134.673 126.513 133.071C125.66 131.43 123.569 130.749 121.82 131.59Z" fill="#312783"/>
<path d="M81.374 98.5929C84.6165 93.9076 83.2512 87.6607 78.2594 84.5772C73.2677 81.5338 66.612 82.8152 63.3268 87.5005C60.0416 92.1857 61.4495 98.4327 66.4413 101.516C68.1906 102.597 70.2385 103.158 72.329 103.158C75.9982 103.198 79.3687 101.476 81.374 98.5929Z" fill="#312783"/>
<path d="M59.8277 114.09C57.3531 112.569 53.9826 113.209 52.3613 115.532C50.7401 117.854 51.4227 121.018 53.8973 122.54C56.3718 124.061 59.7423 123.421 61.3636 121.098C63.0275 118.775 62.3449 115.612 59.8277 114.09Z" fill="#312783"/>
<path d="M84.9576 133.432C82.5257 133.312 80.4351 135.074 80.2645 137.356C80.0938 139.639 82.0137 141.601 84.4456 141.761C86.8775 141.881 88.9681 140.159 89.1387 137.877C89.2667 135.554 87.3895 133.592 84.9576 133.432Z" fill="#312783"/>
<path d="M84.9996 107.283C81.5011 107.082 78.5146 109.605 78.3439 112.889C78.1306 116.173 80.8185 118.976 84.317 119.136C87.8155 119.296 90.802 116.813 90.9727 113.53C91.186 110.286 88.4981 107.443 84.9996 107.283Z" fill="#312783"/>
<path d="M110.897 113.69C108.252 114.971 107.186 118.015 108.551 120.497C109.916 122.98 113.159 123.981 115.804 122.7C118.449 121.458 119.516 118.415 118.193 115.932C116.828 113.45 113.585 112.408 110.897 113.69Z" fill="#312783"/>
</g>
<defs>
<filter id="filter0_dii_459_1347" x="0" y="-1.99994" width="170" height="150.767" filterUnits="userSpaceOnUse" color-interpolation-filters="sRGB">
<feFlood flood-opacity="0" result="BackgroundImageFix"/>
<feColorMatrix in="SourceAlpha" type="matrix" values="0 0 0 0 0 0 0 0 0 0 0 0 0 0 0 0 0 0 127 0" result="hardAlpha"/>
<feOffset dy="2"/>
<feGaussianBlur stdDeviation="2.5"/>
<feComposite in2="hardAlpha" operator="out"/>
<feColorMatrix type="matrix" values="0 0 0 0 0 0 0 0 0 0 0 0 0 0 0 0 0 0 0.25 0"/>
<feBlend mode="normal" in2="BackgroundImageFix" result="effect1_dropShadow_459_1347"/>
<feBlend mode="normal" in="SourceGraphic" in2="effect1_dropShadow_459_1347" result="shape"/>
<feColorMatrix in="SourceAlpha" type="matrix" values="0 0 0 0 0 0 0 0 0 0 0 0 0 0 0 0 0 0 127 0" result="hardAlpha"/>
<feOffset dx="-5" dy="-5"/>
<feGaussianBlur stdDeviation="5"/>
<feComposite in2="hardAlpha" operator="arithmetic" k2="-1" k3="1"/>
<feColorMatrix type="matrix" values="0 0 0 0 0.107747 0 0 0 0 0.223974 0 0 0 0 0.834167 0 0 0 1 0"/>
<feBlend mode="normal" in2="shape" result="effect2_innerShadow_459_1347"/>
<feColorMatrix in="SourceAlpha" type="matrix" values="0 0 0 0 0 0 0 0 0 0 0 0 0 0 0 0 0 0 127 0" result="hardAlpha"/>
<feOffset dx="2" dy="2"/>
<feGaussianBlur stdDeviation="3"/>
<feComposite in2="hardAlpha" operator="arithmetic" k2="-1" k3="1"/>
<feColorMatrix type="matrix" values="0 0 0 0 0.325 0 0 0 0 0.4735 0 0 0 0 1 0 0 0 1 0"/>
<feBlend mode="normal" in2="effect2_innerShadow_459_1347" result="effect3_innerShadow_459_1347"/>
</filter>
</defs>
</svg>
