<?xml version="1.0" encoding="UTF-8"?>
<svg id="Layer_1" data-name="Layer 1" xmlns="http://www.w3.org/2000/svg" viewBox="0 0 400 400">
  <defs>
    <style>
      .cls-1 {
        fill: #3e3e3e;
      }
    </style>
  </defs>
  <path class="cls-1" d="m312.59,68.94c3.56.63,3.37.76,5.17,1.86,8.26-3.55,21.47,15.9,10.33,20.26h.02c-6.73,1.62-8.47,5.71-10.59,11.95,0,0,0,0,0,0-2.16,3.51-4.85,6.88-7.38,10.26,0,0,.02-.01.02-.01-2.88,4.05-6.12,7.83-9.1,11.82l-.03-.02.02.03c-.25.22-.51.46-.6.8-1.77,1.94,2.31,5.45-.03,7.21l-.02-.03c-.16.31-.11.65-.11.98,4.73,2.86,6.31,18.12-2.22,9.7-.77-.45-.9-1.71-1.94-1.14,1.29.54,1.9,2.07,2.96,2.66,1.39,1.2.88,3.09,1.22,4.81-13.13,16.65,10.19-2.76,19.71,28.11v-.02c1.28,3.25,2.32,7.82,2.82,11.73h0c.24,5.79,1.82,11.3,2.89,16.9-.02.01-.05.02-.07.03.02-.01.04-.03.07-.04.05.08.2.15.14.25-.28.61.34,1.12.2,1.64.02-.01.04-.03.06-.04.08,1.66.95,3.07,1.21,4.64-.13.33-.6.67.02.98.05,3.56,4.54,5.71,4.1,9.67.03,2.66-.75,6.04-3.66,6.84.78.85,1.78,1.49,2.64,2.25.29.06.28.89.82.32,3.05-.16,4.99,1.93,5.74,4.74,0,0,0,0,0,0-.09.36-.19.71-.28,1.07-.76-.29-.9-1.74-1.86-1.78.56,1.29.88,2.79,1.47,4.04,1.99,4.2,1.56,5.72-2.01,2.44l-.24-.4h0c-.83-1.62-1.81-3.72-3.49-4.51,0-.45.2-1.02-.29-1.25v-.08c-.11.03-.1-.11-.21-.12v-.08c-.11.02-.16-.09-.24-.14h0c-.11-.08-.29-.11-.36-.23l-.05.03c-.24-.25-.72-.6-.67-.74.42-1.03-.48-1.67-.67-2.5-.25,0-.52.12-.72-.05h0c-.41-1.09-1.46-1.5-2.52-.99,0,0,0,0,0,0-.21.08-.42.15-.64.23h0c-1.55-.55-3.53,1.55-1.63,3.04,2.2-.31,4.79.64,5.1,3.09h.07c0,.27,0,.54,0,.82h-.07c-.01.13-.03.27-.04.4,5.21-3.21,2.57,23.02-.97,10.68h0c-.55-1.17-1.16-2.36-1.85-3.48h0c-.74-1.25-1.44-2.49-2.3-3.66,0,0,0,.02,0,.02-.31-.45-1.02-.22-1.44-.66.07-.84.82-.89,1.48-1.11-.67-.84-1.48-1.93-1.78-3.13.16-1.17-.04-2.23-.66-3.35-.1-.48.31-1.16-.59-1.42-.11,1.65-1.25,2.05-2.5,3.14.7,4.48,4.77,10.02,2.4,14.66-.66-.96-.79-2.07-.9-3.17-.18-.13-.07-.45-.12-.65-.03,0-.06,0-.08,0v.58l-.07-.02c-2.97,6.53.37,14.54-1.48,21.26.03,0,.06,0,.09,0-1.9,5.04-5.72,9.36-10.98,11.32-.99.3-1.91.45-2.57,1.26-1.51-.43-3.12,0-4.67,0-.38-.3-.76-.63-1.14,0-3.32,1.06-6.87,1.19-10.22.54-1.78-1.51-5.18,2.1-5.33-1.21-.54-.06-1.13-.32-1.52-.14-2.04,1.16-.59-4.28-3.99-1.83,0,0,0,0,0,0-2.99,3.21-3.59,8.23-6.83,11.02-3.78,3.09-2.81,9.38-6.74,12.75,0,0,0,0,0,0-4.58,4.54-9.59,8.59-13.72,13.63-1.15-.87-2.01,1.29-3.09,1.76-8.37.12-2.19,4.26-6.62,5.94h.01c-.2.24-.55.2-.8.38h.01c-.07.13-.14.27-.21.41h0c-.13.27-.17.61-.42.82h0c-.27.4-.49.84-.81,1.21l-.03-.02c-.99.82-1.47,2.04-2.03,3.03.5,1.18-1.29,2.08-.4,3.4.82,4.95-1.58,14.05,3.68,16.22l-.02.03c2.44,1.31,4.11,3.56,4.78,6.3h0c.88,4.66,2.1,8.73,5.29,12.22.29.3.43.63.62.98-.06.06-.06.21.06.15.51,1.53,1.1,3.07,1.19,4.7-.25.28-.54.56,0,.84.63,2.87.06,5.3-1.45,7.54,0,0-.04-.02-.04-.02-3.84,4.86-9.27,9.49-15.3,11.16h0c-27.51,7.9-65.72,9.12-90.22-6.93,0-.04-.02-.07-.06-.08-5.47-11.41.35-25.53,7.65-34.64.94-4.8,1.61-16.71-.55-21.1-8,4.64-37.35,10.91-32.9-5.97h0c.2-.42.39-.84.59-1.26v.02c1.66-3.48,3.16-7.16,5.18-10.39h0c.57-.92,1.05-1.95,1.66-2.82,1.77-4.06,5.11-8.34,5.93-12.51-1.5-2.76-2.41-5.86-4.16-8.48h.01c-7.87-7.88-8.1-10.2-19.49-9.81l.03-.07c-3.5-1.03-7.3-.66-10.68-2.01,0,0,0,0,0,0-2.73-1.25-4.95-3.55-7.9-4.3,0,0,.01,0,.02,0-7.04-1.1-5.39-8.53-7.49-13.36-.42-1.49-1.92-3.48-.91-4.89,3.03-2.62,2.37-7.5-.41-9.68-.22-.83-.11-2.2-1.18-2.44-.77-.7-1.45-1.7-.81-2.7,0,0-.01,0-.01,0,.07-.07.14-.15.21-.22,0,0,0,.01,0,.01.77-.6.85-1.55,1.05-2.44,0,0,0,0,0,0,.67-1.13.32-2.48.65-3.68.43-.25,1.14-.23.99-1.03h0c.85-2.28-3.65-1.86-2.64.63.83.81.37,1.93.4,2.86-3.25,3.06-5.22,13.78-9.66,13.33h0c-.77-2.54.44-5.71,1.03-8.22h0c.49-1.07.35-2.34,1.03-3.28,0,0,0,0,0,0-.42-3.16,1.32-5.52,3.93-7.21l-.02.07c.2,0,.41,0,.61,0-1.09-1.3-.1-2.22.66-3.51h-.88,0c-.95-.35-1.34-1.95-2.45-1.1.08-1.67-1.16-2.69-2-3.98-1.1.68-.93,2.69-2.55,2.14,1.68,3.87-2.9,7.79-4.24,11.58,0,0,0,0,0,0-3.17.53-.75-4.37-.46-6h0c.2-.68.34-1.39.62-2.05,0,0,0,.01,0,.01.26-.96-.94-1.2-.81-2.06h0c.21-.33.42-.68.64-1.02h0c1.9.17,2.62-.83,3.5-2.24,3.78.04,2.26-4.92,3.13-7.34,5.13-8.84,3.02-20.53,7.12-30.39h0c2.9-9.86,6.01-20.15,14.55-26.47h0c4.51-2.39,9.94-2.41,14.82-2.62,4.8-3.37,4.9,5.07,7.68,5.86,1.45-2.36-.52-6.4,1.71-9.16,0,0,0,0,0,0,.74-1.41,1-3,1.63-4.45-.74-1.74,1.04-4.08,2.04-6.02h0c.06-.07.12-.14.18-.22,0,0,0,0,0,0,.15-.2.29-.41.44-.61,0,0-.01.01-.01.01.74-1.46,1.64-2.79,2.31-4.24,0,0,0,.01,0,.01.08-.12.11-.28.24-.35-.05-.16.13-.31.17-.47l.03.02s-.03-.02-.03-.02c.89-1.45,1.6-3.03,2.62-4.39v.02c.32-.45.56-.95.83-1.44h0c.77-3.9-1.86-8.77,1.04-12.29h0c.85-.91,1.97-1.48,2.46-2.67h0c1.84-2.9,3.71-6.15,4.76-8.92-1.04-14.53.5-29.04,1.62-43.53,6.02-17.52,20.45-31.47,32.45-45.3C179.66,5.69,188.44-1.89,205.83.41c-.32.03-.64.06-.96.09,0,.04,0,.09,0,.13,6.79-.47,5.67,3.14,10.3,3.76,7.94,5.79,18.84,6.74,27.35,10.67,12.9,8.03,21.49,1.06,27.58,20.57.18-.21.38-.44.59-.66.22,9.45-8.99,16.73-10.16,26.63v-.02c-.56,2.06-.42,4.22-.43,6.35h0c-.37,1.69-.02,3.52-.4,5.15v-.02c-1.48,8.09-1.05,16.39-.8,24.6.11,2.4-2.01,12.77.19,13.31h-.01c.12.09.23.27.38.17.29.32.59.56.64,1.08h0c5.86.27,4.96,8.17,9.88,8.93-2.25-6.27,2.73-5.99,6.95-3.65-.71-3.67,3.08.13,5.93-2.6,0,0,0-.07,0-.07.27,0,.55,0,.82,0v.07c3.47-.97,3.61-7.71,7.03-9.8-.04-.08.14-.22.22-.18,4.74-6.14,9.19-12.77,12.99-19.38,2.2-1.51,4.87-2.57,3.95-5.75.4-4.11.22-8.96,4.73-10.85Z"/>
</svg>