<svg width="501" height="501" viewBox="0 0 501 501" fill="none" xmlns="http://www.w3.org/2000/svg">
<g clip-path="url(#clip0_1141_7183)">
<path d="M500.495 252.023V250.142H492.405V252.023H500.495Z" fill="#FF7918"/>
<path d="M499.939 267.708L500.057 265.83L491.982 265.321L491.865 267.199L499.939 267.708Z" fill="#FF7918"/>
<path d="M498.411 283.344L498.647 281.478L490.62 280.462L490.385 282.328L498.411 283.344Z" fill="#FF7918"/>
<path d="M495.893 298.864L496.245 297.016L488.298 295.497L487.946 297.345L495.893 298.864Z" fill="#FF7918"/>
<path d="M492.418 314.168L492.885 312.346L485.049 310.33L484.581 312.152L492.418 314.168Z" fill="#FF7918"/>
<path d="M487.984 329.251L488.565 327.462L480.871 324.958L480.29 326.747L487.984 329.251Z" fill="#FF7918"/>
<path d="M482.62 344.005L483.311 342.256L475.789 339.273L475.097 341.022L482.62 344.005Z" fill="#FF7918"/>
<path d="M476.336 358.4L477.136 356.697L469.815 353.247L469.016 354.949L476.336 358.4Z" fill="#FF7918"/>
<path d="M469.171 372.376L470.075 370.728L462.986 366.823L462.081 368.472L469.171 372.376Z" fill="#FF7918"/>
<path d="M461.133 385.867L462.139 384.278L455.308 379.936L454.302 381.524L461.133 385.867Z" fill="#FF7918"/>
<path d="M452.274 398.817L453.378 397.295L446.833 392.531L445.729 394.053L452.274 398.817Z" fill="#FF7918"/>
<path d="M442.602 411.204L443.799 409.755L437.566 404.589L436.369 406.039L442.602 411.204Z" fill="#FF7918"/>
<path d="M432.19 422.939L433.475 421.567L427.578 416.02L426.292 417.391L432.19 422.939Z" fill="#FF7918"/>
<path d="M421.056 434.02L422.425 432.732L416.887 426.825L415.518 428.113L421.056 434.02Z" fill="#FF7918"/>
<path d="M409.251 444.353L410.698 443.154L405.541 436.91L404.094 438.109L409.251 444.353Z" fill="#FF7918"/>
<path d="M396.828 453.933L398.347 452.827L393.592 446.271L392.072 447.377L396.828 453.933Z" fill="#FF7918"/>
<path d="M383.828 462.72L385.414 461.712L381.079 454.869L379.493 455.877L383.828 462.72Z" fill="#FF7918"/>
<path d="M370.293 470.659L371.939 469.753L368.042 462.651L366.396 463.558L370.293 470.659Z" fill="#FF7918"/>
<path d="M356.299 477.742L357.998 476.941L354.554 469.609L352.854 470.41L356.299 477.742Z" fill="#FF7918"/>
<path d="M341.881 483.933L343.627 483.24L340.649 475.705L338.902 476.398L341.881 483.933Z" fill="#FF7918"/>
<path d="M327.095 489.201L328.881 488.619L326.381 480.912L324.595 481.493L327.095 489.201Z" fill="#FF7918"/>
<path d="M312.025 493.517L313.844 493.049L311.832 485.199L310.013 485.667L312.025 493.517Z" fill="#FF7918"/>
<path d="M296.71 496.898L298.555 496.546L297.039 488.585L295.194 488.938L296.71 496.898Z" fill="#FF7918"/>
<path d="M281.203 499.284L283.067 499.048L282.053 491.008L280.189 491.243L281.203 499.284Z" fill="#FF7918"/>
<path d="M265.584 500.72L267.458 500.602L266.95 492.513L265.076 492.631L265.584 500.72Z" fill="#FF7918"/>
<path d="M10.0109 249.92V252.206L0.495117 252.226V249.939L10.0109 249.92Z" fill="#FF7918"/>
<path d="M10.5598 234.783L10.4154 237.06L0.918884 236.471L1.06335 234.194L10.5598 234.783Z" fill="#FF7918"/>
<path d="M12.0527 219.693L11.7638 221.96L2.32507 220.783L2.61401 218.516L12.0527 219.693Z" fill="#FF7918"/>
<path d="M14.4894 204.739L14.0656 206.977L4.71362 205.212L5.14703 202.974L14.4894 204.739Z" fill="#FF7918"/>
<path d="M17.8604 189.959L17.2921 192.168L8.07495 189.824L8.6432 187.614L17.8604 189.959Z" fill="#FF7918"/>
<path d="M22.1559 175.429L21.4432 177.6L12.3898 174.667L13.1025 172.506L22.1559 175.429Z" fill="#FF7918"/>
<path d="M27.3472 161.199L26.5093 163.311L17.6581 159.819L18.4961 157.706L27.3472 161.199Z" fill="#FF7918"/>
<path d="M33.4246 147.315L32.4518 149.38L23.8318 145.337L24.8045 143.272L33.4246 147.315Z" fill="#FF7918"/>
<path d="M40.3591 133.846L39.2515 135.844L30.9108 131.261L32.0088 129.264L40.3591 133.846Z" fill="#FF7918"/>
<path d="M48.122 120.831L46.8988 122.761L38.8566 117.667L40.0798 115.747L48.122 120.831Z" fill="#FF7918"/>
<path d="M56.6842 108.338L55.3454 110.181L47.6307 104.595L48.9791 102.752L56.6842 108.338Z" fill="#FF7918"/>
<path d="M66.0169 96.4036L64.5626 98.1595L57.2139 92.1006L58.6683 90.3447L66.0169 96.4036Z" fill="#FF7918"/>
<path d="M76.072 85.0865L74.5117 86.746L67.5676 80.2337L69.1278 78.5742L76.072 85.0865Z" fill="#FF7918"/>
<path d="M86.8206 74.4251L85.164 75.9784L78.634 69.0416L80.3002 67.4883L86.8206 74.4251Z" fill="#FF7918"/>
<path d="M98.224 64.4497L96.4615 65.9065L90.3842 58.5741L92.1371 57.127L98.224 64.4497Z" fill="#FF7918"/>
<path d="M110.215 55.2166L108.375 56.5576L102.77 48.8586L104.61 47.5176L110.215 55.2166Z" fill="#FF7918"/>
<path d="M122.774 46.7652L120.848 47.9808L115.734 39.9441L117.66 38.7285L122.774 46.7652Z" fill="#FF7918"/>
<path d="M135.834 39.1043L133.831 40.2042L129.237 31.8588L131.231 30.7686L135.834 39.1043Z" fill="#FF7918"/>
<path d="M149.347 32.2933L147.286 33.2581L143.212 24.6425L145.283 23.6777L149.347 32.2933Z" fill="#FF7918"/>
<path d="M163.264 26.3401L161.145 27.1795L157.62 18.3228L159.739 17.4834L163.264 26.3401Z" fill="#FF7918"/>
<path d="M177.519 21.2752L175.352 21.9698L172.395 12.9201L174.562 12.2158L177.519 21.2752Z" fill="#FF7918"/>
<path d="M192.072 17.1169L189.866 17.6765L187.477 8.45313L189.683 7.89355L192.072 17.1169Z" fill="#FF7918"/>
<path d="M206.856 13.8751L204.611 14.2996L202.81 4.94122L205.055 4.52637L206.856 13.8751Z" fill="#FF7918"/>
<path d="M221.803 11.5789L219.55 11.8587L218.336 2.41346L220.6 2.12402L221.803 11.5789Z" fill="#FF7918"/>
<path d="M236.876 10.2286L234.603 10.3637L233.987 0.85089L236.26 0.71582L236.876 10.2286Z" fill="#FF7918"/>
<path d="M250.211 498.866C251.227 498.866 252.05 498.041 252.05 497.023C252.05 496.006 251.227 495.181 250.211 495.181C249.195 495.181 248.371 496.006 248.371 497.023C248.371 498.041 249.195 498.866 250.211 498.866Z" fill="#FF7918"/>
<path d="M230.736 498.085C231.752 498.085 232.576 497.26 232.576 496.242C232.576 495.224 231.752 494.399 230.736 494.399C229.72 494.399 228.897 495.224 228.897 496.242C228.897 497.26 229.72 498.085 230.736 498.085Z" fill="#FF7918"/>
<path d="M211.387 495.769C212.403 495.769 213.227 494.944 213.227 493.927C213.227 492.909 212.403 492.084 211.387 492.084C210.371 492.084 209.547 492.909 209.547 493.927C209.547 494.944 210.371 495.769 211.387 495.769Z" fill="#FF7918"/>
<path d="M192.288 491.92C193.304 491.92 194.128 491.095 194.128 490.077C194.128 489.059 193.304 488.234 192.288 488.234C191.272 488.234 190.448 489.059 190.448 490.077C190.448 491.095 191.272 491.92 192.288 491.92Z" fill="#FF7918"/>
<path d="M173.546 486.565C174.561 486.565 175.385 485.74 175.385 484.723C175.385 483.705 174.561 482.88 173.546 482.88C172.53 482.88 171.706 483.705 171.706 484.723C171.706 485.74 172.53 486.565 173.546 486.565Z" fill="#FF7918"/>
<path d="M155.285 479.744C156.301 479.744 157.124 478.919 157.124 477.901C157.124 476.884 156.301 476.059 155.285 476.059C154.269 476.059 153.445 476.884 153.445 477.901C153.445 478.919 154.269 479.744 155.285 479.744Z" fill="#FF7918"/>
<path d="M137.63 471.495C138.646 471.495 139.47 470.67 139.47 469.652C139.47 468.635 138.646 467.81 137.63 467.81C136.614 467.81 135.791 468.635 135.791 469.652C135.791 470.67 136.614 471.495 137.63 471.495Z" fill="#FF7918"/>
<path d="M120.679 461.866C121.695 461.866 122.519 461.041 122.519 460.023C122.519 459.006 121.695 458.181 120.679 458.181C119.663 458.181 118.84 459.006 118.84 460.023C118.84 461.041 119.663 461.866 120.679 461.866Z" fill="#FF7918"/>
<path d="M104.537 450.916C105.553 450.916 106.377 450.091 106.377 449.073C106.377 448.055 105.553 447.23 104.537 447.23C103.521 447.23 102.698 448.055 102.698 449.073C102.698 450.091 103.521 450.916 104.537 450.916Z" fill="#FF7918"/>
<path d="M89.3197 438.722C90.3357 438.722 91.1593 437.897 91.1593 436.879C91.1593 435.861 90.3357 435.036 89.3197 435.036C88.3037 435.036 87.4801 435.861 87.4801 436.879C87.4801 437.897 88.3037 438.722 89.3197 438.722Z" fill="#FF7918"/>
<path d="M75.1135 425.359C76.1295 425.359 76.9531 424.534 76.9531 423.517C76.9531 422.499 76.1295 421.674 75.1135 421.674C74.0975 421.674 73.2739 422.499 73.2739 423.517C73.2739 424.534 74.0975 425.359 75.1135 425.359Z" fill="#FF7918"/>
<path d="M62.0149 410.916C63.0309 410.916 63.8545 410.091 63.8545 409.073C63.8545 408.055 63.0309 407.23 62.0149 407.23C60.999 407.23 60.1754 408.055 60.1754 409.073C60.1754 410.091 60.999 410.916 62.0149 410.916Z" fill="#FF7918"/>
<path d="M50.0914 395.47C51.1073 395.47 51.9309 394.645 51.9309 393.627C51.9309 392.609 51.1073 391.784 50.0914 391.784C49.0754 391.784 48.2518 392.609 48.2518 393.627C48.2518 394.645 49.0754 395.47 50.0914 395.47Z" fill="#FF7918"/>
<path d="M39.4391 379.127C40.4551 379.127 41.2787 378.302 41.2787 377.284C41.2787 376.266 40.4551 375.441 39.4391 375.441C38.4232 375.441 37.5995 376.266 37.5995 377.284C37.5995 378.302 38.4232 379.127 39.4391 379.127Z" fill="#FF7918"/>
<path d="M30.1064 361.992C31.1223 361.992 31.9459 361.167 31.9459 360.149C31.9459 359.132 31.1223 358.307 30.1064 358.307C29.0904 358.307 28.2668 359.132 28.2668 360.149C28.2668 361.167 29.0904 361.992 30.1064 361.992Z" fill="#FF7918"/>
<path d="M22.1606 344.163C23.1765 344.163 24.0001 343.338 24.0001 342.32C24.0001 341.303 23.1765 340.478 22.1606 340.478C21.1446 340.478 20.321 341.303 20.321 342.32C20.321 343.338 21.1446 344.163 22.1606 344.163Z" fill="#FF7918"/>
<path d="M15.6498 325.765C16.6657 325.765 17.4893 324.94 17.4893 323.922C17.4893 322.904 16.6657 322.079 15.6498 322.079C14.6338 322.079 13.8102 322.904 13.8102 323.922C13.8102 324.94 14.6338 325.765 15.6498 325.765Z" fill="#FF7918"/>
<path d="M10.6126 306.902C11.6286 306.902 12.4522 306.077 12.4522 305.06C12.4522 304.042 11.6286 303.217 10.6126 303.217C9.59662 303.217 8.77301 304.042 8.77301 305.06C8.77301 306.077 9.59662 306.902 10.6126 306.902Z" fill="#FF7918"/>
<path d="M7.08751 287.713C8.10348 287.713 8.92709 286.888 8.92709 285.87C8.92709 284.852 8.10348 284.027 7.08751 284.027C6.07153 284.027 5.24792 284.852 5.24792 285.87C5.24792 286.888 6.07153 287.713 7.08751 287.713Z" fill="#FF7918"/>
<path d="M5.09385 268.292C6.10983 268.292 6.93343 267.467 6.93343 266.449C6.93343 265.431 6.10983 264.606 5.09385 264.606C4.07788 264.606 3.25427 265.431 3.25427 266.449C3.25427 267.467 4.07788 268.292 5.09385 268.292Z" fill="#FF7918"/>
<path d="M252.619 4.98228C252.619 6.31368 251.54 7.39424 250.211 7.39424C248.882 7.39424 247.803 6.31368 247.803 4.98228C247.803 3.65087 248.882 2.57031 250.211 2.57031C251.54 2.57031 252.619 3.65087 252.619 4.98228Z" fill="#FF7918"/>
<path d="M269.685 8.16572C271.015 8.16572 272.093 7.08585 272.093 5.75376C272.093 4.42167 271.015 3.3418 269.685 3.3418C268.355 3.3418 267.277 4.42167 267.277 5.75376C267.277 7.08585 268.355 8.16572 269.685 8.16572Z" fill="#FF7918"/>
<path d="M289.035 10.4812C290.364 10.4812 291.442 9.40128 291.442 8.06919C291.442 6.7371 290.364 5.65723 289.035 5.65723C287.705 5.65723 286.627 6.7371 286.627 8.06919C286.627 9.40128 287.705 10.4812 289.035 10.4812Z" fill="#FF7918"/>
<path d="M308.133 14.3308C309.463 14.3308 310.541 13.2509 310.541 11.9188C310.541 10.5867 309.463 9.50684 308.133 9.50684C306.804 9.50684 305.726 10.5867 305.726 11.9188C305.726 13.2509 306.804 14.3308 308.133 14.3308Z" fill="#FF7918"/>
<path d="M326.876 19.6853C328.206 19.6853 329.284 18.6054 329.284 17.2733C329.284 15.9412 328.206 14.8613 326.876 14.8613C325.546 14.8613 324.468 15.9412 324.468 17.2733C324.468 18.6054 325.546 19.6853 326.876 19.6853Z" fill="#FF7918"/>
<path d="M345.137 26.5065C346.467 26.5065 347.545 25.4267 347.545 24.0946C347.545 22.7625 346.467 21.6826 345.137 21.6826C343.807 21.6826 342.729 22.7625 342.729 24.0946C342.729 25.4267 343.807 26.5065 345.137 26.5065Z" fill="#FF7918"/>
<path d="M362.791 34.7653C364.121 34.7653 365.199 33.6855 365.199 32.3534C365.199 31.0213 364.121 29.9414 362.791 29.9414C361.461 29.9414 360.383 31.0213 360.383 32.3534C360.383 33.6855 361.461 34.7653 362.791 34.7653Z" fill="#FF7918"/>
<path d="M379.742 44.3942C381.072 44.3942 382.15 43.3144 382.15 41.9823C382.15 40.6502 381.072 39.5703 379.742 39.5703C378.412 39.5703 377.334 40.6502 377.334 41.9823C377.334 43.3144 378.412 44.3942 379.742 44.3942Z" fill="#FF7918"/>
<path d="M395.884 55.3347C397.214 55.3347 398.292 54.2548 398.292 52.9227C398.292 51.5906 397.214 50.5107 395.884 50.5107C394.555 50.5107 393.477 51.5906 393.477 52.9227C393.477 54.2548 394.555 55.3347 395.884 55.3347Z" fill="#FF7918"/>
<path d="M411.102 67.529C412.432 67.529 413.51 66.4491 413.51 65.117C413.51 63.785 412.432 62.7051 411.102 62.7051C409.772 62.7051 408.694 63.785 408.694 65.117C408.694 66.4491 409.772 67.529 411.102 67.529Z" fill="#FF7918"/>
<path d="M425.308 80.8913C426.638 80.8913 427.716 79.8114 427.716 78.4793C427.716 77.1473 426.638 76.0674 425.308 76.0674C423.978 76.0674 422.9 77.1473 422.9 78.4793C422.9 79.8114 423.978 80.8913 425.308 80.8913Z" fill="#FF7918"/>
<path d="M438.407 95.3444C439.736 95.3444 440.814 94.2646 440.814 92.9325C440.814 91.6004 439.736 90.5205 438.407 90.5205C437.077 90.5205 435.999 91.6004 435.999 92.9325C435.999 94.2646 437.077 95.3444 438.407 95.3444Z" fill="#FF7918"/>
<path d="M450.33 110.791C451.66 110.791 452.738 109.711 452.738 108.379C452.738 107.047 451.66 105.967 450.33 105.967C449 105.967 447.922 107.047 447.922 108.379C447.922 109.711 449 110.791 450.33 110.791Z" fill="#FF7918"/>
<path d="M460.982 127.124C462.312 127.124 463.39 126.044 463.39 124.712C463.39 123.38 462.312 122.3 460.982 122.3C459.653 122.3 458.575 123.38 458.575 124.712C458.575 126.044 459.653 127.124 460.982 127.124Z" fill="#FF7918"/>
<path d="M470.315 144.268C471.645 144.268 472.723 143.188 472.723 141.856C472.723 140.524 471.645 139.444 470.315 139.444C468.985 139.444 467.907 140.524 467.907 141.856C467.907 143.188 468.985 144.268 470.315 144.268Z" fill="#FF7918"/>
<path d="M478.261 162.088C479.591 162.088 480.669 161.008 480.669 159.676C480.669 158.344 479.591 157.264 478.261 157.264C476.931 157.264 475.853 158.344 475.853 159.676C475.853 161.008 476.931 162.088 478.261 162.088Z" fill="#FF7918"/>
<path d="M484.772 180.486C486.102 180.486 487.18 179.406 487.18 178.074C487.18 176.742 486.102 175.662 484.772 175.662C483.442 175.662 482.364 176.742 482.364 178.074C482.364 179.406 483.442 180.486 484.772 180.486Z" fill="#FF7918"/>
<path d="M489.809 199.348C491.139 199.348 492.217 198.268 492.217 196.936C492.217 195.604 491.139 194.524 489.809 194.524C488.479 194.524 487.401 195.604 487.401 196.936C487.401 198.268 488.479 199.348 489.809 199.348Z" fill="#FF7918"/>
<path d="M493.334 218.548C494.664 218.548 495.742 217.468 495.742 216.136C495.742 214.804 494.664 213.724 493.334 213.724C492.004 213.724 490.926 214.804 490.926 216.136C490.926 217.468 492.004 218.548 493.334 218.548Z" fill="#FF7918"/>
<path d="M495.328 237.968C496.657 237.968 497.736 236.889 497.736 235.556C497.736 234.224 496.657 233.145 495.328 233.145C493.998 233.145 492.92 234.224 492.92 235.556C492.92 236.889 493.998 237.968 495.328 237.968Z" fill="#FF7918"/>
</g>
<defs>
<clipPath id="clip0_1141_7183">
<rect width="500" height="500" fill="white" transform="translate(0.495117 0.71582)"/>
</clipPath>
</defs>
</svg>
