<?xml version="1.0" encoding="UTF-8"?>
<svg id="Layer_1" data-name="Layer 1" xmlns="http://www.w3.org/2000/svg" viewBox="0 0 400 400">
  <defs>
    <style>
      .cls-1 {
        fill: #3e3e3e;
      }
    </style>
  </defs>
  <path class="cls-1" d="m150.36,38.13c.27-1.23.44-2.48.82-3.67.54-1.69,1.12-3.4,1.92-4.98.44-.86,1.29-1.59,2.11-2.15,2.11-1.44,4.26-2.83,6.49-4.08,2.6-1.46,5.32-2.7,7.94-4.12,2.16-1.17,4.23-2.49,6.38-3.67,1.76-.98,3.57-1.86,5.36-2.78,3.37-1.73,6.71-3.51,10.11-5.16,2.88-1.4,5.81-2.74,8.77-3.95,2.16-.88,4.42-1.55,6.66-2.22.72-.21,1.53-.17,2.29-.17,2.91-.02,5.87-.24,8.66.82,2,.77,3.96,1.66,5.87,2.63,1.59.81,3.12,1.75,4.6,2.76,1.34.92,2.54,2.05,3.86,3.01,3.02,2.16,6.1,4.24,9.1,6.42,1.83,1.33,3.81,1.49,5.9,1,2.18-.51,4.13-.19,5.67,1.51,1.67,1.85,3.25,3.77,4.86,5.67,2.17,2.57,3.08,5.71,3.85,8.87.35,1.44.04,2.97-.39,4.46-.48,1.64-.67,3.37-.98,5.06-.44-.05-.88-.11-1.47-.18.12.64.22,1.12.31,1.59.05.63.04,1.27.16,1.88.16.83.39,1.64.64,2.45.23.76.5,1.49.76,2.24.01.26.02.52.04.78.05.2.1.4.15.6.08.56.16,1.12.25,1.69.05.18.11.37.16.55.15.82.24,1.65.46,2.44.17.58.52,1.1.79,1.65.01.12.02.24.03.37.06.55.13,1.11.19,1.66,0,.13,0,.26,0,.39-.07.06-.14.13-.21.19l-1.06,2.67c-.05.13-.1.27-.14.4-.02.41-.03.82-.05,1.23,0,1.01,0,2.01,0,3.02,0,.89,0,1.78,0,2.66-.06.32-.11.64-.17.96-.06.63-.12,1.25-.18,1.88,0,0,0,0,0,0-.07.17-.13.34-.2.51,0,0,.02.01.02.01-.84.96-.98,2.16-1.1,3.35l-.15,1c-.01.34-.02.67-.03,1.01-.53.27-.54.54,0,.82v.4c-.53.28-.52.55,0,.82.01.47.02.95.03,1.42.05.4.1.8.15,1.2.07.75.13,1.49.2,2.24-.08.04-.15.07-.23.11.08.04.15.07.23.11.29,1.15.58,2.3.87,3.44.05.27.1.53.15.8,0,.62,0,1.24,0,1.85-.05.2-.1.39-.16.59-.5,1.22-.99,2.45-1.49,3.67-.04.07-.09.13-.13.2,0,.07.01.13.03.19-.77,1.94-.16,3.83.21,5.73.06.4.13.8.19,1.2,0,.26-.01.52-.02.79.05.07.1.14.14.2.34,1.1.71,2.2,1.02,3.31.33,1.15.55,2.34.91,3.48.32,1,.73,1.99,1.18,2.94.42.88.94,1.71,1.42,2.57,0,0,0,0,0,0,0,.11,0,.22-.01.33.06.26.12.52.18.78.35,1.02.68,2.04,1.05,3.06.25.68.54,1.34.85,2,.05.11.25.15.38.23h0c.41.77.82,1.55,1.22,2.33,0,0,0,0,0,0,0,.11-.01.22-.02.33.05.13.11.25.16.38.33.82.64,1.66.99,2.47.18.43.42.83.67,1.23.61.98,1.23,1.94,1.85,2.91h0c.12.54.14,1.13.38,1.62.49,1.01,1.07,1.99,1.66,2.95.13.2.46.28.69.41,0,0,0,0,0,0,.41,1.34.95,2.6,2.14,3.45,0,0,0,0,0,0,.06.08.13.16.19.23.28.58.52,1.18.85,1.72.34.54.78,1.02,1.18,1.52.18.2.37.41.55.61.09.13.18.26.27.39.14.2.28.39.43.59,0,0,0,0,0,0,.06.58.23,1.05.93,1.05.22.27.44.54.67.81.2.27.41.53.61.8.07.13.14.27.21.4.2.21.39.41.59.62.26.15.53.29.79.44,1.01,1.74,2.66,2.47,4.52,2.86.13.05.27.1.4.14.27.02.55.03.82.05.74.05,1.48.1,2.22.16l1.43.04c.81.06,1.62.11,2.43.17.29,0,.59-.01.88-.02.05.01.09.03.13.05.46.13.92.26,1.38.39,1.1.28,2.21.57,3.31.85.33.05.66.1.99.15.34.01.69.03,1.03.04.67.06,1.34.11,2,.17.08.01.15.02.23.03.4.06.8.11,1.19.17.36.08.72.15,1.07.25,1.15.33,2.29.67,3.43,1.01.81.05,1.61.1,2.42.15.21.01.41.02.62.04.6.06,1.21.12,1.81.18.07.01.15.02.22.04.4.06.79.11,1.19.17,2.69.99,5.42,1.68,8.33,1.41,4.34,0,8.69,0,13.03,0,.07.01.13.03.2.04.33.06.66.11.99.17.69.27,1.37.54,2.06.8h0c.07.1.14.2.21.3,0,0,0,0,0,0,0,.11-.01.22-.02.33,0,.41.01.82.02,1.23,0,.06,0,.12-.04.18-.06.13-.12.26-.18.38,0,.11,0,.22.01.32,0,0,0,0,0,0-.47,1.08-.95,2.16-1.42,3.24,0,0,0,.01,0,.01-.08.03-.16.06-.24.08-.05.09-.1.17-.15.26,0,.06-.01.11-.04.15-.84.92-1.55,1.91-1.61,3.22,0,.11,0,.22.01.33,0,0,0,0,0,0-.54,1.01-1.08,2.03-1.62,3.04,0,0,0,.01,0,.01-.07.1-.14.2-.21.3,0,0,0,0,0,0-.34.48-.68.95-1.02,1.43,0,0,0,0,0,0-.14.2-.27.41-.41.61h0c-.07.1-.13.2-.2.3,0,0,0,.01,0,.01-.07.13-.14.26-.2.39,0,0,0,.01,0,.01-.41.64-.82,1.28-1.23,1.92,0,0,0,0,0,0-.07.14-.14.27-.21.41h0c-.07.1-.14.2-.2.3h0c-.07.11-.14.21-.21.31h0c-.34.47-.68.95-1.02,1.42,0,0,0,0,0,0-.13.24-.27.48-.4.71,0,0,0,0,0,0-.07.13-.14.27-.2.4h0c-.14.18-.27.34-.41.51,0,0,0,0,0,0-.27.41-.54.81-.81,1.22h0c-.07.1-.13.2-.2.3h0c-.07.11-.14.21-.21.31h0c-.41.54-.81,1.08-1.22,1.63,0,0,0,0,0,0-.21.2-.42.4-.63.6-.07.14-.14.27-.2.41.01.1.02.2.03.31h0c-.8.41-1.3,1.03-1.43,1.93h0c-.07.1-.13.2-.2.3,0,0,0,.01,0,.01-.5.85-.99,1.7-1.49,2.54-.05.2-.09.39-.14.59,0,.48,0,.95,0,1.43,0,2.02,0,4.05,0,6.07-.01.14-.03.29-.04.43-.06.39-.11.79-.17,1.18-.36,1.3-.72,2.6-1.08,3.9-.04.13-.09.26-.13.38-.01.28-.03.55-.04.83-.05.68-.1,1.35-.15,2.03-.01.13-.02.27-.04.4-.06.47-.12.94-.18,1.42-.02.28-.03.55-.05.83l-.16,1.2c-.02.68-.03,1.37-.05,2.05-.05.4-.1.8-.15,1.2-.07.67-.14,1.33-.21,2-.12,1.13-.37,2.26-.33,3.38.05,1.33.35,2.65.54,3.97.05.13.1.26.14.39.02.21.04.42.06.63l.17.99c.01.14.02.28.04.43.06.47.11.94.17,1.41.01.21.02.42.03.63,0,1.96,0,3.92,0,5.88-.01.41-.02.82-.04,1.23,0,.67,0,1.34,0,2.01.02.28.03.55.05.83.05.13.09.26.14.39.43.96.85,1.91,1.28,2.87.05.13.1.26.15.38.02.14.04.28.05.42l.15.39c.02.14.04.28.05.42.05.47.1.94.16,1.4.02.55.03,1.09.05,1.64.04.2.09.4.13.59.29,1.36.58,2.73.87,4.09.05.2.1.39.15.59l.05,1.85c0,.6,0,1.21,0,1.81-.02.14-.03.29-.05.43-.05.2-.1.39-.16.59-.02.2-.03.41-.05.61-.28.75-.55,1.51-.83,2.26-.05.2-.09.39-.14.59-.02.28-.03.56-.05.83-.05.41-.09.82-.14,1.23-.01.13-.02.26-.04.38-.06.35-.11.69-.17,1.04,0,.06-.01.12-.03.18-.06.27-.12.53-.19.8-.42.89-.84,1.78-1.27,2.67-.05.13-.1.26-.15.38,0,.17,0,.35.01.52,0,0,0,.01,0,.01-.08.03-.17.05-.25.08-.06.13-.12.25-.17.38-1.03,1.62-2.06,3.24-3.08,4.86-.07.01-.14.03-.21.04-.05.07-.11.13-.16.2-.13.22-.25.43-.38.65-.06.06-.13.13-.19.19-.21.12-.43.25-.64.37,0,.08,0,.15,0,.23,0,0,0,0,0,0-.64.48-1.27.97-1.91,1.45h0c-.45.13-.89.26-1.34.39-.13.06-.26.12-.39.18-.61.41-1.22.83-1.83,1.24l-.3.21s0,0,0,0c-1.15.54-2.3,1.08-3.45,1.62h-.01c-.17,0-.34,0-.51,0l-.39.14c-.14.02-.29.04-.43.06-.13.05-.25.1-.38.15-1.16.43-2.32.85-3.47,1.28-.14.05-.27.11-.41.16-.07.01-.14.03-.2.04-.4.06-.81.12-1.21.17-.14.01-.27.02-.41.03-3.47,0-6.93,0-10.4,0-.32,0-.64.1-.97.15-.26.04-.53.05-.79.11-2.72.64-3.39,2.13-2.03,4.52.12.2.25.39.38.58h.01c.04.5-.03,1.04.15,1.48.45,1.13,1.06,2.21,1.53,3.34.75,1.82,1.44,3.67,2.16,5.5.05.11.1.23.15.34.14,1.56.27,3.12.41,4.68-.07.04-.15.07-.22.11.08.04.15.07.23.11-.07,1.01-.13,2.02-.2,3.03-.08.04-.15.07-.23.11.08.04.15.07.23.11,0,.2,0,.4,0,.6-.07.55-.13,1.09-.2,1.64-.05.47-.1.94-.16,1.41-.02.21-.04.42-.06.62-.05.2-.1.39-.15.59-.02.14-.04.29-.06.43-.05.12-.1.24-.15.35-.07.13-.13.26-.2.39-.34,0-.68,0-1.02,0-.07-.05-.14-.11-.2-.16-.27-.77-.52-1.54-.8-2.3-.25-.67-.53-1.33-.79-1.99-.41-.34-.81-.68-1.22-1.02-.15-.05-.29-.11-.44-.16-.39-.07-.79-.23-1.17-.21-2.17.15-4.15-.34-5.9-1.67-.08-.34-.15-.67-.23-1.01-.05-.12-.09-.24-.14-.36-.02-.15-.05-.3-.07-.44-.05-.13-.1-.25-.15-.38-.42-1.03-.84-2.06-1.26-3.08l-2-3.47c-.35-.56-.63-1.18-1.05-1.68-.76-.92-1.63-1.76-2.38-2.68-1.25-1.52-3.68-1.98-5.15-.57-1.62,1.55-3.16,3.19-4.74,4.79,0,0-.03,0-.03,0-.16.13-.33.27-.49.4,0,0,0,0,0,0l-.2.2s0,0,0,0c-.08.05-.15.1-.23.15-.06.12-.12.24-.18.36h0c-.87.69-1.78,1.35-2.04,2.54h0c-.07.07-.13.13-.2.2,0,0,0,0,0,0-.13.24-.26.47-.4.71,0,0,0,0,0,0-.07.2-.13.4-.2.6,0,0,0,0,0,0-.09.17-.18.34-.27.51-.05.2-.1.4-.15.59-.02.21-.03.42-.05.62-.05.27-.1.53-.15.8-.02.41-.03.82-.05,1.23l-.15,1.01c-.36,1.76-.72,3.53-1.08,5.29-.05.13-.09.27-.14.4-.08.41-.17.82-.25,1.22-.05.2-.1.4-.16.6-.01.07-.03.14-.04.21-.05.13-.11.26-.16.39-.08.21-.16.42-.24.62l-.16.6h0c-.07.13-.14.27-.21.4-.08.21-.16.41-.24.62-.05.2-.11.4-.16.6h0c-.07.13-.14.27-.21.4-.08.21-.16.41-.24.62-.05.14-.1.28-.15.42,0,.06-.02.13-.05.19-.05.13-.11.27-.16.4h-.01c-.06.07-.13.14-.19.2v.02c-.79.16-.99.73-1.01,1.43,0,.04,0,.08,0,.13-.13.19-.27.39-.4.58,0,0,0-.01,0-.01-.26.26-.58.49-.77.79-.77,1.24-1.49,2.52-.75,4.02.68,1.38,2.06,1.43,3.35,1.65.07.05.13.09.2.14.07.02.14.03.21.05.14.05.27.1.41.16.07.02.13.03.2.05.14.05.27.1.41.16.07.01.13.03.2.04.07.05.13.1.2.16h0c.27.94,1.04,1.1,1.84,1.22.04,0,.08,0,.13,0,.57.47,1.13.94,1.7,1.42h0c.07.06.14.13.21.2,0,0,0,0,0,0l.21.21s0,0,0,0c.34.41.68.82,1.02,1.23,0,0,0,0,0,0,.06.09.12.17.18.26.06.12.12.25.17.37.1.45.16.92.32,1.35.36.98.77,1.93,1.16,2.9,0,.34,0,.68,0,1.02-.02.27-.05.53-.07.8-.05.12-.09.24-.14.36-.2.22-.41.44-.61.66,0,0,0,0,0,0-.07.07-.14.14-.21.21,0,0,0,0,0,0-.06.08-.13.16-.19.24-.72.87-1.41,1.75-2.16,2.58-.2.22-.58.31-.89.42-1.06.37-2.17.66-3.2,1.11-1.34.58-2.62,1.29-3.93,1.95-.13.06-.26.12-.39.19h-.02c-.13.06-.25.11-.38.17-.14.09-.28.18-.41.27h0c-.14,0-.27,0-.41,0-.24.07-.48.14-.71.21,0,0,0,0,0,0-1.63,0-3.26,0-4.89,0h0c-.2-.07-.41-.14-.61-.21h0c-.27-.07-.54-.13-.81-.2h0c-.14-.07-.27-.13-.41-.2,0,0,0,.02,0,.02-.22-.15-.44-.3-.66-.45l-.24-.2v-.02c-.51-.34-1.04-.66-1.54-1.03-.78-.59-1.54-1.21-2.3-1.82-.34-.41-.67-.81-1.01-1.22-.07-.07-.14-.14-.2-.21-.07-.07-.14-.14-.2-.2-.41-.47-.81-.95-1.22-1.42-.07-.07-.14-.14-.21-.2-.54-.61-1.08-1.22-1.62-1.83-.47-.61-.95-1.22-1.42-1.83-.63-.97-1.26-1.93-1.89-2.9h.02c-.07-.11-.13-.21-.2-.32,0,0,0,0,0,0-.1-.07-.21-.14-.31-.21h-.06c-.08-.2-.16-.4-.24-.61-.13-.21-.27-.41-.4-.62h0c-.07-.16-.14-.33-.21-.5h0c-.07-.1-.13-.2-.2-.3h0c-.2-.27-.41-.54-.61-.82h0c-.12-.21-.25-.43-.37-.64-.44-.57-1.01-1.14-1.67-.55-.77.69-1.35,1.6-2.02,2.42h0c-.21.49-.6.98-.61,1.47-.08,3.75-.28,7.53,1.54,11.01.3.57.74,1.08,1.11,1.61h-.02c.07.11.14.21.2.31h0c.07.07.14.14.2.2h0c.54.51,1.09,1.01,1.63,1.52h0c.07.1.14.2.2.3h0c.12.15.24.3.36.45.24.19.47.38.71.56.26.25.51.51.77.76.29.29.57.58.86.87.16.14.32.28.48.42.09.16.18.32.27.48v.08c.08.11.14.22.2.33v.08c.08.09.14.18.2.26h0c.07.09.14.18.21.27.07.09.14.18.22.27.06.09.12.18.19.27h0c.15.21.31.42.46.63.19,1.54.37,3.08.56,4.63-.03,1.76.39,3.37,1.63,4.69h0c.18.56.22,1.25.58,1.66.92,1.06,1.23,2.19.85,3.53,0,0,0,0,0,0-.07.1-.14.19-.21.29-.2.75-.41,1.5-.61,2.25h0c-.34,1.45-.68,2.91-1.01,4.37h0c-1.11,1.91-2.23,3.82-3.34,5.73-.03.06-.07.11-.11.17-.26.34-.52.67-.78,1.01h-.01c-.15.1-.3.2-.45.3h0c-.1.13-.19.27-.29.41-.05.03-.08.06-.1.12-.49.43-.97.85-1.46,1.28-.07.07-.14.13-.21.2-.07.07-.14.14-.2.2-.54.41-1.08.81-1.62,1.22-1.19.75-2.38,1.5-3.55,2.27-.59.38-1.15.79-1.73,1.19-1.31.68-2.58,1.45-3.94,2.02-1.97.83-4.01,1.5-6,2.29-.86.34-1.68.82-2.51,1.24,0,0-.01-.03-.01-.03-.1.07-.2.13-.31.2h0c-.13,0-.27,0-.4,0-.17.07-.34.14-.51.2h-.01c-.86.34-1.72.67-2.58,1.01-.33.07-.65.19-.98.19-3.38,0-6.77-.01-10.15-.02-.06,0-.13,0-.19,0-.14,0-.28,0-.42,0h-1.2c-1.81-.06-3.63-.11-5.44-.19-1.02-.04-2.04-.1-3.05-.21-3.53-.38-7.07-.72-10.59-1.22-3.61-.52-7.19-1.22-10.79-1.84-.27-.12-.55-.24-.82-.36,0,0,0,0,0,0-.23-.95-1.02-1.08-1.79-1.24-1.05-.53-2.11-1.07-3.16-1.6h-.03c-2.04-1.23-4.08-2.46-6.12-3.69-.68-.55-1.37-1.09-2.05-1.64-.08-.08-.15-.16-.23-.23-.13-.12-.27-.23-.4-.35-.24-.83-.79-1.36-1.6-1.62-.75-1.08-1.51-2.16-2.26-3.24-.07-.17-.15-.34-.22-.51h0c-.4-.98-.8-1.97-1.2-2.96-.19-.87-.38-1.74-.58-2.61-.01-.21-.03-.42-.04-.63,0-.68,0-1.35,0-2.03.02-.41.03-.82.05-1.24.05-.33.1-.67.15-1,.02-.41.04-.83.05-1.24v-3.01c-.02-.34-.04-.69-.05-1.03-.05-.54-.11-1.07-.16-1.61,0-.96,0-1.91,0-2.87.05-.33.11-.66.16-1l.04-.22.17-.79c.21-.34.38-.7.62-1.01,1.12-1.45,2.2-2.94,3.43-4.29,1.02-1.12,2.08-2.16,2.5-3.66.05-1.55.1-3.1.16-4.65.01-1.83.02-3.67.03-5.5.06-1.35.11-2.7.17-4.05,0-.61,0-1.22,0-1.83-.05-.33-.1-.67-.15-1-.2-1.06-.78-1.86-1.64-2.48-.06-.07-.13-.14-.19-.21-.34-.68-.78-1.33-1.01-2.04-.57-1.8-1.27-3.51-2.65-4.86-.07-.07-.13-.14-.2-.21-.46-.32-.97-.95-1.36-.89-.49.08-.89.73-1.32,1.14,0,0,0,0,0,0-.13.17-.27.34-.4.52,0,0,0,.01,0,.01-1.12.75-1.5,1.86-1.49,3.15-.05.67-.1,1.34-.16,2.01-.01.48-.02.96-.04,1.44-.06.33-.11.66-.17.98,0,.15.02.29.02.44h-.02c-.07.06-.14.12-.21.18,0,.11,0,.21.01.32h0c-1.08,1.5-2.16,2.99-3.23,4.49-.05.07-.01.19-.02.29h0c-.07.09-.13.2-.2.3h0c-.49.49-.98.99-1.47,1.48-.07.07-.14.14-.2.2-.07.07-.14.14-.2.21l-1.47,1.24c-.9.48-1.84.91-2.17,2.01,0,0-.01.02-.01.02-.13.07-.26.13-.38.2h-.01c-.2.14-.4.28-.6.41h-.01c-.06.08-.13.14-.19.2h-.01c-.06.08-.13.14-.19.2h-.01c-.06.08-.13.15-.19.21-.25.22-.48.45-.74.65-.79.61-1.6,1.21-2.39,1.81,0,0,0,0,0,0-.1.07-.2.13-.3.2h0c-.89.18-1.77.36-2.66.55-.13-.05-.26-.09-.39-.14-.48-.02-.96-.04-1.44-.06-1.14-.32-2.29-.64-3.43-.96-.8-.38-1.62-.73-2.41-1.13-.53-.27-1.02-.62-1.55-.91-.78-.42-1.57-.81-2.35-1.21,0,0,0,0,0,0-.81-.49-1.62-.98-2.42-1.47-.14-.05-.28-.1-.42-.15h0c-.07-.07-.14-.14-.2-.2,0,0,0,0,0,0-.07-.07-.13-.14-.2-.2h0c-.34-.41-.68-.81-1.02-1.22,0,0,0,0,0,0-.07-.07-.14-.14-.2-.2h0c-.33-.37-.59-.87-1.01-1.08-1.67-.84-3.39-1.59-5.09-2.38h0c-.54-.5-1.08-1-1.62-1.5-.2-.05-.41-.1-.61-.16-.2-.13-.4-.26-.6-.39-1.13-1.2-2.29-2.36-3.13-3.81-.42-.72-.9-1.4-.29-2.2.86-1.13,1.77-2.22,2.66-3.32.11-.13.23-.27.34-.4.02-.07.04-.14.07-.21.66-.72,1.31-1.44,1.97-2.16.41-.49.83-.98,1.24-1.47.07-.07.14-.14.21-.2.07-.07.14-.13.21-.2.07-.07.14-.13.2-.2.4-.34.81-.68,1.21-1.02.07-.07.14-.13.21-.2.07-.06.14-.13.21-.19.68-.47,1.35-.95,2.03-1.42.13-.01.26-.02.38-.04.13-.06.26-.12.39-.17.06-.03.11-.04.18-.04.07-.04.15-.09.22-.13.08-.02.16-.04.24-.05.53-.05,1.06-.11,1.59-.16.35,0,.7,0,1.05,0,.74.05,1.47.11,2.21.16.08.02.15.03.23.05l.58.16c.08.02.16.03.24.05.13.05.25.1.38.15.11,0,.21,0,.32-.01h.01c.64.41,1.28.82,1.92,1.23h0c.07.07.14.13.21.2h0c.1.07.2.13.3.2h0c.1.07.2.14.3.21h0c.27.27.54.54.82.81h0c.07.07.13.14.2.21,0,0,0,0,0,0,.07.07.14.14.21.21,0,0,0,0,0,0,.07.07.14.14.21.21h0c.41.54.82,1.08,1.22,1.62h0c.07.1.14.19.21.29,0,0,0,0,0,0,0,.11,0,.22-.01.33.05.13.1.25.15.38l.67,1.03s0,0,0,0c.21.44.41.88.62,1.32h0c.07.13.14.27.2.41h0c.05.1.11.22.16.34.08.25.11.53.25.76.4.68.93,1.41,1.78,1.2,1.06-.27,2.05-.82,2.51-1.96.15-.14.3-.29.45-.43.24-.48.49-.95.73-1.43,0-.1-.02-.2-.02-.3,0,0,.01.01.01.01.59-1.26.68-2.52.06-3.8-.01-.2-.02-.39-.03-.59-.05-.13-.1-.26-.16-.38l-.05-.23c-.05-.12-.1-.25-.15-.37-.02-.21-.04-.42-.06-.63-.05-.19-.1-.39-.14-.58-.02-.21-.04-.42-.06-.63-.05-.13-.1-.26-.14-.39-.42-1.09-.85-2.18-1.27-3.27-.06-.27-.11-.53-.17-.8-.01-.07-.03-.14-.04-.22-.05-.13-.1-.26-.14-.39l-.06-.62c-.05-.2-.09-.4-.14-.59-.36-1.16-.72-2.32-1.08-3.48-.05-.13-.09-.26-.14-.39l-.06-.42c-.06-.4-.11-.81-.17-1.21-.01-.14-.02-.27-.03-.41l-.16-4.05c0-.28,0-.55,0-.83.02-.02.06-.05.06-.06-.01-.05-.04-.09-.06-.14,0-1.02,0-2.03,0-3.05.02-.02.07-.04.06-.06-.01-.05-.04-.09-.06-.14,0-.14,0-.28,0-.42,0-1.35,0-2.7,0-4.05h-.06c-.32-.73-.68-1.44-.95-2.18-.45-1.24-.81-2.51-1.27-3.74-.28-.74-.84-1.42-.96-2.18-.23-1.41-.87-2.59-1.66-3.72-.05-.05-.1-.1-.15-.15-.02-.07-.04-.13-.06-.2-.13-.14-.26-.28-.39-.42-.07-.07-.14-.13-.21-.2-.27-.2-.54-.41-.8-.61-.06,0-.13,0-.19-.02-.06-.07-.13-.14-.19-.22-.07-.07-.13-.14-.2-.21-.07-.06-.14-.13-.22-.19l-1.46-.84c-.13-.05-.27-.1-.4-.14-2.23.61-4.46,1.19-6.68,1.84-.48.14-.89.53-1.33.8h0c-.13.07-.27.14-.4.2,0,0,0,0,0,0-.11,0-.21-.01-.32-.02-.2.05-.4.11-.59.16-.07.01-.14.03-.21.04-.13.05-.27.11-.4.16-1.48,0-2.5,1.01-3.68,1.66-.25,0-.5.01-.75.02-.42.05-.84.11-1.26.16-.47.07-.95.13-1.42.2-.61-.2-1.22-.39-1.82-.59-.24-.06-.48-.12-.72-.19,0,0-.03,0-.03,0-.35-.29-.7-.58-1.05-.87-1.15-.8-2.3-1.61-3.45-2.41-.07-.07-.14-.15-.21-.22-.41-.34-.82-.67-1.23-1.01-.07-.07-.14-.14-.2-.2-.07-.07-.14-.13-.21-.2-.2-.14-.4-.28-.6-.42-.27-.27-.54-.54-.81-.81-.07-.07-.13-.14-.2-.21-.55-.67-1.09-1.35-1.64-2.02-.13-.2-.27-.41-.4-.61-.42-.49-.85-.99-1.27-1.48,0,0,0,.01,0,.01-.06-.12-.11-.24-.17-.37-.27-.34-.53-.67-.8-1.01-.2-.14-.4-.27-.61-.41-.09-.08-.17-.16-.25-.24,0,0,0-.03,0-.03-.06-.1-.13-.2-.19-.3h0c-.14-.2-.27-.41-.41-.61,0,0,0,0,0,0-.07-.07-.13-.13-.2-.2,0,0,0,0,0,0-.07-.07-.13-.13-.2-.2,0,0,0,0,0,0-.27-.3-.55-.6-.82-.9v-.02c-.13-.3-.27-.61-.4-.91h0c.01-2-.05-4.02.06-6.03.07-1.4.18-2.86.62-4.17.65-1.91,1.04-3.82.98-5.83.06-.32.17-.64.17-.96.01-7.15.02-14.31,0-21.46,0-.32-.11-.64-.17-.96-.55-1.14-1.1-2.29-1.65-3.43-.49-.98-.99-1.96-1.48-2.94,0,0,0,0,0,0-.29-1.27-.4-2.61-.9-3.78-.72-1.71-1.2-3.41-1.08-5.26,0-3.33,0-6.66,0-9.99.01-.13.03-.27.04-.4l.17-1.4c.02-.08.03-.15.05-.23.05-.13.1-.26.15-.39.01-.07.03-.15.04-.22.05-.13.1-.26.16-.39.29-.75.58-1.51.87-2.26.05-.13.09-.26.14-.39.02-.28.04-.55.06-.83v-1.79c-.46-2.38-1.76-4.32-3.26-6.15-.07-.07-.13-.14-.2-.21-.42-.62-.84-1.24-1.25-1.85-.26-.52-.53-1.04-.79-1.56-.08,0-.16,0-.23.01h0c-.07-.07-.13-.14-.2-.2h0c-.2-.3-.41-.61-.61-.91h0c-.07-.11-.13-.21-.2-.31,0,0,0,0,0,0-.07-.1-.14-.2-.21-.3,0,0,0,0,0,0-.07-.1-.13-.2-.2-.3h0c-.34-.47-.68-.95-1.01-1.42h0c-.07-.1-.14-.19-.21-.29h0c-.07-.14-.14-.28-.2-.41h0c0-.18,0-.35.01-.53-.06-.13-.11-.26-.17-.39l-.25-.09h0c-.07-.11-.13-.21-.2-.31h0c-.27-.41-.54-.82-.81-1.23h0c-.07-.07-.14-.14-.2-.21h0c-.07-.16-.15-.32-.22-.49,0,0,0,0,0,0-.07-.2-.14-.4-.21-.6h0c-.47-.81-.95-1.62-1.42-2.43h0c-.07-.14-.14-.28-.2-.41h0c-.16-1.43-.44-2.82-1.41-3.96l-.41-.91h0c-.07-.13-.14-.27-.21-.41h0c-.33-1.12-.67-2.24-1-3.36-.06-.2-.11-.4-.17-.59-.01-.41-.03-.81-.04-1.22,0-.49-.02-.99-.02-1.48,0-.09.01-.18.02-.27.89-.43,1.77-.86,2.66-1.29.13-.05.26-.1.39-.16.07-.02.15-.03.22-.05.13-.05.26-.11.39-.16l.22-.04,1.2-.18c2.31,0,4.61,0,6.92,0,1.49.06,2.97.11,4.46.17h1.62c.27-.05.53-.1.8-.15.43-.05.87-.06,1.28-.16,1.48-.35,2.95-.74,4.42-1.11.13-.05.26-.1.39-.15.27-.02.55-.04.82-.05.2-.05.4-.1.6-.16.21-.02.41-.03.62-.05.27-.05.54-.1.8-.15.27-.02.55-.04.82-.05.13-.05.27-.1.4-.14,1.5-.36,2.99-.71,4.49-1.07.26-.05.53-.11.79-.16.14-.01.28-.03.42-.04.2-.05.39-.11.59-.16.27-.02.55-.03.82-.05.2-.05.4-.1.61-.14v-.06c1.12-.34,2.24-.68,3.35-1.03,0,0,0,0,0,0,.1-.07.21-.13.31-.2,0,0,0,0,0,0,.2,0,.4,0,.6,0,.21-.05.41-.1.62-.15.13-.01.27-.03.4-.04.34-.05.68-.11,1.02-.16.13-.01.27-.02.4-.04.14-.05.27-.1.41-.14.34-.08.69-.17,1.03-.25,0,0,0,0,0,0,.37-.07.73-.14,1.1-.21h.05c.59-.21,1.18-.41,1.77-.6h.73c.21-.07.42-.12.62-.17.06-.02.13-.03.19-.04.21-.05.41-.11.62-.16.2-.02.4-.03.6-.05.14-.04.27-.09.41-.13,1.34-.22,2.66-.48,3.7-1.44,2.32-.65,3.63-2.48,4.8-4.34.9-1.44,1.51-3.06,2.18-4.63,1.22-2.89,2.39-5.81,3.58-8.71,1.09-2.38,2.18-4.76,3.27-7.13,1.19-1.56,1.85-3.35,2.18-5.27l1.47-3.88c.05-.13.1-.26.15-.39,0-.24,0-.48-.01-.72,0,0,0,0,0,0,.56-1.39,1.12-2.78,1.68-4.16.05-.13.1-.27.15-.4.06-.37.13-.75.19-1.12,0,0,0,0,0,0,.4-1.21.8-2.42,1.2-3.64,0,0,0-.05,0-.05.07-.25.13-.5.2-.75v-.06c.07-.19.14-.37.2-.56v-.05c.42-1.11.83-2.21,1.24-3.32.09-.21.18-.42.27-.62.05-.13.1-.25.14-.38,0-.24,0-.48-.01-.72h0c.57-1.6,1.14-3.2,1.7-4.79l.14-.37c0-.17,0-.35-.01-.52h0c.49-1.27.99-2.52,1.48-3.77.05-.13.1-.26.15-.38.02-.21.04-.42.06-.63.05-.12.1-.25.15-.37.42-1.23.85-2.46,1.27-3.69.05-.13.1-.26.15-.38.02-.21.04-.42.06-.63.05-.13.1-.26.14-.38.02-.14.04-.29.06-.43.05-.12.1-.25.14-.37.49-1.7.99-3.41,1.48-5.11.05-.13.1-.25.15-.38.09-.39.18-.77.28-1.16.33-1.25.67-2.5,1-3.75.05-.26.09-.52.14-.78.01-.21.03-.42.04-.63.06-.53.11-1.07.17-1.6.02-.14.03-.29.05-.43.05-.26.1-.52.15-.79.08-.39.14-.78.23-1.17.34-1.45.7-2.9,1.05-4.34.05-.13.09-.26.14-.39.02-.2.04-.4.06-.6.18-.74.37-1.49.55-2.23,0-.18,0-.35-.01-.53,0,0,0,0,0,0,.36-1.19.73-2.38,1.09-3.57.04-.13.08-.27.12-.4l.06-.4.14-.42c.02-.13.04-.26.06-.39.06-.13.11-.26.17-.39.36-1.16.71-2.32,1.07-3.48.05-.13.1-.25.14-.38.02-.21.03-.42.05-.63.05-.26.1-.52.16-.78.02-.15.04-.29.06-.44.05-.19.1-.39.15-.58.01-.07.03-.15.04-.22.02-.02.06-.04.06-.05,0-.05-.03-.09-.04-.13.41-1.36.81-2.73,1.22-4.09.05-.2.09-.39.14-.59.02-.35.05-.7.07-1.04.04-.26.09-.52.13-.78-.32-.74-.67-.04-1-.01Z"/>
</svg>