<svg width="131" height="131" viewBox="0 0 131 131" fill="none" xmlns="http://www.w3.org/2000/svg">
<path d="M10.2397 10.7375L6.79851 7.49485C6.67642 8.93907 6.0258 10.303 4.95228 11.3653C3.87875 12.4276 2.44535 13.1259 0.884766 13.3467L4.4254 16.3585L130.885 124.513L10.2397 10.7375ZM18.588 42.0853V106.654C19.7903 105.493 21.4247 104.79 23.1666 104.683C24.9084 104.577 26.6301 105.075 27.9897 106.08V62.7574L104.207 130.918H117.337L18.588 42.0853ZM107.356 27.1657C105.54 27.172 103.793 26.5288 102.486 25.3726V69.0737L27.6766 0.918213H13.2039L111.897 89.5606V25.6222C110.634 26.6202 109.022 27.1681 107.356 27.1657Z" fill="#349EA3"/>
</svg>
