<svg width="30" height="41" viewBox="0 0 30 41" fill="none" xmlns="http://www.w3.org/2000/svg">
<g clip-path="url(#clip0_1141_7162)">
<path d="M27.328 0.960938H2.672C1.19771 0.960938 0 2.18025 0 3.68112V38.2408C0 39.7416 1.19771 40.9609 2.672 40.9609H27.328C28.8023 40.9609 30 39.7416 30 38.2408V3.68112C30 2.18025 28.8023 0.960938 27.328 0.960938ZM2.22857 30.4432C6.70171 35.3716 24.5211 36.3024 24.5211 36.3024C9.03086 33.5148 3.904 20.7608 2.22857 13.4775V4.96326C2.22857 3.96734 3.02629 3.15524 4.00457 3.15524H25.9954C26.9737 3.15524 27.7714 3.96734 27.7714 4.96326V11.4787C23.2983 6.55023 5.47886 5.61946 5.47886 5.61946C20.9691 8.4048 26.0937 21.1611 27.7714 28.442V36.9563C27.7714 37.9522 26.9737 38.762 25.9954 38.762H4.00457C3.02629 38.762 2.22857 37.9522 2.22857 36.9563V30.4409V30.4432Z" fill="white"/>
<path d="M14.9984 16.0372L10.1302 20.9932L14.9984 25.9491L19.8665 20.9932L14.9984 16.0372Z" fill="white"/>
</g>
<defs>
<clipPath id="clip0_1141_7162">
<rect width="30" height="40" fill="white" transform="translate(0 0.960938)"/>
</clipPath>
</defs>
</svg>
