<?xml version="1.0" encoding="UTF-8"?>
<svg id="Layer_1" data-name="Layer 1" xmlns="http://www.w3.org/2000/svg" viewBox="0 0 400 400">
  <defs>
    <style>
      .cls-1 {
        fill: #3e3e3e;
      }
    </style>
  </defs>
  <path class="cls-1" d="m173.4,0c.1.07.2.17.32.19,1.58.21,3.18.3,4.73.65,2.46.55,4.68,1.68,6.58,3.37.48.43.94.89,1.6,1.51-.09-.82-.15-1.41-.21-1.99.1-.04.2-.09.29-.13.44.7,1.02,1.34,1.29,2.1.63,1.74,1.1,3.55,1.68,5.32.32.98.71,1.93,1.07,2.9.28.78.8,1.57.79,2.34-.04,1.91.83,3.74.31,5.71-.29,1.09,0,2.31-.17,3.44-.19,1.27-.59,2.5-.91,3.75-.22.89-.46,1.77-.68,2.66-.13.5-.25,1-.38,1.5-.02.13-.03.25-.05.38-.13.15-.25.3-.38.45.14.14.28.28.42.42.05.39-.03.85.17,1.14.29.42.78.69,1.15,1.07.19.2.48.57.41.74-.83,1.96-.25,3.96,0,5.88.21,1.67,1.01,3.26,1.56,4.93.16.07.46.19.76.31.12.06.24.12.37.17l.04.06c.13.04.27.09.4.13h0c.07.07.14.13.21.2h0c.07.07.14.13.21.2,0,0,0,0,0,0,.06.07.12.14.18.22.14.14.28.28.42.42.07.06.14.13.21.19,0,0,0,0,0,0,.06.07.13.14.19.21h0c.06.07.12.14.18.21,0,0,.01.01.01.01.05.06.1.12.15.17.05.04.08.09.08.16.07.08.13.16.2.25,0,0,0,0,0,0,.05.07.1.14.15.21.05.04.07.09.07.15.07.08.13.17.2.25h0c.07.14.14.28.21.42.07.12.13.24.2.36l.19.24h0c.05.13.11.27.16.4.5,1.58.99,3.16,1.45,4.62,1.35.16,2.71.32,4.08.49.22.05.45.11.67.16,1.96.67,3.92,1.32,5.87,2.01.55.19,1.03.63,1.59.74,1.76.35,3.23,1.59,5.09,1.59.13.05.25.11.38.16h.02c.08.06.16.11.24.16h-.01c.09.07.18.14.27.21.11.07.21.14.32.21.07.07.15.14.22.21h0c.07.06.15.13.22.19,0,0-.02-.02-.02-.02.13.08.26.16.39.24,0,0,0,0,0,0,.06.07.13.14.19.22.88.53,1.76,1.07,2.64,1.6.15.07.29.13.44.2,0,0,0,0,0,0,.09.07.17.14.26.21.18.08.36.17.54.25.08.05.16.1.23.15,0,0-.01-.01-.01-.01.13.08.27.15.4.23,0,0,0,0,0,0,.14.07.27.14.41.21h0c.08.06.16.13.25.2,1.14.68,2.27,1.37,3.41,2.05.09.06.18.12.27.18.06,0,.11.01.14.06.07.05.14.1.22.15h0c.08.06.16.13.25.2.53.34,1.05.68,1.58,1.02.08.06.16.13.23.19h-.02c.09.06.18.13.27.2.11.06.22.13.34.19.33.21.67.43,1,.64,0,0,0,0,0,0,.07.06.14.13.21.19h0c.06.07.12.14.17.21.21.13.42.27.63.4l.22.2s-.01,0-.01,0c.09.07.18.13.28.2.06,0,.1.03.13.08.07.05.13.09.2.14,0,0,0,0,0,0,.07.06.15.13.22.19,0,0-.01,0-.01-.01.07.07.15.14.22.21,0,0-.01-.02-.01-.02.11.08.23.16.34.24.15.13.31.26.46.39.08.07.15.13.23.2,0,0,0-.01,0-.01.07.07.15.14.22.21h-.02c.09.06.19.13.28.2.05,0,.09.02.11.07.05.05.11.11.16.16.08.07.16.15.23.22.07.06.14.12.22.17,0,0,0,0,0,0l.21.21s0,0,0,0c.07.07.14.14.21.2,0,0,0,0,0,0,.07.07.14.14.21.21h0c.07.06.14.13.21.2,0,0,0,0,0,0,.07.07.14.14.21.21h0c.07.06.14.13.21.2h0c.07.06.15.13.22.2,0,0,0,0,0,0l.2.22s0,0,0,0l.21.21s0,0,0,0c.07.07.14.14.21.21,0,0,0,0,0,0,.07.07.13.14.2.21,0,0,0,0,0,0,.07.07.14.14.2.21,0,0,0,0,0,0,.06.07.12.14.18.21h.01c.13.15.25.28.38.41l.02.03c.08.13.15.25.23.38.06.06.13.13.19.19.07.07.14.13.22.2h0c.07.07.14.14.2.2,0,0,0,0,0,0,.06.07.12.14.18.21.05.03.06.07.04.12.06.09.13.19.19.28,0,0,0,0,0,0,.22.06.43.13.65.19h.08s.07.03.07.03c.06.06.12.12.18.19,0,.07.01.14.02.21.06.07.13.13.19.2,0,0,0,0,0,0,.06.07.13.13.19.2.04.04.05.09.03.14.05.09.1.17.15.26,1.21.69,1.95,1.76,2.49,3,.07.09.13.17.2.26l.04.04-.02.05.2.32c.2.38.41.76.61,1.14.07.09.14.17.21.26,0,0,0,0,0,0,.08.14.15.28.23.41.06.13.11.26.17.39.08.14.15.28.23.42h0c.06.14.12.28.17.43.03.04.04.08.02.13.07.09.14.19.21.28l.03.05-.03.05c.04.1.09.2.13.29.16.38.32.75.49,1.13.05.17.1.34.15.5.01.11.03.23.04.34.07.09.13.19.2.28.04.04.04.08,0,.13.06.23.12.45.18.68.04.04.05.08.02.13.05.16.1.31.15.47.52.93-.21,2.15.69,3.02.1.09-.15.54-.24.83.21.18.43.36.64.54l.03.04c.05.07.1.14.16.21.02.13.04.27.07.4.06.12.11.24.17.36,0,0,.03.05.03.05.05.07.09.14.14.21.02.13.03.26.05.39.05.07.1.15.15.22.03.06.04.13.06.19.05.2.11.41.16.61.07.14.15.27.22.41,0,.09,0,.18.01.27.04.15.07.3.11.44-.11,0-.22,0-.34,0-.15.07-.43.14-.42.21.03.72.1,1.44.16,2.16l.08,1.39v.25c.01,1.2.02,2.4.02,3.61,0,.09,0,.17,0,.26,0,.32,0,.64,0,.96,0,.08,0,.17-.01.25-.09,1.18-.11,2.37-.29,3.53-.15.96-.5,1.89-.75,2.83-.06.23-.05.49-.04.74.03.46.15.92.13,1.38-.05,1.56-.6,3.04-.67,4.62-.04.8-.45,1.63-.5,2.51-.05.82-.38,1.62-.49,2.44-.17,1.29-.24,2.6-.37,3.89-.1.99-.23,1.98-.34,2.97-.03.27.07.68-.07.78-.77.56-.27,1.28-.31,1.92-.04.72.04,1.46-.02,2.18-.09.96-.29,1.91-.39,2.87-.05.52.05,1.05,0,1.57-.18,1.46-.47,2.91-.6,4.37-.1,1.19-.18,2.42.02,3.58.3,1.72,0,3.57,1.07,5.15.17.25.17.91-.01,1.06-.94.79-.22,1.43.21,1.9.82.9,1.77,1.69,2.73,2.45.66.53,1.18,1.47.87,1.92-.68.98-1.36,1.95-2.07,2.91-.37.5-.33.9.21,1.15.66.31,1.38.5,2.03.82,2.05,1.03,4.07,2.1,6.11,3.14.46.23.96.48,1.46.53,1.34.12,2.54.54,3.65,1.28.14.09.27.23.42.26,1.14.22,2.31.31,3.42.64,1.79.53,3.54,1.02,5.22,2.04,1.23.75,2.43,1.53,3.56,2.41.41.32.72.85.94,1.34.4.91.59,1.95,1.81,2.21.3.06.61.34.79.6,1.04,1.48,2.11,2.93,3.04,4.48.74,1.25,1.18,2.69,1.97,3.89.43.65.69,1.29.49,1.9-.26.81.24.84.69.99,2.23.74,4.45,1.51,6.7,2.2,2.88.89,5.33,2.85,8.38,3.29,2.07.3,4.15.57,6.22.89,1.29.2,2.57.52,3.87.71.43.06,1.14.07,1.29-.16.51-.8,1.08-.6,1.74-.38,2.09.73,4.03,1.69,5.86,2.98,1.21.85,1.56,1.97,1.87,3.18.16.61.01,1.32-.09,1.97-.14.94-.26,1.9-.58,2.79-1.01,2.83-2.9,5.18-4.46,7.7-1.05,1.7-2.23,3.34-3.5,4.88-.46.55-.54.9-.39,1.55.99,4.03,3.56,7.45,4.41,11.53.3,1.46.9,2.92-.31,4.29-.17.19-.24.67-.12.88.66,1.13,1.13,2.29,1.37,3.6.17.91.6,1.87,1.18,2.59.98,1.24,1.14,2.74,1.71,4.11.5,1.21.84,2.39.4,3.67-.25.74-.57,1.46-.79,2.2-.2.67-.57,1.08-1.28,1.25-.24.06-.6.45-.57.63.14.76.37,1.5.62,2.23.77,2.21.96,4.62,2.48,6.59.46.59.69,1.09,1.62.88.07,1.12.13,2.16.19,3.19-.12.03-.24.05-.35.08-.14-.38-.29-.75-.43-1.13-.09-.01-.17-.03-.26-.04-.16.85-.44,1.69-.45,2.54,0,.8.27,1.6.45,2.39.31,1.43.74,2.85.93,4.3.2,1.54.54,3.14-.52,4.58-.23.31-.3.74-.41,1.12-.45,1.53-1.18,2.83-2.74,3.5-.27.12-.62.2-.79.42-1.21,1.55-2.79,2.61-4.62,3.19-1.85.58-3.03.78-4.16-1.08.25-.36.71-.85.63-.95-.27-.38-.89-.97-1.07-.88-.88.44-1.28-.2-1.9-.52-.65-.34-1.45-.48-2.19-.52-.3-.01-.64.46-.93.75-.54.52-1.66.53-2.31.11-.29-.19-.79-.35-1.07-.23-.66.28-1.35.63-1.84,1.13-1.88,1.92-3.68,3.91-5.51,5.86-.15.16-.35.29-.56.35-.6.19-1.22.34-1.83.51-.99.27-2.01.46-2.94.85-.95.4-1.76.53-2.72-.03-1.21-.71-2.54-.98-3.99-1.07-1.94-.11-3.86-.61-5.79-.92-.16-.03-.33.04-.49.08-1.9.42-3.7.55-5.71.06-1.62-.4-2.78-1.17-3.97-2.22-.27.29-.7.53-.77.85-.4,1.86-.73,3.73-1.05,5.61-.37,2.16-.96,4.18-3.15,5.25-.16.08-.32.25-.4.41-.59,1.27-1.2,2.54-1.71,3.84-.56,1.45-.99,2.95-1.54,4.41-.38.99-.69,2.1-1.36,2.86-1.28,1.45-2.68,2.84-4.24,3.97-2.01,1.45-4.2,2.63-6.35,3.88-1.03.6-2.13,1.08-3.18,1.63-.83.43-1.64.88-2.45,1.36-.09.05-.12.29-.1.43.16.83-.04,1.53-.37,2.33-.27.66,0,1.54.04,2.32.02.39.21.81.11,1.15-.22.69-.59,1.33-.89,1.98-.38-.17-.65-.28-.96-.42-.18.23-.39.41-.5.65-.69,1.57-1.35,3.16-2.03,4.74-.26.61-.49,1.14-.08,1.86.35.6.35,1.4.5,2.12.07.2.14.41.21.61,0,.26.01.53.02.79,0,.09,0,.19.01.28,0,.17,0,.35,0,.52.04,1.37.09,2.74.13,4.11.18,1.07.38,2.13.54,3.2.12.83.31,1.68.22,2.49-.08.7.03,1,.7,1.26,1.7.65,2.91,1.78,3.47,3.6.25.81.86,1.51,1.3,2.27v.05s.05-.02.05-.02l.4.75c.16.39.31.78.47,1.17.07.15.14.3.21.45.05,0,.1.02.16.02.02.07.05.14.07.21.05.12.09.23.14.35.04.09.07.18.11.28-.04.03-.05.07-.05.11.09.22.18.44.27.66.66.63,1.45,1.16,1.93,1.9.6.93.96,2.01,1.4,3.04.36.86.71,1.72,1.01,2.6.72,2.07.48,4.21.17,6.29-.21,1.39-.74,2.77-1.35,4.05-.52,1.1-1.36,2.04-2.06,3.05-.14.08-.28.17-.43.25-.07.04-.15.09-.22.13,0,0-.09-.04-.09-.04l-.06.07c-.07.08-.14.16-.21.23-.17.06-.35.12-.52.18-.09.13-.17.26-.26.39-.9.21-1.81.41-2.7.65-1.56.42-3.1.91-4.68,1.28-1.92.44-3.85.81-5.79,1.16-1.54.27-3.1.43-4.64.67-2.77.42-5.53.89-8.3,1.3-1.28.19-2.57.28-3.85.39-.32.03-.66-.07-.99-.07-.27,0-.54.06-.81.08-.59.06-1.18.13-1.77.15-.22,0-.44-.14-.66-.12-1.53.13-3.06.29-4.59.43-1.24.05-2.48.1-3.73.15-2.51.02-5.02.05-7.53.07-.14-.07-.28-.14-.42-.21-.21-.03-.42-.11-.62-.08-.28.04-.56.26-.83.24-2.59-.15-5.18-.32-7.77-.49-.98-.07-1.96-.15-2.94-.21-1.14-.07-2.3-.08-3.43-.21-1.34-.15-2.66-.43-4-.61-1.73-.22-3.48-.33-5.2-.6-2.34-.36-4.67-.78-6.99-1.25-1.95-.39-3.87-.87-5.81-1.32-.07-.06-.14-.12-.21-.17,0,0,0,0,0,0-.46-.48-.92-.96-1.38-1.44-.41-.49-.82-.98-1.23-1.47h0s-.1-.09-.14-.15v-.08s-.08,0-.08,0c0-.05-.03-.08-.08-.09-.16-.05-.32-.1-.48-.15-.02-.05-.06-.08-.11-.1-.04-.04-.08-.09-.12-.13l-.06-.07s-.09-.1-.14-.15l-.05-.05c-.05-.06-.1-.11-.15-.17l-.03-.03c-.13-.2-.26-.4-.38-.59,0-.06,0-.13-.01-.19-.06-.07-.12-.15-.17-.22l-.17-.66c-.02-.11-.04-.23-.06-.34-.02-.13-.04-.27-.06-.4-.05-.07-.1-.14-.15-.21-.03-.81-.05-1.63-.08-2.44,0-.14,0-.29,0-.43.02-.55.05-1.09.07-1.64l.14-.2c.12-.8.1-1.65.39-2.38.71-1.75,1.52-3.46,2.38-5.14.53-1.04,1.01-2.18,2.29-2.6.13-.04.26-.28.29-.44.17-.91.29-1.84.45-2.75.52-2.88,2.11-5.16,4.51-6.63,1.35-.83,1.79-1.73,1.75-3.11-.04-1.61-.16-3.22-.18-4.83-.01-1.87.06-3.75.09-5.62-.05-.06-.09-.11-.14-.17l-.02-.03c-.12-.05-.25-.11-.37-.16-1.36-.1-2.21-1.35-1.69-2.5l-.14-.18c-.81-1.09-1.41-2.28-1.19-3.69.51-3.22-2.18-5-3.33-7.47-.02-.05-.12-.05-.18-.09-1.42-1.01-2.09-2.39-1.74-4.09.32-1.54-.16-2.54-1.54-3.23-.33-.16-.6-.47-.84-.76-.21-.26-.26-.76-.5-.86-2.01-.81-3.36-2.32-4.49-4.08-.99-1.54-2.04-3.05-3.01-4.61-1.15-1.87-1.56-3.97-1.86-6.11-.17-1.2-.28-2.52-.85-3.53-.72-1.26-1.35-2.45-1.19-3.93.09-.87.21-1.73.3-2.6.02-.23.06-.48-.02-.69-.42-1.17-.87-2.32-1.31-3.48-.04-.19-.08-.38-.12-.56-.06,0-.13,0-.19.01,0,.19-.02.38-.03.57-.03.5-.05,1-.08,1.5-.23-.94-.28-1.88-.22-2.81.05-.78-.13-1.22-1.02-1.19-.53.02-1.06-.1-1.59-.16-.52-.35-.82-.29-.78.41-.16-.06-.31-.12-.47-.18-.13-.05-.25-.1-.38-.15-.2-.03-.41-.05-.61-.08-.07-.05-.14-.1-.21-.15-.07-.02-.14-.03-.21-.05-.07-.04-.13-.09-.2-.13-.14-.02-.28-.04-.42-.06-.06-.04-.13-.08-.19-.12l-.61-.09c-.07-.05-.13-.1-.2-.15-.81-.25-1.63-.48-2.44-.74-3.24-1.02-6.56-1.64-9.93-1.98l-1.24-.12-.83-.05c-.07-.04-.13-.07-.2-.11-.52-.02-1.05-.04-1.57-.07-.07.05-.15.1-.22.15-.54.02-1.08.05-1.62.07-1.09.04-2.18.08-3.27.12-1.15-.2-2.34-.26-3.43-.64-2.55-.88-2.23-3.54-3.07-5.46-.27-.62-.5-.99-1.11-1.16-.34-.1-.7-.18-1.01-.36-.94-.54-1.86-1.13-2.79-1.7-.65,1.05-1.2,2.08-1.9,3.01-.78,1.04-1.63,2.19-3.2,1.77-.69-.18-1.32-.62-1.96-.96-2.4-1.25-3.65-3.71-3.26-6.38.09-.63.22-1.26.3-1.73h-3.44l-.12-.11c-2.3-.57-3.31-2.62-2.3-4.8,1.07-2.31,2.2-4.59,3.27-6.9,1.03-2.22,2-4.47,3-6.7.47-1.05.98-2.09,1.46-3.11-1.86-1.04-3.73-2.04-5.56-3.13-.44-.26-1-.73-1.04-1.15-.11-1.28-.25-2.64.59-3.79.91-1.25,1.72-2.61,2.81-3.68,1.14-1.12,1.16-2.56,1.64-3.88.02-.06-.29-.24-.45-.36-.07-.1-.14-.19-.21-.29-.04-.19-.09-.37-.13-.56l.02-.03-.03.02c-.09-.2-.24-.39-.27-.59-.08-.52.1-1.24-.18-1.54-1.53-1.6-1.16-3.46-.71-5.21.68-2.63,2.01-5,3.66-7.15.6-.78.91-1.53.65-2.5-1.72-.08-2.74-1.27-3.52-2.53-1.15-1.86-2.17-3.82-3.07-5.81-1.35-2.97-2.63-5.98-3.34-9.18-.08-.36-.16-.74-.11-1.1.23-1.57.5-3.14.79-4.71.13-.71.14-1.57.55-2.09,1.33-1.7,3.12-2.78,5.23-3.27,1.45-.33,2.94-.5,4.39-.85.88-.22,1.34-.04,1.39.89.04.63.19.74.86.6,3.5-.74,7.03-1.38,10.54-2.09,1.86-.38,3.69-.9,5.56-1.27,1.54-.31,3.1-.49,4.79-.76-.04.07.06-.03.09-.15.18-.97.3-1.96.55-2.91.12-.46.41-.97.78-1.25.89-.67,1.88-1.21,2.83-1.81.65-.16.98-.49.63-1.19.6-.57,1.21-1.13,1.81-1.7.06-.05.12-.1.18-.15,0,0,.02-.02.02-.02.06-.06.12-.12.19-.18,0,0,.02-.02.02-.02.06-.06.13-.12.19-.18.07-.03.14-.06.22-.1.05-.04.11-.08.16-.12,0,0,.04-.03.04-.03.06-.05.12-.11.18-.16.07-.03.15-.07.22-.1.05-.04.1-.08.15-.11l.05-.05c.06-.05.11-.1.17-.15.15-.09.3-.17.44-.26.06-.05.12-.09.19-.14.16-.13.4-.4.45-.36,1.17.7,1.83-.29,2.5-.85,2.17-1.8,4.45-3.42,6.95-4.73.4-.21.72-.65.99-1.05.56-.83,1.06-1.69,1.59-2.54.12-.12.24-.25.36-.37.21-.21.42-.42.63-.64.67-.27,1.35-.54,2.02-.81.33-.21.66-.41.99-.62l.03-.02c.06-.04.11-.08.17-.12.06-.03.13-.06.19-.09l.44-.19.04-.04s.06.01.06.01c.1-.05.2-.1.3-.15.05-.03.11-.04.17-.04.15-.05.29-.1.44-.16.35-.1.71-.21,1.06-.31.12.02.25.05.37.07.82-.26,1.64-.75,2.46-.74,1.8.01,2.69-1.37,3.9-2.24.69-.5,1.26-1.16,1.94-1.67,1.33-1.01,2.88-1.54,4.42-2.15,4-1.57,7.61-1.22,10.95,1.56.49.41,1.18.59,1.77.88.07-.11.15-.21.22-.32-1.04-1.16-2.08-2.33-3.12-3.49-.09-.13-.17-.25-.26-.38-.06-.01-.11-.05-.13-.11v.02c-1.15-1.58-2.3-3.17-3.46-4.75-.25-.34-.61-.63-.79-1-.36-.74-.59-1.54-.96-2.27-.65-1.28-1.41-2.51-2.04-3.8-.32-.65-.5-1.38-.64-2.09-.05-.23.24-.53.38-.8.04-.08.08-.16.11-.24.02-.41.04-.81.06-1.22.05-.07.1-.14.15-.21.01-.07.03-.15.04-.22.04-.06.07-.13.11-.19.17-.35.33-.69.5-1.04.04-.06.09-.12.13-.18.09-.21.18-.42.27-.63.04-.06.09-.12.13-.19.16-.22.32-.44.48-.67.05-.05.1-.1.15-.15.1-.06.19-.13.29-.19.01.2.03.4.04.6.12.01.24.02.36.03.06-.14.13-.29.19-.43.67-.46.66-1.12.52-1.81-.02-.15-.04-.29-.05-.44.04-.06.02-.11-.05-.15-.3-1.36-.61-2.73-.91-4.09-.04-.04-.07-.07-.11-.11-.03-.1-.06-.2-.09-.3-.03-.06-.07-.13-.1-.19-.03-.14-.05-.29-.08-.43,0-.27.01-.53.02-.8.16-1.32.33-2.64.45-3.96.02-.25-.13-.51-.19-.77-.13-.54-.36-1.07-.38-1.62-.05-1.7-.02-3.4-.02-5.1-.07-.02-.14-.04-.21-.06-.27.79-.54,1.59-.8,2.38-.02.12-.05.23-.07.35-.05.42-.09.84-.14,1.26-.14.13-.28.26-.42.4l-.34.41s-.08.01-.13.01c-.11.06-.23.13-.34.19-.07.12-.14.23-.21.35l-.04-.02.03.03c-.06.12-.12.24-.17.35-.03.03-.07.07-.1.1-.16.2-.33.4-.49.6-.03.01-.08.02-.09.04,0,.05,0,.11,0,.16.04.15.08.29.12.44-.04-.01-.08-.02-.13-.02-.04.09-.07.17-.11.26,0,.11-.02.22-.03.34h0c-.06.07-.12.14-.18.2,0,0-.03.03-.03.03-.05.06-.1.11-.14.17-.04.01-.06.04-.06.08l-.08.03v.09c-.04.08-.08.15-.11.23-.05.06-.1.12-.15.18-.04,0-.06.04-.06.08l-.08.03v.09c-.04.09-.08.18-.12.27l-.09.04v.09s-.08.03-.12.04c-.07.06-.13.13-.2.19-.21.05-.42.1-.63.15l-.06-.02.02.06c-.05.06-.11.11-.16.17l-.03-.02.02.03c-.8.72-1.7,1.35-2.36,2.17-1.15,1.41-2.74,2.09-4.27,2.89-.37.2-.86.17-1.24.37-1.67.88-3.31,1.83-4.97,2.72-1.96,1.05-4.01,1.94-5.88,3.12-1.59,1-3.05,2.24-4.42,3.54-1.44,1.37-2.97,2.77-3.96,4.46-1.3,2.21-2.2,4.69-3.11,7.11-.52,1.38-.71,2.88-1.05,4.33-.04.28-.07.55-.11.83-.02.82-.05,1.64-.07,2.45-.04.2-.09.4-.13.6-.08.84-.17,1.68-.25,2.51-.06.11-.13.23-.19.34-.02.51-.07,1.01-.05,1.52.04.79.84,1.77,1.54,1.73.98-.07,2.04-.13,2.92-.52,1.46-.66,2.93-1.43,4.18-2.42,1.94-1.54,3.47-3.47,4.41-5.8.48-1.19.58-2.27-.53-3.28-.99-.91-1.62-2.18-2.95-2.75-.2-.09-.4-.49-.38-.73.02-.25.31-.67.49-.67.61-.01,1.26.02,1.82.22,1.93.7,3.67,1.73,5.23,3.09.8.7,1.31,1.52,1.27,2.57-.06,1.69-.65,3.29-1.48,4.72-1.2,2.08-2.47,4.14-3.95,6.02-2.24,2.85-4.56,5.67-8.26,6.85-1.37.44-2.84.27-3.94-.67-1.64-1.4-2.77-3.17-3.59-5.12-.47-1.12-.95-2.31-1.03-3.49-.17-2.53-.14-5.07-.05-7.6.04-1.1-.25-2.24.4-3.34.56-.95.81-2.07,1.24-3.1,1.22-2.9,2.44-5.79,3.7-8.68.4-.93.88-1.84,1.36-2.73,1.05-1.96,2.05-3.94,3.2-5.84,1.16-1.91,2.49-3.7,3.7-5.58,1.06-1.65,2-3.37,3.1-4.99.76-1.12,1.79-2.07,2.53-3.2,1.14-1.74,2.14-3.57,3.21-5.37.62-1.04,1.3-2.06,1.85-3.13.45-.88.73-1.85,1.14-2.75.56-1.23,1.46-2.37,1.71-3.65.3-1.55.09-3.2.07-4.81,0-.53.08-1.19-.18-1.57-1.27-1.82-1.74-4.04-2.98-5.89-.67-1-1.01-2.22-1.46-3.36-.62-1.58-1.27-3.15-1.8-4.76-.58-1.79-.96-3.65-1.58-5.42-1.34-3.89-2.33-7.85-2.75-11.95-.1-.96-.21-1.92-.27-2.89-.13-1.97-.24-3.95-.36-5.92-.06-.14-.12-.28-.19-.42-.03-.94-.06-1.89-.08-2.83,0-.08,0-.15,0-.23v-.38c0-.08,0-.15,0-.23.03-.74.06-1.48.08-2.22.06-.14.12-.28.19-.42.01-.74.03-1.47.04-2.21.02-.08.04-.15.06-.23.1-1.96.21-3.92.31-5.88l.02-.21c.03-.06.03-.13,0-.19-.08-.28-.16-.55-.24-.83.28-.91.56-1.82.84-2.73.46-1.56.86-3.13,1.39-4.67.63-1.83,1.26-3.69,2.09-5.43,1.27-2.66,2.74-5.22,4.1-7.83.42-.81.79-1.66,1.18-2.49.05-.1.09-.21.14-.31-.09.06-.18.11-.28.17-.32.28-.65.55-.97.83-.05-.04-.11-.08-.16-.13.19-.32.36-.66.59-.96,1.86-2.36,3.62-4.82,5.64-7.04,2.12-2.32,4.37-4.56,6.8-6.54,2.03-1.66,4.31-3.08,6.65-4.28,2.29-1.17,4.78-1.95,7.19-2.87.38-.15.81-.16,1.22-.23,1.76,0,3.52,0,5.28,0Zm.17,56.28c.07-.09.14-.18.21-.27.15-.24.3-.49.45-.73.06-.05.12-.1.19-.16.72-1.05,2.06-1.74,1.87-3.3-.07-.13-.14-.27-.2-.4-.68-1.04-.7-2.19-.64-3.37.02-.41-.02-.82-.04-1.23-.07-.9-.14-1.81-.21-2.71-.58-.69-.3-1.28.22-1.83.07-.33.14-.66.21-.99.18-.33.36-.67.54-1,.76-1.4,1.3-3.05,3.13-3.4,1.08-.21,1.35-.77,1.18-1.73.08-.31.22-.63.23-.94,0-.23-.16-.46-.24-.69-.68-2.14-1.17-4.37-2.1-6.4-1.18-2.59-3.38-4.27-6.19-4.74-1.91-.32-3.91-.37-5.84-.19-1.66.15-3.28.79-4.92,1.21.02.1.05.2.07.3.22-.03.44-.06.8-.11-.14.31-.2.52-.32.7-2.08,3.04-4.23,6.03-6.22,9.12-.75,1.17-1.62,2.41-1.44,3.97-.2.54-.41,1.09-.61,1.63-.15,1.68-.31,3.37-.46,5.05-.03.08-.05.17-.08.25,0,.39-.02.78-.02,1.17,0,.08,0,.17-.01.25,0,.8,0,1.59,0,2.39,0,.08,0,.17.01.25,0,.53,0,1.05,0,1.58.04.28.07.56.11.85,0,.57-.07,1.16.04,1.71.14.71.51,1.37.62,2.08.19,1.24.53,2.43.86,3.64.64,2.38,1.56,4.61,2.7,6.78.56,1.06.89,2.26,1.52,3.28.86,1.37,1.92,2.61,2.87,3.93.54.75.93,1.63,1.57,2.27,1.15,1.13,2.44,2.13,3.69,3.15.12.1.43.04.62-.03,1.18-.45,1.94-1.41,2.39-2.48.69-1.62,1.18-3.29,1.32-5.11.13-1.81.83-3.57,1.13-5.38.2-1.2.19-2.44.22-3.66.03-1.53-.26-3.1.63-4.5.05-.07.09-.15.14-.22h0Zm13.5-50.37c-.14-.11-.22-.18-.31-.25-.04.06-.12.13-.12.19,0,.07.07.18.13.2.06.02.14-.06.29-.14Z"/>
</svg>