<?xml version="1.0" encoding="UTF-8"?>
<svg id="Layer_1" data-name="Layer 1" xmlns="http://www.w3.org/2000/svg" viewBox="0 0 400 400">
  <defs>
    <style>
      .cls-1 {
        fill: #3e3e3e;
      }
    </style>
  </defs>
  <path class="cls-1" d="m124.52,43.72c.82-.62,1.59-1.31,2.46-1.84,1.67-1.03,3.58-1.75,5.04-3,1.72-1.46,3.43-3.01,4.61-5.04.68-1.17,1.63-2.18,2.4-3.3.16-.24.24-.68.13-.94-.64-1.62.07-3.36,2.09-3.41,1.13-.03,2.27.03,3.4-.03.31-.01.7-.19.91-.43.98-1.11,2.02-2.08,3.6-2.25.79-.09,1.57-.32,2.65-.56,1.13-1.93,3.08-3.59,5.28-4.98,1.48-.94,2.92-1.94,4.45-2.79,1.43-.8,2.96-1.42,4.43-2.16,2.33-1.17,4.63-2.43,6.99-3.54.88-.41,1.93-.43,2.86-.76.88-.31,2.17.09,2.49-1.31.03-.12.19-.2.27-.3.8-.97,1.54-1.03,2.42-.16.54.53,1.04,1.11,1.61,1.72.28-.98.89-1.21,1.85-1.27,2.97-.17,5.92-.57,8.88-.75,1.52-.09,3.07.13,4.6.14,1.26.01,2.53-.02,3.79-.12,1.06-.09,2.13-.51,3.17-.42,1.38.12,2.05-.5,2.8-1.51,1.12-1.52,2.44-2.89,3.75-4.26.78-.81,1.78-.53,2.16.52.69,1.89,1.74,3.53,3.21,4.9.95-1.15,1.87-1.14,2.65.02.19.28.39.56.61.81.22.24.48.45.71.4,1.29-.09,2.58-.19,3.87-.25.7-.04,1.4-.06,2.1,0,.62.05,1.24.16,1.83.34.69.21,1.39.47,2.01.84.44.26.75.74,1.15,1.1.3.28.65.73.97.72.82-.01,1.66-.16,2.46-.39,1.22-.34,2.4-.82,3.61-1.18.25-.07.64.04.86.21.59.46,1.09,1.03,1.68,1.49.64.49,1.36.89,2.03,1.35.37.26.66.67,1.06.82,1.08.4,2.2.7,3.3,1.04.28.09.66.05.85.22,1.22,1.15,2.79,1.25,4.31,1.41,1.02.11,2.06,0,3.09.02,1.27.02,2.24.55,3.11,1.52,1.04,1.15,2.09,2.2,3.89,2.49,1.5.24,3.21,1.03,4.22,2.13,1.75,1.92,3.64.98,5.46.78.96-.1,1.83.09,2.41.54,1.07.83,1.86,2,2.8,3,.26.27.6.59.94.63,1.11.14,2.26.33,3.36.2,1.84-.21,2.73,1.02,3.67,2.16,1.03,1.24,1.92,2.59,2.91,3.86.22.28.6.5.96.61.99.3,2.04.45,3,.82.5.19.98.65,1.29,1.11.8,1.17,1.41,1.49,2.69.98,1.51-.6,2.88.06,4.24.41.37.1.66,1.02.76,1.6.3,1.74.37,1.82,2.13,1.37.22-.06.45-.05.75-.08.07,1.38-.07,2.46-1.3,3.4-1.35,1.03-2.38,2.48-3.64,3.64-1.18,1.09-2.5,2.05-3.73,3.08-.36.3-.67.67-1.01,1.01-.6.62-1.19,1.24-1.79,1.86-.68-.07-1.18.15-1.43.82,0,.07,0,.14,0,.21-1.46,1.34-2.91,2.69-4.38,4.01-.53.47-1.11.88-1.65,1.35-1.9,1.65-3.81,3.29-5.67,4.98-.87.79-1.6,1.74-2.47,2.54-2.68,2.47-5.39,4.89-8.08,7.34-.28.25-.53.58-.85.73-.79.37-1.13.84-.68,1.44-.51,1.15-1.03,2.12-1.38,3.14-.44,1.3-.68,2.66-1.11,3.96-.99,2.98-3.63,4.19-6.13,5.45-1.61.81-3.4,1.29-5.11,1.89-.37.13-.78.18-1.16.27-1.13.28-2.27.56-3.46.86-.98-1.33-3.15-.93-4.13-2.48-1.42.11-1.98-1.39-3.28-1.72-1.22-.3-2.27-1.32-3.39-2.03-.63-.4-1.23-.89-1.9-1.2-1.35-.64-2.84-1.04-4.11-1.8-1.93-1.17-3.82-2.36-6.01-2.99-.15-.04-.36-.09-.43-.2-.52-.88-1.26-.73-2.21-.45.09.33.21.65.25.99.11.81.32,1.63.26,2.43-.16,2.31.27,4.44,1.73,6.26.44.55,1.29.8,1.64,1.38.43.69.96,1.1,1.65,1.4,1.86.81,2.9,2.38,3.86,4.06.21.37.76.85,1.06.8.82-.15,1.31.28,1.88.66,1.05.68,1.79,1.58,2.25,2.77.22.57.57,1.38,1.03,1.51.97.28,2.05.2,3.4.28.56.53,1.35,1.29,2.14,2.06,0,1.61-.03,3.22-.01,4.83,0,.39.14.77.22,1.16.87,1.81,2.48,2.82,4.12,3.75,1.58.9,2.66,2.11,3.02,3.92.11.56.28,1.11.42,1.66l.09.25c-.07.53-.14,1.06-.21,1.59-.1.13-.31.29-.28.39.05.22.23.4.35.6-.65,1.02-1.36,2-1.91,3.07-.4.78-.91,1.71-.79,2.49.21,1.37.95,2.66,1.29,4.02.19.75.11,1.62-.05,2.39-.14.7-.74,1.33-.8,2.03-.07.76.27,1.55.36,2.34.07.59.01,1.19.01,1.93.17.27.41.76.73,1.19.31.43.64.88,1.07,1.18.74.53,1.69.87,1.07,2.08-.04.07.09.25.16.35.86,1.26,1.59,2.64,2.62,3.74,1.27,1.37,2.79,2.51,4.2,3.75.21.14.41.27.62.41.14.09.27.17.41.26.08.05.15.09.23.14h-.01c.13.07.26.15.39.23,1.35,1.04,2.71,2.06,4.05,3.11.6.47.55,1.07.2,1.66-.36.61-.77,1.18-1.13,1.78-.28.46-.28.76.25,1.17,1.16.89,2.36,1.81,3.25,2.95,1.93,2.45,3.64,5.06,5.5,7.56,1.56,2.09,3.19,4.12,4.81,6.21.98-.67,1.73-.27,2.46.21.84.55,1.67,1.1,2.52,1.63,1.62,1.01,3.38,1.84,4.82,3.07.77.66,1.48,2.02,1.37,2.97-.26,2.29.36,3.11,2.44,4.08.73.34,1.59.69,2.03,1.3.92,1.25,1.61,2.67,2.39,4.03.53.93,1.03,1.87,1.59,2.78.46.74,1.14,1.38,1.45,2.17.38.94.62,1.99.65,3.01.02.82.35,1.77-.53,2.51-.29.24-.38,1.04-.21,1.43.45,1.03,1.06,2,1.67,2.95.79,1.25,1.71,2.42,2.46,3.69.77,1.3,1.71,2.65.53,4.13.4.63.81,1.18,1.12,1.78.81,1.57,1.59,3.16,2.37,4.75,1.72,3.52,3.08,7.17,3.65,11.06.07.44-.13,1.09-.44,1.4-.89.86-1.9,1.58-2.98,2.46.73,1.21,1.5,2.37,2.15,3.59.62,1.17,1.3,2.35,1.62,3.61.41,1.6.42,3.29.7,4.93.22,1.32-.31,2.19-1.34,2.89-.48.33-.95.66-1.39,1.04-.18.15-.37.43-.35.64.03.5.14,1.01.3,1.49.51,1.48,1.04,2.95,1.59,4.41.23.61.19,1.09-.3,1.58-.21.21-.22.67-.22,1.01,0,.36.13.71.22,1.06.23.8.27,1.75.74,2.38,1.31,1.74,2.82,3.33,4.21,5,.28.34.64.89.54,1.2-.14.4-.65.8-1.09.95-1.05.36-2.14.62-3.23.83-.94.18-1.01.77-.89,1.51.11.67.23,1.33.34,1.99,0,.04-.06.09-.09.15-.28-.11-.55-.21-.88-.34-1.14,2.45-2.18,4.89-3.41,7.23-1.29,2.46-2.7,4.87-4.21,7.2-.74,1.15-1.86,1.98-3.43,1.9-.27-.02-.65.3-.84.57-2.48,3.41-5.21,6.6-8.25,9.52-.58.56-1.03,1.4-2.1,1.08-.13-.04-.34.18-.5.29-.38.24-.76.47-1.06.67-1.44-.84-.48-1.69-.17-2.47-1.07-.41-2.15-.71-3.11-1.22-2.3-1.21-4.43-1.2-6.47.53-.47.4-1.04.68-1.65,1.07,0-.42.1-.77-.02-.88-1.04-.96-.85-2.29-1.13-3.48-.07-.32-.29-.86-.44-.86-.53,0-1.34,0-1.54.33-.93,1.44-1.7,2.99-2.51,4.51-.75,1.39-1.33,2.91-2.26,4.17-2.05,2.76-4.29,5.38-6.42,8.09-2.66,3.39-5.53,6.59-8.73,9.48-2.76,2.49-5.59,4.89-8.84,6.75-.59.33-1.06.86-1.59,1.3-.08-.01-.16-.03-.23-.04-.04-.13-.07-.25-.11-.38-.39-.02-.78-.03-1.16-.05-.99.07-.92.94-1.19,1.56-.06.04-.13.08-.19.12h-.01c-.11.14-.23.28-.34.41-.17.39-.33.78-.5,1.17l-.04-.02.03.03c-1.69,2.55-3.6,4.87-6.38,6.31-.11.05-.22.1-.33.15-.04.02-.06.05-.06.09-.06.03-.11.06-.17.1-.1.06-.2.12-.3.17l-.03-.03.02.04c-.14.07-.28.13-.41.2h.01c-.15.07-.29.14-.44.2-.06.02-.13.03-.19.05-.07,0-.12.04-.15.1-.05.03-.11.05-.16.08-.17.06-.33.12-.5.18-.39.11-.79.21-1.18.32,0,.03.02.07.02.1.34-.02.67-.04,1.01-.07.47.39.93.77,1.36,1.13-.21.35-.53.64-.52.92.02.92.09,1.84.26,2.74.57,2.89,1.1,5.79,1.83,8.65.3,1.18.31,2.61,1.66,3.33,2.01,1.08,3.18,3,4.54,4.72.63.8,1.23,1.64,1.22,2.75,0,.17.25.41.45.52,2.34,1.24,3.22,3.34,3.48,5.82.06.14.13.27.19.41,0,.07.02.14.03.21l.02,2.95c0,.08-.02.16-.02.24-.02.12-.05.24-.07.36-.39,1.7-1.54,2.96-2.68,4.12-1.27,1.3-2.77,2.39-4.24,3.47-2.35,1.74-4.69,3.53-7.17,5.08-3.82,2.39-7.85,4.39-12.14,5.84l-.05-.02-.02.06c-1.41.32-2.82.64-4.23.97-.18.07-.37.13-.55.2-.35.05-.71.1-1.06.16-.18.04-.36.09-.55.13-.11.03-.22.05-.33.08-.16.02-.31.03-.47.05-.1-.02-.21-.05-.31-.07-.12.08-.23.17-.35.25-1.09.03-2.19-.03-3.26.12-1.06.14-2.04-.22-3.15-.08-2.38.31-4.84.05-7.27.03-1.22-.02-2.44-.05-3.67-.07-.51,0-1.03,0-1.54,0-.12-.08-.24-.17-.35-.25-.66.04-1.31.07-1.97.11-.17-.18-.34-.35-.51-.53-.09.09-.18.18-.27.28-.07,0-.12.01-.17.06-.15-.06-.3-.12-.45-.18-.04,0-.09,0-.13,0,0,0-.01,0-.01,0-.89-.28-1.78-.56-2.68-.85-.18.01-.36.02-.53.04h.01c-.18,0-.37,0-.55-.01-.1-.02-.21-.03-.31-.05-.17-.05-.35-.1-.52-.16-.18-.03-.35-.06-.53-.09-.17-.04-.34-.08-.51-.12l-.04-.07-.08.02c-1.29-.57-2.77-.54-3.97-1.54-.89-.74-2.15-1.03-3.22-1.57-.92-.46-1.78-1.05-2.71-1.49-.74-.35-1.55-.56-2.33-.83-.03-.04-.08-.08-.13-.1l-.05-.03c-.03-.08-.06-.17-.08-.25-.05.03-.09.06-.14.09-.07-.07-.13-.14-.2-.21-.14-.07-.27-.14-.41-.21,0,0,0,0,0,0l-.28-.31s-.05,0-.05,0c.02-.05.03-.1.05-.16-.04.03-.08.07-.13.1-.07-.08-.14-.15-.2-.23-.13-.07-.25-.15-.38-.22-.08-.08-.16-.16-.23-.24-.12-.13-.25-.25-.37-.38-2.51-1.89-3.35-4.66-3.96-7.55-.04-.19-.05-.54.05-.59.85-.46.35-1.37.7-1.99.16-.28.06-.74.26-.96,1.04-1.21,2.11-2.39,3.24-3.52.35-.35.42-.57.24-1.02-.86-2.21-.72-4.43.02-6.64.15-.27.3-.54.44-.81.14-.14.28-.28.42-.41.13-.08.26-.16.39-.24h-.01c.08-.04.16-.1.24-.16h.02c.13-.07.26-.13.4-.2l.02-.02c.13-.07.26-.15.39-.22.62-2.97,1.34-5.93,1.82-8.92.49-3.08.78-6.19,1.06-9.3.05-.6-.04-1.42-.94-1.61-2.09-.44-3.88-1.47-5.51-2.81-1.4-1.15-2.64-2.61-4.22-3.42-1.93-.99-2.75-2.73-3.88-4.3-.14-.2-.26-.54-.18-.74.28-.8-.35-.7-.67-.86-.95,1.31-1.78,2.64-2.78,3.82-1.72,2.02-4.1,2.97-6.54,3.82-1.56.55-3.12.87-4.76.4-.07-.03-.14-.06-.21-.09-.22-.03-.43-.07-.65-.1-.06-.04-.12-.08-.19-.12l-.42-.05c-.14-.16-.28-.32-.53-.6-.14.49-.23.82-.33,1.16-.5-.08-1.04-.07-1.48-.26-1.52-.66-3.06-1.31-4.48-2.14-1.69-.98-3.34-2.07-4.89-3.27-.83-.65-1.39-1.63-2.1-2.44-.76-.87-1.65-1.63-2.31-2.57-1.25-1.78-1.43-3.91-1.65-6.01v-2.06c.2-1.95.3-3.91.64-5.83.27-1.52.84-2.99,1.28-4.48.13-.21.25-.41.38-.62,0,0,0,0,0,0,.06-.14.12-.29.18-.43,0,0,0,0,0,0,.02-.13.04-.26.06-.39.06-.07.11-.14.17-.21.06-.08.12-.16.19-.23,0,0-.02,0-.02,0,.08-.13.16-.26.25-.4.11-.24.16-.53.33-.72,1.28-1.41,2.59-2.8,3.87-4.2.17-.19.41-.43.41-.64-.01-.88-.11-1.75-.18-2.63-.05-.07-.09-.15-.14-.22-.01-.55-.02-1.1-.04-1.65-.04-.63-.08-1.26-.12-1.9-.09-.58-.18-1.16-.28-1.74-.11-.02-.23-.04-.34-.06-.21.88-.52,1.76-.61,2.66-.16,1.46-.79,1.98-2.18,1.69-1.12-.23-2.15-.29-3.27.4-.58.35-.86.93-1.45,1.21-1.62.76-3.24,1.41-4.96.26-.14-.1-.39-.04-.6-.04-.93-.04-1.91.07-2.8-.16-1.37-.36-2.7-.89-3.99-1.48-1.26-.58-2.43-1.32-3.64-1.99-2.84-1.58-5.39-3.43-6.52-6.7-.76-2.18-.97-4.45-1.34-6.71-.15-.95.29-2.25-1.26-2.73-.53-.17-1.42-1.18-.86-1.69.84-.76.86-1.71,1.2-2.58.26-.65.27-1.41.4-2.2-.92,0-1.65.15-2.28-.04-.58-.18-1.17-.64-1.52-1.14-.17-.24.12-.89.33-1.29.31-.59.79-1.1,1.1-1.69,1.3-2.52,1.31-5.34,1.87-8.04.28-1.35.62-2.69.86-4.04.07-.41-.05-.87-.16-1.28-.31-1.11-1.18-1.74-1.99-2.5-2.13-1.97-4.1-4.13-6.13-6.21-.13-.12-.26-.25-.4-.37,0,0-.02-.02-.02-.02-.07-.13-.13-.26-.2-.39,0,0,0,0,0,0-.1-.07-.2-.14-.3-.21-.11-.13-.21-.27-.32-.4-.13-.14-.25-.28-.38-.41-.22-.28-.43-.57-.65-.85-.14-.13-.27-.25-.41-.38,0,0,0-.01,0-.01-.06-.13-.13-.27-.19-.4h0c-.27-.28-.53-.56-.8-.83-.28-.35-.57-.71-.85-1.06-.13-.13-.25-.26-.38-.39l-.03-.03c-.07-.12-.13-.25-.2-.37-.08-.07-.15-.14-.23-.21-.13-.14-.26-.27-.38-.41,0,0-.02-.02-.02-.02-.07-.13-.13-.26-.2-.39,0,0,0-.01,0-.01-.2-.2-.39-.41-.59-.61-.08-.08-.15-.17-.23-.25-.14-.33-.28-.65-.42-.98h0c-.19-.28-.39-.55-.58-.83.2-.59.32-1.22.62-1.75.57-1.02,1.23-1.99,1.86-2.98.12-.14.25-.29.37-.43,0,0,0,0,0,0,.07-.13.15-.27.22-.4,0,0,0,0,0,0,.12-.18.25-.35.37-.53-.02-.04-.01-.07.03-.09.07-.13.15-.25.22-.38.04-.08.08-.16.13-.24.09-.15.17-.29.26-.44.36-.61.71-1.22,1.07-1.83.19-.28.39-.56.58-.83h0c.21-.34.42-.68.63-1.02h0c.13-.22.27-.43.4-.64.16-.33.33-.65.47-.99.52-1.23,1.54-2.27,1.38-3.75-.07-.21-.13-.41-.2-.62,0,0,0,0,0,0-.07-.13-.14-.27-.21-.4h0c-.2-.35-.4-.69-.6-1.04h-.01c-.07-.15-.13-.28-.2-.41h0c-.09-.13-.18-.26-.27-.38,0,0,.01.02.01.02-.11-.09-.21-.18-.32-.26-.04-.49-.19-.99-.1-1.45.12-.58.42-1.12.67-1.67.18-.4.34-.85.64-1.16.32-.34.89-.47,1.17-.83,1.79-2.28,3.5-4.62,5.3-6.9.77-.97,1.94-1.71,1.39-3.25-.09-.24.15-.58.19-.89.05-.38.19-.81.07-1.14-.66-1.81-1.47-3.56-2.04-5.39-.22-.71-.21-1.71.14-2.33.62-1.09,1.6-1.96,2.38-2.96.49-.62.89-1.3,1.33-1.95l.13-.43s0,.01,0,.01c.08-.26.16-.53.25-.79v-.02c.07-.08.13-.16.18-.23h0c.07-.07.13-.15.2-.22h-.01c.07-.06.15-.13.22-.2h0c.08-.05.16-.1.24-.16h.01c.21-.15.42-.29.63-.42.02-1.22.86-2.34.42-3.62-.04-.11.1-.34.21-.44.64-.6,1.26-1.24,1.96-1.76,1.31-.98,2.67-1.89,4.01-2.84.21-.15.47-.31.57-.53.89-1.95,2.69-2.89,4.36-3.96.17-.11.45-.12.65-.07.77.19,1.07-.15,1.29-.87.6-1.95,1.24-3.89,1.97-5.8.38-.99.96-1.9,1.5-2.82.57-.98,1.29-1.71,2.57-1.72.76,0,1.52-.21,2.28-.33l1.27-.17c.12-.01.24-.03.35-.04l.88-.16c1.54-.08,3.08-.17,4.61-.22,1.91-.06,3.39-1.19,3.61-3.06.29-2.48,1.88-3.64,4.01-4.39,1.83-.65,3.69-1.26,5.45-2.07,1.08-.5,2-1.35,3.02-2.01,1.61-1.06,3.24-2.09,5.16-3.32-1.46-1.16-2.76-2.26-4.12-3.26-1.46-1.07-2.14-2.57-.45-3.89,1.54-1.21,3.22-2.26,4.92-3.24,2.65-1.52,5.37-2.94,8.09-4.34.55-.28.74-.59.76-1.17.04-1.26.09-2.52.23-3.77.11-.97.42-1.92.58-2.89.17-1.09.13-2.22.42-3.27.44-1.6,1.04-3.13-.03-4.7-.17-.25-.29-.55-.36-.84-.5-2.04-.98-4.09-1.46-6.13-.06-.49-.11-.99-.17-1.48-.04-.04-.06-.09-.04-.15-.05-.29-.11-.59-.16-.88-.01-.13-.02-.26-.03-.39-.06-.35-.12-.7-.18-1.06-.02-1.13-.12-2.27-.03-3.39.1-1.17-.34-2.13-.89-3.08-1.42-2.47-2.85-4.93-4.28-7.41-.03.03-.18.13-.28.27-1.43,2.12-2.83,4.26-4.29,6.36-1.2,1.72-2.37,3.46-3.22,5.39-.07.17-.13.34-.2.5.03.05.02.08-.02.12-.07.09-.13.17-.2.26-.08.19-.16.38-.25.57-.05.11-.1.21-.15.32l.02.05-.03.04c-.08.14-.15.27-.23.41-.53,1.11-1.08,2.21-1.6,3.33-.36.78-.71,1.57-1.02,2.37-.14.35-.18.74-.27,1.12-.07.27-.14.54-.21.81,0,0,0,.01,0,.01-.06.1-.11.2-.17.3.03.04.02.08-.02.11-.06.09-.13.19-.19.28,0,.06-.02.11-.07.14-.05.07-.1.14-.15.21,0,0,0,0,0,0-.06.08-.13.16-.19.23h.02c-.09.11-.17.23-.26.35l-.02.02c-.06.08-.11.15-.17.23h0c-.07.07-.13.15-.2.23h.02c-.09.11-.18.22-.26.34l-.02.02c-.12.08-.24.17-.36.25h.01c-.08.05-.16.11-.24.18-.04.04-.09.05-.14.02-.09.03-.17.07-.26.1-1.41.05-2.86.44-4.12-.56-.09-.07-.23-.1-.35-.1-.99,0-1.98.07-2.97.03-.35-.01-.78-.47-1.02-.37-.82.35-1.32-.12-1.89-.51-.07-.08-.15-.16-.22-.25h0c-.05-.07-.1-.15-.15-.22-.5-.94-1-1.87-1.5-2.81-.08-.08-.15-.17-.23-.25h0c-.18-.21-.36-.62-.54-.62-1.25,0-2.5.08-3.75.14-.57.08-1.14.23-1.7.21-.49-.02-.97-.31-1.45-.34-1.42-.06-2.84-.05-4.27-.07-.12-.05-.24-.16-.37-.16-4.36,0-8.72.02-13.08.03-1.23.05-2.46.11-3.68.16-.4,0-.81.02-1.21.02-1.46-.3-1.88-1.61-.88-2.73l.44-.22h-.01c.08-.04.16-.1.24-.15,0,0,.02-.01.02-.01.13-.08.26-.15.38-.23,0,0,0,0,0,0,.14-.08.27-.16.41-.23h-.01c.08-.04.16-.09.24-.15.18-.08.36-.17.55-.25.09-.06.18-.12.28-.18.38-.22.78-.42,1.13-.68,1.02-.73.97-1.63-.11-2.28-.23-.14-.48-.26-.72-.37-1.21-.56-1.48-1.11-1.19-2.41.31-1.38-.46-2.43-1.88-2.74-.61-.13-1.15-.54-1.72-.82,0-.34,0-.67,0-1.01.21-.14.45-.43.62-.39,1.3.27,2.16-.64,3.17-1.11.18-.08.33-.22.5-.29,1.68-.74,2.98-1.85,3.44-3.72.48-1.93,0-3.05-1.64-4.06-.13-.08-.28-.23-.31-.37-.16-.67.65-1.73,1.36-1.82,1.05-.13,2.1-.25,3.14-.42.27-.04.76-.32.74-.39-.19-.84.34-1.37.67-2.04.64-1.31,1-2.75,1.56-4.11.83-2.02-.24-3.7-1.02-5.34-.78-1.63-1.2-1.99-.02-3.14.69-.68,2.05-.64,3.07-1.03.77-.3,1.99-.67,2.1-1.2.23-1.1-.1-2.32-.28-3.49-.14-.91-.53-1.79-.57-2.7-.03-.71.16-1.55,1.06-1.78,1.04-.26,2.09-.45,3.15-.67.06-.47-.04-1.09.23-1.4.76-.87,1.62-1.61,1.54-2.92-.02-.37.2-.75.31-1.13.08-.27.16-.54.24-.81h0c.06-.15.13-.29.19-.43h0c.14-.07.28-.15.42-.22.77-.6,1.52-1.23,2.31-1.8.47-.34,1.29-.47,1.47-.9.63-1.48.89-3.07.58-4.69.16-.21.32-.42.48-.63.11-.13.22-.26.34-.39.05-.14.11-.29.16-.43,0-.34.01-.69.02-1.03Zm38.4,44.34h0c.06.07.11.14.17.22.14.21.28.43.43.64.09.12.18.23.27.35h-.01c.07.07.14.14.2.22h-.01c.07.07.15.14.22.22.2.28.37.6.61.85.47.49,1.18.85,1.44,1.42.6,1.33,1.87,1.94,2.89,2.72,1.78,1.36,3.78,2.42,5.71,3.62.42-.48.82-.94,1.22-1.4l.28-.36.02-.02c.06-.06.12-.13.18-.19l.02-.02c.06-.06.13-.13.19-.19l.02-.02c.06-.06.13-.13.19-.19v-.02c.08-.07.14-.13.2-.2,0,0,0,0,0,0,.06-.08.12-.15.19-.23,0,0,0,0,0,0,.07-.06.15-.12.22-.19.21-.21.42-.42.63-.63.06-.06.13-.12.19-.18.08-.07.16-.15.24-.22.11-.09.22-.18.33-.28v.02c.07-.09.14-.17.22-.26,2.2-1.59,4.31-3.32,6.63-4.7,1.07-.64.97-1.35.79-2.1-.58-2.45-1.35-4.85-1.93-7.3-.49-2.07-3.7-3.19-5.38-2.63-1.85.61-3.59,1.52-5.4,2.28-.52.22-1.13.25-1.62.52-.73.41-1.38.97-2.08,1.44-1.33.9-2.92,1.36-4.16,2.44-.96.83-1.94,1.68-3.05,2.28-1.09.59-.57,1.16-.26,1.82.07.08.14.17.2.25Zm50.17-12.81c-2.13-.84-4.33-1.1-6.55-1.19-1.34-.06-2.68-.02-4.02,0-.61,0-1.14.22-.95.97.45,1.83.91,3.66,1.43,5.47.38,1.32.84,2.63,1.3,3.93.08.23.35.46.58.55.79.3,1.58.61,2.4.77,1.46.28,4.43-2.04,4.68-3.57.37-2.29.75-4.59,1.14-6.92Z"/>
</svg>