<?xml version="1.0" encoding="UTF-8"?>
<svg id="Layer_1" data-name="Layer 1" xmlns="http://www.w3.org/2000/svg" viewBox="0 0 400 400">
  <defs>
    <style>
      .cls-1 {
        fill: #3e3e3e;
      }
    </style>
  </defs>
  <path class="cls-1" d="m147.81,36.58c-.65-.35-1.27-.81-1.96-1.01-1.05-.31-2.16-.42-3.23-.65-.32-.07-.65-.22-.91-.42-.61-.44-.54-1.32.16-1.58,1.1-.41,2.23-.79,3.37-1.03,3.87-.8,7.78-1.22,11.74-1.05.46.02.92.07,1.48.11.44-.9.82-1.94,1.41-2.83.88-1.32,1.96-2.49,2.86-3.8,1.32-1.93,3.28-3.17,4.91-4.77.4-.39,1.04-.51,1.56-.78,1.07-.58,2.12-1.19,3.04-1.71-.7-.53-1.39-.92-1.87-1.49-.14-.16.28-.81.5-1.39-1.12-.94-2.43-2.1-3.81-3.16-1.56-1.2-3.12-2.39-4.79-3.42-1.63-1.01-3.37-1.84-5.08-2.71-.94-.47-1.89-.96-2.9-1.25-1.69-.49-3.4-1-5.14-1.18-2.22-.24-4.48-.27-6.72-.2-1.71.05-3.43.33-5.13.59-2.89.45-5.83.67-8.57,1.85-1.68.72-3.42,1.3-5.08,2.07-1.68.78-3.3,1.71-4.94,2.57.2.24.47.42.49.62.02.16-.22.43-.41.53-2.13,1.13-4.34,2.15-6.4,3.39-1.33.8-2.47,1.9-3.67,2.91-1.36,1.14-2.75,2.25-3.99,3.5-1.62,1.64-3.2,3.33-4.62,5.14-1.32,1.68-2.53,3.48-3.57,5.36-.81,1.46-1.2,3.14-1.9,4.67-.58,1.27-1.35,2.45-2,3.69-.79,1.51-1.74,2.98-2.27,4.59-.44,1.34-.4,2.84-.54,4.27-.1,1.01-.02,2.06-.28,3.02-.27.98-.94,1.83-1.3,2.79-.7,1.87-1.27,3.79-1.96,5.67-.13.35-.5.65-.83.88-.31.22-.71.35-1.08.44-.32.07-.82.16-.97,0-.28-.31-.6-.92-.46-1.19.25-.49.33-.82-.05-1.22-.04-.04-.02-.13-.02-.2.03-1.62-.8-3.1-.92-4.62-.18-2.3-.46-4.67.25-7,.47-1.54.62-3.17,1-4.74.23-.96.63-1.88.97-2.82.97-2.62,1.97-5.22,3.49-7.59,2.12-3.31,4.08-6.73,6.35-9.93,1.91-2.7,4.49-4.83,7.16-6.77,2.64-1.92,5.32-3.8,8.07-5.54,2.75-1.74,5.54-3.45,8.67-4.45,1.52-.49,3.09-.85,4.63-1.29,1.42-.4,2.83-.84,4.26-1.23.61-.16,1.25-.24,1.88-.34,1.49-.23,2.98-.44,4.46-.69,2.18-.37,4.36-.76,6.54-1.14.33-.06.67-.08,1.01-.08,4.36,0,8.71,0,13.07,0,2.52,0,5.02-.13,7.47.82,1.19.46,2.58.35,3.85.63,1.09.24,2.15.64,3.21,1.03,1.37.51,2.72,1.08,4.09,1.6,4,1.52,7.88,3.32,11.37,5.78,1.45,1.02,2.32.03,3.38-.3,1.7-.52,3.29-1.59,5-1.81,2.31-.29,4.16-1.63,6.34-2.13.75-.17,1.5-.32,2.26-.42,1.38-.19,2.76-.44,4.15-.49,3.29-.13,6.58-.18,9.87-.21,1.11-.01,2.23.08,3.33.22.47.06,1.06.18,1,.96-.01.19.37.58.61.6,1.17.14,1.54,1.17,2.02,1.92.7,1.08,1.18,2.32,1.62,3.55.24.68.06,1.51.3,2.2.7,2,.38,4.04.34,6.05-.04,1.85-.42,3.69-.68,5.53-.29,2.04-.6,4.07-.92,6.1-.1.63-.24,1.25-.37,1.87-1.07.55-.89,1.51-.82,2.44,0,.32.04.65-.03.95-.31,1.29-.68,2.57-.97,3.87-.04.2.18.58.37.66.18.08.59-.06.71-.23.74-1.13,1.42-2.3,2.14-3.44.18-.28.41-.53.62-.8.07-.12.14-.25.21-.37.07-.08.14-.16.22-.24.05-.09.11-.18.16-.27.08-.18.16-.36.25-.54.66-.35,1.31-.7,1.97-1.05.55-.9,1.08-1.8,1.64-2.68,1.61-2.5,3.24-4.98,4.87-7.47.61-.93.86-1.9.45-3.33.74.38,1.43.51,1.76.93,1.24,1.57,2.58,3.13,3.47,4.9,1.17,2.33,2.04,4.83,2.86,7.31.44,1.34.49,2.82.71,4.23-.3.81-.02,1.4.7,1.82-.01.18-.02.37-.03.55.05.23.09.47.14.7.01.07.02.14.03.2,0,1.22,0,2.45,0,3.67,0,.21,0,.42,0,.64-.03.12-.06.24-.08.35-.03.15-.05.31-.08.46-.07.2-.14.41-.21.61-.02.21-.05.42-.07.64l-.03.03.04-.02c.06.06.12.12.18.18,0,0-.02.03-.02.03,0,0,.02-.03.02-.03.42.26.85.51,1.27.77.11.12.23.23.34.35.36.16.73.31,1.09.47.08.08.16.16.24.24.12.12.24.23.36.35l.21-.03c1.51.89,3.05,1.88,3.76,3.49.58,1.31,1.4,2.38,2.19,3.52.52.76.95,1.58,1.42,2.38-.02,0-.05,0-.07,0,.02,0,.04,0,.06-.01.06.05.12.1.18.15.06.12.12.25.18.37.02.09.04.18.06.27l-.08.05s.05-.02.08-.03c.09.11.17.21.26.32.06.21.13.41.19.62,0,.07-.02.13-.02.2.1.03.19.06.29.09.05.1.1.19.15.29.12.21.23.43.35.64.66.75,1.33,1.51,1.99,2.26l-.02.05.05-.02c.06.06.12.13.17.19.03.06.05.13.08.19.17.2.34.4.51.61.03.04.06.08.08.12.26.26.5.54.78.77,1.71,1.38,3.41,2.79,5.15,4.12,1.35,1.03,2.85,1.89,4.15,2.98,1.24,1.04,2.3,2.27,3.45,3.42.01.05.03.09.04.14.02-.05.03-.1.05-.14,0,0,.03-.03.03-.03.08-.05.15-.1.23-.15.13,0,.25-.01.38-.02.22,0,.44,0,.66,0,.27.2.54.39.81.59.19.08.38.16.57.25.42.41.83.83,1.25,1.24.08.26.16.52.25.78.3.21.61.42.91.63.04.09.07.19.11.28.03.07.07.11.13.14v.06s.05.03.05.03c.06.23.13.47.19.7.08.4.16.8.24,1.2h-.01c.07.61.14,1.23.21,1.84v-.02c-.07.31-.14.62-.21.93,0,.09,0,.19.01.28-.1.34-.2.69-.3,1.03-.11.16-.23.32-.34.48-.01.17-.03.34-.04.51-.04.16-.09.32-.13.48-.1.27-.21.54-.31.81-.16.28-.31.56-.47.84,0,.07.02.12.07.17-.05.04-.1.09-.13.14h-.09s.09-.02.09-.02c0,.14,0,.29,0,.43l-.09-.02h.09c0,.1,0,.21,0,.32-.06.13-.13.27-.19.4-.07.34-.14.68-.21,1.02.04.39.08.78.12,1.16-.05.09-.1.19-.15.28-.06.03-.11.06-.17.09l.15.12c0,.07,0,.13.01.2l-.07.06s.01.08.01.08c-.05.16-.09.32-.14.49-.06.26-.13.52-.19.78-.13.05-.27.1-.4.14.06.09.12.18.18.26,0,.14-.01.27-.02.41-.07.2-.14.4-.21.6l.03.09c-.02.23-.05.47-.07.7-.04.06-.08.13-.12.19-.14.29-.28.58-.41.88-.2.34-.4.68-.61,1.02l-.2.42c-.03.06-.03.12,0,.19,0,.14,0,.28,0,.42.01.07.02.13.04.2,0,.13,0,.27-.01.4,0,.07-.01.15-.02.22-.02.06-.04.13-.05.2h0c-.05.07-.11.14-.16.21-.1.44-.21.88-.31,1.32-.09.04-.18.08-.27.12-.4.69-.74,1.43-1.23,2.05-.45.56-1.02.7-1.32-.21-.05-.07-.1-.14-.16-.21-.22-.52-.44-1.03-.65-1.55-.05-.51-.1-1.02-.15-1.54.06-.54.12-1.07.18-1.61.4-.54.68-1.06-.2-1.43-.07,0-.13,0-.2,0h0c0-1.36,0-2.72,0-4.08.11-.09.23-.17.34-.26-.17-.12-.35-.24-.52-.35-.07-.27-.13-.54-.2-.82-.03-.06-.04-.12-.03-.19-.07-.14-.14-.28-.21-.42-.27.27-.53.54-.8.81-.64.26-1.28.51-1.91.79-.24.11-.49.25-.64.44-.57.72-1.01,1.55-1.66,2.17-.56.54-.9,1.11-.86,1.83.04.78-.52,1.67.39,2.31-.03.04-.07.09-.1.13.09-.03.19-.05.28-.08,0,0,.06-.02.06-.02h.04c.09.1.19.19.28.29.05.1.11.2.16.29,1.3,1.91,2.59,3.82,3.89,5.72.04.13.08.26.13.38,1,1.38,2,2.75,2.99,4.13.09.07.17.14.26.22.06,0,.11.04.13.1v-.02c1.08,1.41,2.17,2.81,3.25,4.22l-.04.05.07-.02c.18.25.35.5.53.74.03.07.06.13.08.2,0,.21.02.41.03.62.13.6.27,1.19.4,1.79l.05.05c.05.2.09.4.14.6,0,.1.01.21.02.31-.02,0-.05.02-.07.03.02-.01.05-.03.07-.04.02.11.03.22.05.33.12.22.25.44.37.66.05.07.09.13.14.2l-.02.07.06.06c0,.09,0,.19,0,.28-.03.03-.06.05-.08.08.03,0,.06-.01.09-.02.04.06.08.1.14.14.02.06.05.13.07.19.05.15.1.29.15.44-.41.86.44,1.31.63,1.97.01.37.03.73.04,1.1.06.01.12.02.18.03.04.12.08.23.12.35-.05.04-.07.1-.07.16.06.14.11.28.17.42.06.06.12.12.17.19,0,0,.03.01.03.01.05.18.1.37.15.55-.14.22-.28.43-.42.65l-.03-.02.02.03c-.06.05-.12.11-.18.16-.08.03-.17.06-.25.09-.07.15-.14.3-.21.46-.11,0-.23-.02-.34-.03-.07,0-.14,0-.21-.01-.14-.08-.27-.15-.41-.23h0c-.2-.2-.4-.4-.6-.6-.27-.23-.6-.42-.79-.7-.45-.65-.83-1.35-1.24-2.03l-.23-.57c-.22-.34-.44-.69-.66-1.03l-.03-.09-.08.02-.36-.1c-.15-.17-.31-.34-.46-.51l-.46-.33c-.12-.11-.25-.21-.37-.32-.62-.49-1.23-.98-1.85-1.47-.08-.07-.15-.15-.23-.22v.02c-.12-.08-.24-.17-.37-.25-.07-.06-.14-.13-.21-.19-.08-.06-.16-.12-.24-.18h0c-.12-.08-.24-.16-.36-.25-.07-.06-.14-.13-.22-.19-.13-.07-.25-.15-.38-.22-.08-.07-.15-.14-.23-.21-.07-.06-.14-.12-.21-.18h0c-.08-.06-.16-.11-.24-.17h0c-.09-.07-.17-.14-.26-.21-1.13-.9-2.26-1.8-3.39-2.71-.14-.06-.28-.12-.42-.17h0c-.13-.14-.25-.28-.38-.43-.62-.53-1.24-1.05-1.86-1.58-.14-.08-.28-.17-.41-.25-.28-.18-.56-.35-.84-.53-.12-.1-.23-.21-.35-.31l-.02-.02c-.06-.06-.13-.12-.19-.18h-.01c-.07-.08-.13-.14-.2-.2-.28-.2-.55-.4-.83-.6-.18.14-.36.29-.55.43l-.04.04c-.13.39-.27.77-.4,1.16.12.28.25.56.37.84,0,.06.02.13.04.19.06.15.12.3.18.45l-.05.04.03.04c-.05.13-.11.27-.16.4-.02.21-.03.41-.05.62-.21.03-.42.06-.63.09-.04-.11-.09-.22-.13-.33l-.39.32c.12.41.24.83.36,1.24-.02.06-.05.12-.07.17-.06.03-.1.08-.11.15-.03.08-.06.17-.09.25-.06.03-.1.07-.11.13-.07.1-.14.21-.22.31v.02c-.02.24-.04.49-.05.73-.04.08-.09.15-.13.23-.07.07-.14.15-.21.22-.02.21-.04.41-.06.62.02.07.04.13.07.2,0,.14,0,.28,0,.42.11.27.22.54.32.81.03.14.06.28.09.42l.15.25-.03.06.06.05c-.06.15-.12.3-.18.44.19.55.38,1.11.57,1.66,0,.06.02.12.04.18.12.34.25.69.37,1.03.07.2.13.4.2.61h0c.06.28.11.55.17.82.41.62.81,1.24,1.22,1.86.04.19.07.37.11.56.16.21.32.42.47.63.1.1.2.2.3.3.05.05.09.1.14.15l-.02.07.06.04c.13.36.26.73.39,1.09.21.27.41.54.62.81-.03.12-.14.29-.09.36,1.18,2.02,2.37,4.03,3.56,6.05,0,0-.04.01-.04.01h.05c.04.1.07.21.11.32.05.13.09.27.14.4-.01.07-.02.15-.03.22.28.29.56.58.84.88,0,.06.04.1.1.12.09.21.18.42.27.63.27.68.54,1.37.81,2.05,0,.27.02.55.03.82.06.13.11.27.17.4.09.14.18.27.27.41.29.4.58.79.86,1.19-.03.15-.06.31-.09.46.07.06.13.12.2.18l-.02.07c.15.11.3.22.44.33h0c.06.14.12.28.19.42h0c.07.14.14.27.21.41.07.14.13.27.2.41l.2.41s.05.07.04.12l.17.29s.06.06.04.11l.26.68c.16.22.32.44.49.66-.03.06-.02.11.05.14,0,.14-.01.28-.02.42-.05.04-.1.08-.15.12.05.02.11.05.16.07.23.49.45.97.68,1.46.07.13.13.26.2.39.18.43.36.87.54,1.3,0,.2.02.39.02.59.51,1.19,1.04,2.38,1.53,3.59.38.92.72,1.85,1.08,2.77,0,.26.01.51.02.77l.25.81c.13.33.26.66.38,1,0,.21-.02.42-.03.63-.05.14-.1.28-.15.42.05.07.1.14.15.21.21.2.43.39.64.59-.02.08-.05.15-.07.23-.02.03-.05.07-.05.08.04.04.08.07.13.11,0,0,0,0,0,0,.07.28.13.56.2.83.05.04.08.1.07.17-.02.5-.04,1-.06,1.5-.08.05-.15.11-.23.16-.39,0-.77,0-1.16,0-.36-.55-.74-1.09-1.08-1.65-.68-1.16-1.33-2.34-2.01-3.5-1.04-1.76-2.1-3.5-3.15-5.25-.05-.12-.11-.24-.16-.36-.56-.59-1.13-1.18-1.68-1.78-.05-.05,0-.19-.03-.26-.78-1.2-1.56-2.4-2.35-3.6-.08-.1-.17-.2-.25-.31h.02c-.07-.07-.13-.16-.2-.24-.69-.68-1.38-1.36-2.07-2.03-.06-.09-.12-.18-.18-.26-.14-.16-.27-.31-.41-.47-.09-.09-.18-.18-.27-.27-.28-.21-.55-.42-.83-.64-.1-.07-.2-.14-.3-.21-.71-.74-1.41-1.48-2.12-2.22.06-.12.11-.25.17-.37-.22-.03-.45-.05-.67-.08-.16-.17-.32-.33-.48-.5-.12-.1-.24-.21-.36-.31-.34-.29-.67-.57-1.01-.86v.02c-.96-.96-1.93-1.94-2.93-2.89-.21-.2-.54-.28-.81-.42l-.06-.03s.01.07.01.07c-.03.1-.07.21-.1.31-.19.31-.38.62-.57.94.06,1.23.12,2.45.18,3.68-.06.68-.12,1.36-.18,2.04-.09.15-.18.3-.25.42.26.08.46.15.66.21-.03.27-.05.54-.08.8-.06.22-.11.44-.17.66-.15.23-.3.47-.45.7l-.15.06c0,.14,0,.27,0,.41.05.53.11,1.06.16,1.59.07.15.14.3.21.45h0c0,.2,0,.41,0,.61-.07.14-.14.27-.2.41-.05.17-.11.34-.16.51.04.03.04.07,0,.1,0,.07-.01.13-.02.2,0,0,0,0,0,0,.04.14.09.28.13.41.05.08.1.16.15.23-.09.13-.18.27-.27.4-.12.47-.25.95-.37,1.42.12.13.23.26.35.4,0,.07,0,.13,0,.2,0,.29,0,.57,0,.86-.49.45-.97.9-1.46,1.35l-.08-.03-.03.08c-.06.17-.11.34-.17.51.19-.01.38-.03.57-.04.1-.02.21-.04.31-.06.54,0,.82-.25.95-.8.12-.51.39-.99.62-1.48.4-.87,1.12-1.08,1.99-.94.91.15,1.33.67,1.2,1.6.12.14.24.29.37.43,0,.13,0,.26,0,.38v1.14c.25-.32.34-.42.42-.52.04-.15.09-.29.13-.44l.2-.17c.12-.41.26-.81.37-1.22.17-.62.32-1.24.48-1.86.08-.07.15-.13.23-.2.34-.29.68-.57,1.02-.86.51-.18.89-.4.3-.93.16-.15.32-.29.47-.44-.04-.19-.07-.37-.11-.56.6-.8,1.2-1.59,1.8-2.39.06-.02.12-.04.17-.07.01-.14.03-.28.04-.43.3-.06.59-.12.89-.18v.08s.07,0,.07,0c.06.31.12.62.18.93.04.07.07.15.11.22.04.07.09.13.13.2.01.12.03.24.04.36-.07.26-.2.51-.19.77.04,1.66.15,3.31.16,4.97,0,.62-.28,1.24-.32,1.86-.09,1.35-.12,2.71-.17,4.07.02.11.03.23.05.34-.11.33-.29.66-.32,1.01-.16,1.58-.29,3.17-.42,4.75-.77.04-.18.55-.29.82-.06.02-.08.07-.08.13,0,.23-.02.45-.03.68h0c.14.17.29.34.43.5.01.07.05.12.1.16.02.19.05.38.07.56,0,.22,0,.44,0,.67-.06.19-.11.38-.17.57-.09.21-.18.42-.28.62-.05.16-.11.31-.16.47-.08.12-.16.23-.23.35-.06,0-.12,0-.17,0l-.18.16s-.06.06-.07.09l-.33.58c-.15.28-.3.55-.46.83-.11.4-.23.81-.34,1.21-.01.13-.03.25-.04.38-.05.2-.1.41-.16.62.53.57,1.44.81,1.97.43.98-.7,1.99-1.22,3.24-1.03.41,0,.82,0,1.24.01.07.01.15.02.22.03.13,0,.26.02.39.02.62-.38,1.02.05,1.45.38.27.06.54.12.8.17.43.18.85.41,1.3.55,1.65.51,2.91,1.61,4.14,2.75.64.59,1.25,1.21,1.87,1.82.21.06.42.12.64.18.24-.06.49-.12.73-.18.1,0,.19-.02.29-.03.25,0,.5,0,.76-.01,0,0-.01,0-.02,0,.26-.03.52-.07.78-.1.11.8.61.28.96.3.21-.01.41-.03.62-.04.07,0,.13-.01.18-.07.03.05.08.09.13.12,0,0-.01,0-.02,0,.24.02.47.03.71.05.21.05.42.1.63.15.08-.03.16-.06.23-.09l.32-.05c.07.05.14.1.21.15,0,.04.01.09.02.13.05-.03.11-.05.16-.08l.77.15c.17.03.33.06.5.1.02.05.06.09.11.1.23.03.46.05.68.08.12.11.24.23.36.34,0,0-.01,0-.02,0,.11,0,.21.01.32.02.07.05.13.1.2.15.09.01.18.02.27.03.11.03.22.06.33.08.06.04.12.07.18.11.06.02.12.04.19.06.09.06.18.12.28.18.07.06.13.12.2.18l.64.22c.19.09.38.17.57.26.03.06.07.1.13.12l1.5.12c.02.05.06.08.12.09.1.05.2.09.29.14.9,1.03,1.77,2.1,2.73,3.06.25.25.83.28,1.24.25.46-.03.91-.25,1.36-.39.68,0,1.36,0,2.04,0,.52.08,1.19.39,1.55.18,1.05-.62,1.97-.28,2.94.07.14.05.28.11.42.16.28,0,.56-.01.84-.02.02.08.05.17.07.25-.34.26-.67.52-.95.74,2.27,1.4,4.41,2.6,6.41,4.01,1.34.94,2.41,2.23,3.03,3.81.07.07.14.15.22.22h0c.48,1.09.95.28,1.43-.02,1.2-.09,2.31.19,3.32.84,1.83,1.18,4.03,1.87,5.15,3.97.79,1.49,1.56,3,2.35,4.5h0c.41.82.82,1.64,1.23,2.45h0c.2.41.4.81.6,1.21l-.03.04.05.02c.15.36.3.72.45,1.08.06.07.12.15.17.22.28.79.55,1.58.83,2.37-.11.67-.37,1.35.3,1.93.13.11.07.44.08.67.03.7.06,1.4.08,2.1,0,0-.02.08-.02.08-.82.29-.44.88-.35,1.4-.05.08-.09.16-.14.24-.05.1-.11.19-.16.29.41.43.81.86,1.22,1.29.05.08.1.17.15.25.03.06.06.13.09.19-.49.57-.15.74.4.81h-.01c.05.14.1.29.15.43.02.06.05.13.07.19-.39.47-.4.8.33.84.05.04.07.1.06.16.06.22.12.44.18.65.11.22.22.43.32.65.02.12.04.25.07.37.04.04.06.1.05.16.06.22.12.44.18.66,0,0,0,0,0,0,.06.13.12.27.18.4.05.04.06.08.05.14.06.29.12.59.18.88h0c.14.48.27.95.41,1.43,0,0,0,0,0,0,.07.34.13.68.2,1.02,0,0,0,0,0,0,.12.54.24,1.08.36,1.62.02.07.03.14.05.2.06.41.13.82.19,1.24h0c.06.28.13.55.19.82v.02c.14.81.26,1.61.39,2.42.01.07.02.14.04.22,0,1.9,0,3.81,0,5.71,0,.07,0,.13.02.2-.21.48-.42.95-.63,1.43h0c-.2.35-.57.69-.57,1.02.01,1.06.17,2.12.26,3.17.56-.11,1.05-.2,1.53-.3.45.49.9.97,1.35,1.46-.01.02-.04.06-.04.07.03.04.06.08.1.11l.02.03c.06.12.13.25.19.37.07.1.14.2.21.29l-.03.02.05.02c0,.07.01.15.02.22.05.16.11.31.16.47.05.08.1.15.15.23-.02.02-.05.06-.04.07.03.04.07.08.1.12h.1c.04.11.08.21.12.32.33.87.66,1.74,1,2.61l-.03.04.06.03c0,.08,0,.15,0,.23.07.28.14.56.21.85.06,0,.12.03.16.07l-.03.05.05.04.02.06c.06.24.12.48.19.72.04.11.07.22.11.33.02.19.05.38.07.57.08.13.15.25.23.38v.25c.13.47.28.95.42,1.42,0,.07-.02.14-.02.21-.13.62-.26,1.24-.38,1.86h0c-.07.03-.15.07-.22.11-.12.03-.24.05-.36.08-.17,0-.35,0-.52,0-.26-.13-.52-.26-.78-.38.06-.7-.25-.95-.92-.79l-.09.02s0-.08,0-.12c-.11-.06-.23-.13-.34-.19-.23-.21-.45-.43-.68-.64-.12-.13-.24-.25-.36-.38l-.05-.03c-.06-.05-.12-.11-.19-.16-.55-.55-1.1-1.1-1.65-1.65-.07-.13-.15-.26-.22-.39-.06-.07-.12-.13-.19-.2-.06-.07-.11-.15-.17-.22l-.02-.02c-.1-.12-.2-.24-.3-.36-.04-.06-.09-.12-.13-.18l-.56-.67-.03-.03c-.08-.12-.16-.23-.25-.35h.01c-.06-.07-.12-.14-.17-.22l-.09.02c-.04-.07-.09-.15-.13-.22-.26-.02-.53-.04-.79-.07-.16-.12-.31-.23-.47-.35-.05-.1-.11-.21-.16-.31-.08,0-.15,0-.23,0l-.06.03.02.06c-.06.06-.12.12-.18.19h0c-.07.07-.13.13-.2.2h0c-.89.96-1.79,1.94-2.72,2.96.87-.06,1.53-.1,2.19-.15l-.28,1.06h0c-.07.08-.15.17-.22.26-.06.13-.11.26-.17.39-.01.14-.03.29-.04.43,0,.26,0,.53,0,.79.02.14.03.28.05.42.07.27.15.54.22.81.33.42.66.84.99,1.26,0,.2,0,.39.01.59-.07.13-.14.27-.22.4-.07.13-.14.25-.21.38v.03c-.07.07-.13.14-.19.22l-1.86,2.04c0,.2-.02.4-.02.6.09.68.18,1.36.27,2.05-1.08.65-.65,1.57-.44,2.46.24.78.32,1.54-.41,2.14l-.07.03v.07c-.04.06-.09.11-.14.17h0c-.13.42-.27.85-.4,1.27-.01.2-.02.4-.03.6.34,2.05-.91,3.61-1.63,5.33-.06.26-.12.52-.18.78l-.02.03c-.05.08-.11.15-.16.23h0c-.08.05-.15.11-.23.16-.3.35-.6.7-.9,1.04-.19.21-.38.43-.57.64,0,.07-.03.12-.08.16-.1.07-.2.15-.29.22-.61.68-1.22,1.37-1.82,2.05-.28.33-.56.66-.84,1-.33.35-.67.7-1,1.05-.07.08-.13.16-.2.23,0,0,.01-.01.01-.01-.08.07-.16.13-.23.2-.06.06-.13.13-.19.19-.14.14-.28.28-.42.42l-1.86,1.82c-.87-.07-1.28.33-1.22,1.21-.62.58-1.24,1.15-1.85,1.73-.08.05-.16.1-.23.15-.06.04-.12.08-.18.12-.07-.03-.12-.01-.16.06-.64.26-1.29.52-1.93.78-.08.02-.17.03-.25.05-.12.05-.24.1-.36.15-.1.02-.2.03-.3.05-.31.12-.62.24-.93.35-.12.02-.25.05-.37.07-.16.05-.31.11-.47.16,0-.04,0-.07-.01-.11-.24.04-.48.09-.72.13-.03.04-.07.05-.11,0-.23.07-.46.13-.7.2-.01.05-.03.09-.05.14-.23.02-.46.03-.69.05-.11.03-.23.05-.34.08-.39.05-.78.09-1.17.14-.16.06-.32.11-.48.17,0-.04-.01-.08-.04-.11-.23.04-.47.09-.7.13-.07.07-.13.14-.2.21-.36.1-.72.19-1.08.29-.25.05-.5.09-.76.14,0,.06-.03.11-.07.15-.09.01-.19.03-.28.04-.19.06-.38.12-.57.18,0-.04,0-.08-.02-.11-.37.05-.74.1-1.11.14,0,.05-.02.1-.05.14-.08.02-.16.05-.24.07-.07,0-.12.04-.15.1-.58.03-1.17.06-1.75.09,0,0-.05.01-.05.01-.17,0-.35.02-.52.03-.3.03-.6.07-.9.1-.35.03-.69.06-1.04.08-.06-.03-.13-.03-.19,0-1.51-.08-3.03-.15-4.54-.23-.23-.02-.47-.04-.7-.06-.11-.05-.21-.1-.32-.15-.05-.03-.09-.06-.14-.09-.52-.18-1.04-.36-1.56-.54h-.02c-.3-.06-.6-.11-.9-.17-.06.06-.11.12-.17.18-.22.12-.43.25-.65.37l-.4-.21c-.14,0-.28,0-.42,0-.14-.12-.28-.24-.42-.36-.5-.2-1-.4-1.5-.6-.09-.02-.19-.04-.28-.06-.07-.06-.14-.13-.2-.19h.02c-.25-.13-.5-.25-.74-.38l-.04-.07h-.07c-.06-.05-.13-.11-.19-.17h.02c-.46-.27-.93-.54-1.39-.81l-.02-.05-.04.02c-.06-.04-.12-.09-.18-.13-.22-.07-.44-.13-.66-.2-.69-.51-1.38-1.02-2.07-1.53l-.62-.28c0,.12.02.24.03.36-.02.2-.05.4-.07.6-.11.11-.23.23-.34.34-.29.5-.58,1.01-.87,1.51-.05.18-.1.36-.15.54-.09.09-.18.18-.26.27-.12.13-.23.27-.35.4-.07.15-.13.3-.2.45-.06.03-.07.07-.04.12-2.25,2.8-4.29,5.72-5.32,9.23-.12.13-.25.26-.37.39-.35.69-.71,1.38-1.06,2.07-.05.19-.11.37-.16.56-.27.5-.54,1-.81,1.51l-.05.05.03.06c-.26.52-.53,1.03-.79,1.55-.05.25-.09.51-.14.76h-.09c-.05.08-.11.16-.16.24h.01c-.08.11-.16.24-.25.36h-.01c-.13.09-.25.17-.38.25,0,0,.01-.01.01-.01-.08.07-.15.14-.23.2-.14.31-.28.61-.42.92v.02c-.07.15-.14.29-.21.44,0,0,0-.02,0-.02-.06.12-.12.24-.18.36l-.04.02h.03c-.06.12-.12.22-.18.32-.03.01-.06.03-.1.04.02.03.03.05.05.08-.26.52-.52,1.03-.78,1.55-.08.11-.16.21-.24.32-.06.06-.13.13-.19.19,0,0-.03-.02-.03-.02h.03c-.48.51-.96,1-1.43,1.49-.53.05-1.07.11-1.6.16-1.57,1.11-3.14,2.21-4.72,3.32-.06.03-.12.06-.19.09-.05.05-.1.08-.17.09-.08.08-.16.16-.24.24-.48.34-.96.67-1.44,1.01-.34.2-.68.4-1.02.61,0,0,0,0,0,0-.2.13-.41.26-.61.39-.27.21-.55.42-.82.63-.41.27-.81.55-1.22.82-.21.14-.41.27-.62.41-.2.07-.4.15-.6.22-.07.06-.14.13-.21.19-.48.21-.95.42-1.43.63-.41.27-.82.53-1.23.8-.27.15-.53.3-.8.45,0,0,.01-.02.01-.02-.08.06-.16.11-.24.17-.14.07-.27.14-.41.21-.66-.05-.75.4-.82.9-.06.42-.09.89-.29,1.25-.48.85-.83.81-1.38-.01-.07-.1-.37-.05-.56-.06,0,0,.01-.01.01-.01-.08.06-.15.11-.23.17-.22.14-.43.27-.65.41-.12.04-.24.07-.36.11-.05.05-.1.08-.17.07-.15.08-.3.16-.45.23-.14.07-.28.13-.42.2-.34.07-.67.13-1.01.2,0,0-.01,0-.01,0-.41.27-.81.54-1.22.81-.22.34-.44.69-.66,1.03-.19.14-.37.28-.56.42-.34.35-.68.7-1.03,1.05-.28.05-.57.09-.85.14-.14-.06-.28-.12-.42-.19-.04-.04-.08-.08-.13-.12-.02.04-.03.09-.05.13-.2.34-.41.67-.61,1.01-.2.34-.4.68-.61,1.02v.41c-.37.53-.09.81.38,1.02l.19.61c0,.14.01.28.02.42.06.2.12.4.18.6.05.42.1.85.15,1.27.09.46.17.92.26,1.38.06.63.11,1.26.17,1.88.15.53.3,1.06.44,1.59,0,.23,0,.46.01.7,0,.39.02.77.03,1.16.13.27.27.54.4.81h0c.08.29.15.56.23.83-.01.06-.02.12-.01.18.04.21.09.42.13.62.04.05.05.11.03.17.08.42.17.84.25,1.27h0c.07.41.14.82.22,1.23.88.89,1.76,1.77,2.64,2.66.14.13.28.27.43.4.32.35.63.7.95,1.05l.25.6c.52.9,1.03,1.79,1.55,2.69.03.19.07.38.1.57.08.21.17.42.25.63.01.59.03,1.18.04,1.78-.04.09-.09.17-.13.26,0,.2,0,.39-.01.59.56.75,1.13,1.5,1.69,2.25.17.14.34.28.51.41l.31.17c.06.11.12.22.18.32l.03.29c.02.08.04.16.06.24l.04.08.08-.03c.06.04.12.08.18.12.08.17.17.35.25.52.13.34.25.68.38,1.02-.02.02-.04.04-.05.07,0,.02.02.05.03.07.02-.01.04-.03.05-.04.06.1.12.2.17.29-.04,0-.07,0-.1.03.03.3.06.61.08.91.05.15.11.3.16.45-.05.04-.07.1-.06.16-.03.41-.06.82-.09,1.23-.03.38-.07.77-.1,1.15,0,.08,0,.17,0,.25-.03.08-.05.17-.08.25l-.18.17c-.04.2-.09.39-.13.59l-.73,1.73c-.07.1-.14.19-.21.29-.34.47-.68.93-1.02,1.4h-.04s.03.04.03.04c-.07.07-.14.14-.21.22h0c-.21.2-.42.41-.63.62,0,0,.02-.02.02-.02-.12.16-.25.32-.37.48-.02.05-.04.1-.05.14-.2.14-.41.27-.61.41,0,0-.02-.03-.02-.03,0,0,.02.02.02.02-.14.14-.27.27-.41.41,0,0,.01-.01.01-.01-.12.09-.25.17-.37.26-.14.33-.29.66-.43.99-.07.08-.13.16-.2.24-.06.07-.13.15-.19.22h0c-.08.12-.15.24-.23.37-.29.28-.57.57-.86.85.15.31.29.62.43.92-.21.08-.5.19-.79.31h0c-.13.08-.26.16-.39.24h0c-.14.05-.28.11-.42.17-.57.47-1.14.95-1.71,1.42-.1.08-.21.17-.31.25,0,0,.01-.02.01-.02-.07.07-.14.15-.22.22,0,0,.01-.01.01-.01l-.22.21h0c-.3.05-.59.1-.89.15-.94.57-1.88,1.13-2.81,1.7-.22.12-.44.23-.66.35-.31.08-.62.16-.92.24-.29.06-.58.13-.87.19-.11,0-.23.01-.34.02-.3.06-.59.12-.89.19-.12,0-.24,0-.37,0-.35.07-.71.13-1.06.2-.12,0-.24,0-.36.01-.36.06-.72.13-1.07.19-.18,0-.36.01-.53.02-.3.05-.59.1-.89.16-.19.01-.38.03-.58.04-.35.06-.7.11-1.06.17-.25.02-.5.03-.75.05-.36.05-.73.11-1.09.16-.25.01-.5.03-.76.04-.45,0-.9,0-1.36,0-.23.07-.46.13-.69.2-.49.05-.99.11-1.48.16-.32.01-.64.03-.96.04l-1.49.14c-.39.02-.79.04-1.18.05-.69.05-1.39.1-2.08.15-.66.02-1.32.04-1.98.06-.97.05-1.95.1-2.92.15-.74-.12-1.46-.05-2.21,0-2.39.17-4.8.02-7.2,0-.95,0-1.89,0-2.84-.01-1.37-.07-2.74-.14-4.12-.21-.28-.04-.57-.09-.85-.13-.74-.02-1.47-.05-2.21-.07-.15-.04-.31-.08-.46-.12-.66-.03-1.33-.05-1.99-.08-.15-.04-.3-.08-.45-.13l-1.59-.08c-.15-.04-.31-.09-.46-.13-.85-.08-1.7-.13-2.55-.24-.59-.08-1.18-.24-1.77-.33-2.35-.37-4.7-.72-7.05-1.08-.16,0-.33.02-.49.02-.25-.06-.51-.12-.76-.18-1.84-.41-3.67-.83-5.51-1.24-.47-.3-.95-.6-1.42-.9-.2-.12-.4-.24-.6-.36-.48-.36-.96-.72-1.45-1.08-.18-.12-.37-.24-.55-.35-.09-.09-.18-.18-.26-.26-.18-.12-.37-.23-.55-.35-.76-.83-1.52-1.66-2.28-2.49-.13-.19-.26-.38-.38-.58-.22-.36-.43-.73-.65-1.09-.25-.52-.5-1.04-.75-1.56.01-.08.02-.16.03-.24-.02-.39-.03-.78-.05-1.17-.02-.07-.03-.15-.05-.22-.05-.2-.11-.4-.16-.6-.03-.14-.06-.28-.09-.42,0-.55,0-1.09,0-1.64.03-.14.06-.28.09-.42.05-.2.1-.4.15-.6.02-.07.04-.15.05-.22.12-.54.24-1.07.36-1.61.08-.14.16-.27.24-.41.33-.75.66-1.5.98-2.25.33-1.02,1.28-2.05,0-3.06-.33-.7-.65-1.41-.98-2.11-.02-.1-.03-.2-.05-.29.01-.36.02-.71.03-1.07.25-.48.51-.95.76-1.43.03-.14.05-.28.08-.42,0-.05-.02-.09-.03-.14.15-.15.29-.31.44-.46.12-.14.24-.27.36-.41.16-.34.32-.68.48-1.02.18-.27.36-.54.54-.81.01-.13.02-.25.03-.38h0c.22-.27.44-.54.66-.81.61-.68,1.21-1.36,1.82-2.04.06-.14.13-.28.19-.42.17-.53.48-1.06.47-1.58,0-1.07-.26-2.14-.28-3.21-.05-2.61,0-5.23-.02-7.84,0-.43-.14-.85-.21-1.28.09-.95.18-1.9.27-2.85.08-.33.15-.66.23-.99-.04-.35-.07-.7-.11-1.04-.12-.24-.17-.59-.37-.7-.51-.3-1.08-.5-1.63-.74,0-.05,0-.1,0-.15-.12-.08-.25-.16-.37-.24-.11-.09-.21-.18-.32-.26-.4-.73-.8-1.46-1.2-2.18,0-.48,0-.95,0-1.43.01-.08.02-.17.03-.25l.05-.04-.02-.06c.12-.85-.59-.72-1.04-.9l-.62-.17s0,0,0,0l-1.84-.61h0c-.13-.07-.26-.14-.4-.22-.07.01-.14.02-.22.04l-.41-.26c-.27-.13-.53-.25-.8-.38h-.21c-.35-.28-.69-.58-1.04-.87-.18-.05-.36-.1-.55-.15-.97-.83-1.94-1.66-2.91-2.5-.08-.12-.15-.23-.23-.35h0c-.04-.06-.08-.13-.12-.2-.07-.32-.15-.63-.2-.84-.58-.08-1.15-.16-1.72-.24-.27-.05-.55-.09-.82-.14-.07-.07-.13-.14-.2-.21-.14-.07-.29-.15-.43-.22-.06-.07-.12-.14-.18-.21l-.18-.22h-.01c-.07-.08-.14-.14-.22-.2-.07-.06-.14-.12-.21-.18-.06-.15-.12-.29-.18-.44-.14-.27-.27-.54-.41-.8,0,0-.01-.01-.01-.01-.05-.13-.1-.26-.15-.39-.22-.35-.44-.71-.66-1.06-.46-.34-.92-.69-1.38-1.03-.21-.33-.42-.66-.64-.99-.55-.55-1.11-1.09-1.66-1.64l-.18-.2v-.02c-.11-.12-.21-.24-.31-.36-.12-.06-.23-.11-.35-.17-.24-.02-.49-.05-.73-.07-.35-.3-.7-.59-1.04-.89-.15-.12-.29-.24-.44-.35-.15-.26-.3-.53-.45-.79-.13-.19-.25-.38-.38-.56-.08-.29-.16-.58-.24-.87-.06-.26-.12-.53-.17-.79-.39-.77-.77-1.54-1.16-2.31-.02-.1-.04-.2-.07-.3l-.24-.69-.17-.61c0-.07,0-.14,0-.21-.05-.33-.09-.66-.14-.99-.15-.23-.31-.47-.46-.7l.02.02c-.34-.6-.68-1.2-1.02-1.79-.08-.2-.16-.41-.24-.61-.13-.14-.26-.28-.39-.42,0-.13-.02-.26-.02-.39-.12-.14-.23-.27-.35-.41-.09-.08-.17-.17-.26-.25-.12-.12-.24-.24-.36-.36l-.66-.67c-.12-.12-.23-.23-.35-.35-.02-.14-.04-.27-.06-.41-.12-.27-.24-.54-.36-.8-.17-.69-.34-1.37-.52-2.06-.11-.2-.22-.41-.32-.61l.02-.06h-.07c-.05-.13-.1-.26-.15-.4l.03-.04-.05-.02c0-.06-.04-.1-.09-.12-.09-.19-.19-.38-.28-.56-.09-.19-.17-.38-.26-.58-.2-.42-.41-.84-.61-1.25-.07-.13-.14-.27-.21-.4-.12-.16-.25-.32-.37-.47-.08-.14-.15-.28-.23-.42-.14-.12-.28-.24-.42-.36l-.58-.28c-.83-.93-1.65-1.86-2.48-2.79-.2-.02-.4-.04-.59-.06-.35.15-.7.3-1.05.44-.4.06-.8.11-1.2.17-.62,0-1.25,0-1.87,0-.2-.05-.4-.1-.6-.16-.07-.02-.15-.04-.22-.06l-.58-.15c-1.5.13-3,.27-4.5.38-.43.03-.98.13-1.29-.08-.89-.61-1.87-.46-2.82-.55-.21-.05-.41-.1-.62-.14-.13.01-.26.03-.39.04-.27-.03-.53-.06-.8-.09-.76-.14-1.52-.28-2.28-.42-.2-.05-.4-.1-.6-.15-.82-.14-1.64-.28-2.45-.42-.2-.07-.39-.13-.59-.2v-.02c-.22-.19-.43-.38-.65-.57,0,0,0,0,0,0-.14-.07-.28-.14-.41-.21,0,0,0,0,0,0-.14-.07-.27-.14-.41-.21,0,0,0,0,0,0-.19-.14-.39-.28-.58-.42h-.03c-.21-.14-.41-.27-.62-.39,0,0,0,0,0,0-.13-.07-.26-.14-.39-.21,0,0-.01-.02-.01-.02-.14-.06-.28-.11-.41-.17-.07-.07-.13-.14-.2-.21-.21-.14-.41-.27-.62-.41-.07-.07-.13-.14-.2-.21-.14-.13-.27-.27-.41-.4-.54-.09-1.09-.17-1.63-.26-.14-.12-.27-.24-.41-.36h-.09s-.02-.05-.02-.05l-.03.03c-.28-.05-.55-.11-.83-.16,0,0,.01-.07.01-.07,0,0-.06.02-.06.02-.07-.11-.15-.23-.22-.34-.03-.27-.06-.55-.1-.82-.04-.15-.08-.29-.12-.44,0-.11,0-.22,0-.32-.16-.16-.33-.33-.49-.49-.03-.12-.05-.23-.08-.35-.15-.36-.29-.72-.44-1.08h0c-.05-.07-.11-.14-.16-.21.05-.55.1-1.1.14-1.65.03-.47.05-.94.08-1.41,0-.62,0-1.24,0-1.86-.02-.13-.04-.26-.06-.39h0c-.05-.06-.11-.13-.16-.2-.01-.07-.03-.14-.04-.2-.07-.34-.14-.68-.21-1.02h0c-.12-.27-.24-.55-.36-.82,0-.14.01-.28.02-.43-.09-.4-.19-.8-.28-1.2-.12-.14-.23-.28-.35-.41l.29-.18c-.11-.08-.23-.15-.34-.23.02-.95.04-1.91.05-2.86-.09-.33-.17-.67-.26-1,0,0,0,0,0,0-.05-.07-.11-.14-.16-.21-.07-.14-.14-.28-.2-.41.1-.07.3-.16.29-.2-.16-.75-.35-1.5-.54-2.24h0c-.05-.07-.11-.14-.16-.21.01-.28.02-.56.03-.84-.07-.13-.14-.26-.21-.39.01-.22.02-.43.03-.65.1-1.31.19-2.61.3-4.15-.23-.14-.67-.42-1.11-.7,0,0-.05.03-.05.03l-.05-.03c-1.09-.21-2.18-.42-3.27-.63-.07-.03-.14-.05-.21-.08-.13-.11-.26-.22-.39-.33-.07-.07-.15-.15-.22-.22-.07-.06-.13-.12-.2-.18,0,0-.01-.01-.01-.01-.07-.13-.14-.26-.22-.4-.06,0-.12-.02-.17-.04-.18-.41-.36-.82-.54-1.22-.04-.19-.09-.38-.13-.57-.09-.14-.17-.28-.26-.41-.37-.07-.75-.14-1.12-.21l-.61.02h.02s0,.11,0,.17c.13.06.26.13.39.19.6.76,1.21,1.52,1.81,2.28.27.41.54.82.81,1.23,0,.14.02.27.02.41.04.67.09,1.34.13,2.01-.05.08-.1.16-.16.24-.05.16-.1.31-.15.47l-.5,1.34s-.1.01-.14.03c-.07.13-.14.26-.2.38v.02c-.08.13-.14.27-.2.4h0c-.2.48-.41.95-.61,1.41,0,0,0,.02,0,.02-.06.13-.13.26-.19.39h0c-.06.15-.12.29-.19.43,0,0,0,0,0,0-.07.2-.14.4-.22.6-.07.14-.14.28-.21.42-.14.4-.27.81-.41,1.21-.01.07-.03.15-.04.22-.05.07-.1.14-.16.21,0,0,0,0,0,0-.12.36-.23.72-.35,1.08,0,0,0,.03,0,.03-.69-.17-1.39-.33-2.08-.5-.07-.1-.14-.19-.21-.29.02-.03.05-.06.04-.08-.02-.06-.06-.11-.09-.17,0-.07,0-.14,0-.21-.07-.29-.14-.59-.21-.88-.06-.07-.11-.13-.17-.2-.02-.07-.04-.14-.06-.21-.06-.38-.11-.76-.17-1.14,0-.08,0-.15,0-.23.04-.5.14-1.01.11-1.51-.01-.21-.3-.4-.46-.6-.1-.37-.28-.74-.27-1.1.05-1.74.16-3.48.24-5.22.06-.01.11-.02.17-.03.07-.35.15-.69.22-1.04-.01-.06-.03-.12-.04-.17.02-.07.04-.14.05-.2.19-.41.38-.83.58-1.24.15-.26.29-.53.44-.79.07-.07.15-.15.22-.22.87-.56.08-.84-.2-1.21,0,0-.02-.02-.02-.02-.12-.29-.25-.58-.37-.87-.09-.16-.17-.32-.26-.49,0-.25,0-.5,0-.75-.03-.05-.02-.09.03-.13-.01-.06-.03-.13-.04-.19-.05,0-.11-.01-.16-.03.01-.27.02-.54.03-.82-.07-.27-.14-.54-.21-.81-.01-1.09-.03-2.17-.04-3.26-.08-.14-.17-.28-.25-.41-.09-.08-.17-.16-.26-.24-.17-.27-.33-.55-.5-.82-.06-.12-.12-.25-.19-.37-.09-.07-.18-.14-.27-.21-.06-.18-.12-.36-.18-.54,0-.07-.01-.14,0-.2-.05-.23-.11-.45-.16-.68-.04-.23-.07-.46-.11-.68.23-.65.46-1.29.69-1.94.03-.05.08-.08.14-.07.62.05,1.24.09,1.89.14v-2.62c0-.13.01-.25.02-.38.07-.13.14-.26.21-.38.08-.4.15-.8.23-1.2.19-.77.37-1.53.56-2.3v.02c.14-.33.28-.67.43-1l.02-.02c.06-.07.12-.14.17-.22,0,0-.01,0-.01,0,.07-.14.14-.27.22-.41.07-.07.13-.14.2-.21.14-.07.27-.14.41-.21h0c.6-.11.5-.42.23-.79v-.02c-.14-.34-.27-.67-.4-1.01l-.02-.02c-.06-.2-.13-.39-.19-.59l-.02-.02c-.1-1.63-.2-3.26-.3-4.89-.03-.04-.05-.08-.07-.12.06-.02.12-.05.18-.08.06-.35.12-.7.17-1.05,0,0,0,.02,0,.02.06-.3.11-.61.17-.91,0-.05.01-.08.05-.1.06-.23.12-.47.18-.7-.01-.05,0-.09.05-.12.07-.4.13-.8.2-1.21.13-.62.25-1.24.38-1.87,0,0,0,0,0,0,.26-.85.54-1.7.75-2.56.03-.13-.26-.33-.4-.5.03-.2.05-.41.08-.61.06-.22.12-.43.19-.65.1-.18.2-.35.3-.53.06,0,.11-.02.16-.04.06-.07.11-.14.17-.2,0,0,0,0,0,0l.39-1.24s0,0,0,0c.07-.27.14-.54.21-.81,0,0,0,0,0,0,.08-.19.16-.39.24-.58.07-.27.14-.54.21-.81l1.13-2.94s0,.02,0,.02c.22-.33.44-.66.66-.99,0,0,0,0,0,0,.13-.07.27-.14.4-.22.85-.82,1.9-.99,3.02-1.02.31,0,.75-.13.9-.35.58-.84,1-1.8,1.6-2.62.54-.74,1.25-1.35,1.86-2.04.19-.21.32-.48.48-.72.23-.26.45-.53.68-.79l.48-.62c.05-.07.11-.15.16-.22,1.03-.94,2.06-1.88,3.09-2.83.26-.15.53-.3.79-.45.28-.19.55-.37.83-.56.34-.2.68-.41,1.02-.61.25-.08.5-.16.75-.25.22-.11.44-.21.65-.32.28-.15.55-.31.83-.46.27-.02.54-.03.82-.05.26-.13.52-.26.78-.39,0,0,.03-.03.03-.03.26-.06.52-.12.78-.17.12,0,.24-.01.36-.02.31-.05.62-.1.92-.15.26-.07.53-.13.79-.2.68-.1,1.36-.26,2.05-.3,1.29-.07,2.58-.08,3.87-.12q.4.14.61-.67c.21-.07.41-.13.62-.2.14,0,.28-.02.41-.03.07.03.13.06.2.08.7.13.33-.38.38-.64.05-1.33.6-2.35,1.87-2.89.14,0,.29-.02.43-.03l.04.04h.06c.11.15.21.31.32.47.02.07.07.11.14.14.07.03.14.06.21.08.06.06.12.11.18.17l-.02.04.04-.02c.07.05.14.09.21.14l.17.05c.07.05.14.1.21.14.57.41,1.16.63,1.83.22.7-.32,1.4-.63,2.1-.95.06-.02.11-.05.17-.07.24-.06.49-.12.73-.17,0,0-.02,0-.02,0l.16-.14c.06-.03.12-.06.19-.08.16-.06.32-.12.48-.19.38.06.76.12,1.14.17.42-.25.83-.51,1.26-.73.4-.2.82-.36,1.23-.53.12.07.23.14.35.21,0-.12,0-.25-.01-.37-.03-.15-.06-.3-.09-.45.1-.26.2-.52.3-.78.63-.55,1.25-1.09,1.88-1.64.04.03.08.07.12.1l.09-.22c.21-.09.41-.19.62-.28.41,0,.83,0,1.24-.01l.38-.04c.17-.2.34-.39.51-.59.04.01.08.02.12.03.27-.06.53-.12.8-.17l1.24-.24c.2-.07.4-.14.6-.2,0,0,0,0,0,0,.38,0,.75-.02,1.13-.03.04-.08.09-.15.13-.23l.58-.36c.27.07.53.14.8.21.21-.05.41-.11.62-.16.07-.01.14-.03.21-.04.48-.06.95-.11,1.43-.17.07-.01.14-.02.2-.03.21-.06.41-.13.62-.19.15-.03.3-.06.45-.1.91.19,1.8.27,2.61-.32h0c.13-.14.26-.29.39-.43h0c.08-.11.16-.23.23-.35.06-.09.13-.19.19-.28.14,0,.27,0,.41.01.11.09.22.18.33.27.23.31.47.63.7.94.02.1.05.27.07.27,1.07-.02,2.22.24,2.98-.85.05-.07.1-.13.15-.2.09-.07.17-.14.26-.21h0c.06-.15.13-.28.19-.42,0-.07,0-.13.03-.2.33-.28.66-.56.98-.85.54-.92,1.92-1.15,2.02-2.43.49-.52.98-1.04,1.47-1.56.05-.04.1-.08.14-.12v.02c.07-.07.15-.14.22-.22h-.02c.09-.1.17-.22.26-.34,0-.07,0-.14,0-.2.2-.21.4-.43.6-.64.14-.09.27-.17.41-.26h.98c-.02-.38-.04-.68-.05-.97,1.14-.94,2.29-1.89,3.43-2.83h-.01c.06-.05.12-.1.18-.16.05.04.11.05.17.05.14.01.28.02.42.03.13-.06.27-.12.4-.18.21-.1.42-.2.63-.3.82-.5,1.63-1,2.45-1.5.03.08.07.17.1.25l.31-.46c.07-.2.14-.41.21-.61.19-.36.37-.71.56-1.07v.02c.08-.13.16-.27.24-.4.07-.13.13-.26.2-.39.07-.14.14-.28.21-.42h0c.07-.07.14-.14.21-.22.21-1.28.43-2.56.64-3.84.04-.49.07-.98.11-1.47,0-.11,0-.23,0-.34,0-.09.01-.18.02-.27,0-1.27,0-2.55,0-3.82-.04-.42-.08-.84-.12-1.27-.04-.54-.07-1.08-.11-1.62,0-.2,0-.4,0-.6-.06-.13-.11-.27-.17-.4-.03-.29-.05-.58-.08-.87-.03-.19-.05-.38-.08-.57-.18-.69-.44-1.19-1.23-1.51-.65-.26-1.09-1.03-1.62-1.57-.14-.2-.28-.4-.42-.6-.35-.45-.69-.89-1.04-1.34-.05-.23-.11-.47-.16-.7-.15-.27-.3-.55-.46-.82-.14-.21-.27-.41-.41-.62l-.18-.57c0-.08.01-.17.02-.25-.26-1.98-.53-3.96-.79-5.94-.07-.33-.14-.67-.22-1-.03-.05-.03-.11-.02-.17.01-1.78.02-3.55.03-5.33.07-.34.14-.67.21-1.01.06-.56.11-1.11.17-1.67h0c.14-.47.28-.94.42-1.42h0c.07-.21.14-.41.2-.61h0c.07-.36.2-.71.19-1.06-.04-1.62-.13-3.24-.2-4.86h0c.06-.15.13-.29.19-.44.22-.54.44-1.07.65-1.61.13-.34.26-.68.38-1.01h0c.2-.35.4-.69.6-1.03.02-.07.04-.14.05-.21l.36-.58c.33-.49.71-.95,1-1.46.41-.72.7-1.52,1.14-2.22.87-1.39,2.64-2.26,2.36-4.29,0-.07.1-.15.15-.22-.19-.27-.38-.53-.58-.8-.04-.15-.08-.3-.11-.45-.03-.06-.05-.12-.08-.18l-.07-.2c-.07-.04-.13-.09-.2-.13,0,.05,0,.1-.01.15-.32.19-.63.38-.95.57-.11.28-.21.56-.32.84-.09.09-.19.19-.28.28-.2.05-.41.11-.61.16-.27.37-.54.74-.8,1.11-.12.1-.24.2-.36.3-.37.33-.75.66-1.12,1-.06.06-.13.12-.19.18l-.02.02-.18.18-.02.02c-.06.05-.12.11-.18.16-.06.11-.11.21-.17.32-.35.38-.69.76-1.04,1.14-.21.34-.42.69-.63,1.03-.08.14-.17.27-.25.41-.26.41-.52.82-.77,1.22-.9.66-1.22,1.74-1.87,2.58-.89,1.16-1.82,2.29-2.65,3.49-.56.81-.91,1.76-1.48,2.55-.62.86-1.73,1.33-2.07,2.45-.34.26-.69.51-1.03.77-.08.21-.16.42-.24.62-.09.13-.17.27-.26.4-.1.08-.2.16-.31.24-.42.41-.83.82-1.25,1.22-.08.07-.17.15-.25.22,0,0,.02,0,.02,0-.14.15-.29.29-.43.44-.32.32-.64.64-.96.96-.1.12-.2.24-.31.35l-.02.02c-.19.1-.37.2-.56.3,0,.11-.01.22-.02.33-.82.73-1.61,1.5-2.45,2.2-1.17.97-2.57,1.67-3.47,2.96-.77.57-1.54,1.14-2.32,1.71-.63.5-1.27.99-1.88,1.51-.65.55-1.28,1.12-1.9,1.71-.83.78-1.65,1.59-2.47,2.38-.34.34-.68.68-1.02,1.02l-.23.22c-.07.04-.14.09-.2.13l-.07-.03-.03.07c-.27.28-.53.57-.8.85-.24.26-.48.51-.72.77l-.41.6c-.07.05-.14.09-.21.14-.03.04-.06.07-.09.11-.26.29-.51.58-.77.88-.45.2-.91.4-1.36.6-.61.25-.36.62-.14.99-1.27,1.27-2.53,2.55-3.8,3.83-.07.07-.08.18-.14.26-.29.34-.59.68-.88,1.02-.19.22-.38.45-.56.68-.27.37-.5.77-.79,1.12-.75.92-1.51,1.83-2.3,2.71-.58.65-1.21,1.26-1.81,1.9-.17.19-.29.43-.42.66-.18.3-.31.63-.51.91-.75,1.03-1.51,2.04-2.27,3.06-.29.26-.59.52-.88.78l-.13.44-.06.05c-.89-.06-.91.59-.98,1.2-.05.13-.1.26-.16.38-.05-.01-.09,0-.12.05-.04.04-.08.08-.12.12-.06.08-.11.17-.17.25-.11.14-.21.28-.32.41l-.08.05v.09c-.18.21-.36.43-.54.64-.1.14-.19.28-.29.43-.1.11-.19.21-.29.32-.04.1-.07.19-.11.29-.07.02-.12.07-.15.13l-.05-.02s.02.05.02.05c-.51.51-1.21.92-1.49,1.54-.72,1.57-2.14,2.46-3.17,3.72-1.3,1.59-2.93,2.96-3.53,5.04l-.14.31c-.06.08-.12.15-.18.23q-.93,1.59-1.59,1.43c.08-.41.17-.81.26-1.25-.26-.13-.49-.31-.73-.36-.85-.17-.91-.59-.51-1.28.18-.29.19-.68.28-1.03.29-.32.58-.63.87-.95,0,0,0,0,0,0,.11-.22.22-.44.34-.66.15-.19.3-.38.45-.57.54-.78,1.09-1.56,1.61-2.36.08-.12.02-.33.02-.49,1.27-.24,1.21-1.43,1.61-2.28.08-.07.15-.13.23-.2.12-.21.24-.43.37-.64,0,0,0,.02,0,.02.08-.13.16-.26.23-.39h0c.06-.08.12-.16.18-.24h-.01c.09-.11.18-.23.27-.35.05-.08.11-.17.16-.25h0c.07-.07.13-.16.2-.25.17-.31.33-.62.5-.92.11-.15.22-.3.32-.45.15-.13.29-.27.44-.4.06-.09.12-.18.17-.27.08-.11.16-.23.24-.34l.16-.24s-.02,0-.02,0c.08-.06.17-.11.25-.17.34-.48.68-.96,1.03-1.43.06-.23.12-.45.17-.68.08-.25.15-.5.23-.75.28-.54.56-1.08.84-1.63.05-.14.1-.28.15-.42.26-.41.52-.81.79-1.22-.01-.13-.03-.26-.04-.38.11-.15.22-.29.34-.44.05-.14.11-.28.16-.42h0c.07-.13.15-.27.22-.42,0-.13,0-.25,0-.38.08-.12.16-.24.24-.35.06-.14.12-.28.18-.42.13-.08.26-.17.39-.25.07-.07.14-.14.22-.2-.06-.14-.12-.28-.18-.41,0-.2,0-.39.01-.59.72-.33,1.05-.85.78-1.65.06-.16.12-.32.18-.48.1-.12.21-.24.31-.36.11-.14.21-.28.32-.42.52-.76.06-1.97,1.16-2.46.04-.02-.01-.2.02-.29.15-.48.3-.96.49-1.43.12-.3.29-.57.45-.85.4-.69.82-1.37,1.23-2.05.29-.49.59-.97.89-1.46.16-.2.33-.41.49-.61.07-.2.13-.4.2-.6h0c.07-.14.13-.27.2-.4v-.02c.15-.2.29-.4.43-.59.05-.09.1-.18.15-.26v.02c.06-.15.14-.29.21-.44.48-.8.97-1.6,1.45-2.4l1.4-1.23c.01-.07.02-.14.03-.21.02-.13.04-.27.06-.4l.76-.95c.88.21,1.07-.12.69-.89.31-.37.63-.75.94-1.12.18-.1.36-.21.54-.31.15-.33.31-.65.46-.98.9.27,1.07-.07.73-.86.51-.69,1.02-1.38,1.52-2.07.18-.25.36-.5.55-.75,1.46-1.89,2.92-3.78,4.38-5.67.09-.1.17-.19.26-.29.11-.15.22-.29.33-.44.34-.4.67-.8,1.01-1.2h.01c.21-.2.42-.39.63-.58.69-.67,1.39-1.34,2.08-2.02l.08.02.06-.08c.07-.14.15-.27.22-.41.03-.14.06-.29.09-.43.08-.12.16-.23.24-.35.94-.06,1.44-.53,1.4-1.5.06,0,.09-.03.08-.09.14-.1.28-.19.42-.29l.62-.61c.04-.14.07-.29.11-.43.5-.35,1.01-.71,1.51-1.06.13-.39.26-.79.39-1.18.22-.22.43-.44.65-.65.79-.68,1.59-1.37,2.38-2.05-.06-.08-.12-.17-.18-.25-2.15.65-4.3,1.31-6.45,1.96-.22.05-.44.1-.65.16l-.02.02c-.2.07-.39.13-.59.2-.26.08-.51.16-.77.24-.22.08-.43.17-.65.25-.53.12-1.05.25-1.58.37-.16.07-.31.15-.47.22,0,0,.02,0,.02,0-.21.05-.43.1-.64.15-.07,0-.14.02-.21.03l-.19.13c-.21.03-.42.05-.63.08l-.19.13c-.12.04-.23.07-.35.11-.23.05-.46.1-.68.15-.21.08-.42.15-.63.23-.27.07-.54.13-.81.2,0,0,0,0,0,0-.28.06-.55.12-.83.18-.13.07-.27.14-.4.21-.27.07-.53.15-.8.22h0c-.68.14-1.35.27-2.03.4-.04.04-.09.05-.14.04-.09.05-.18.09-.26.14-.07.02-.14.03-.21.05-.14.06-.27.12-.41.18,0,0-.02.01-.02.01-.2.07-.4.14-.6.21h0c-.14.07-.27.13-.41.19h-.01c-.2.07-.4.13-.59.19-.27.11-.53.21-.8.32-.14.06-.29.12-.43.17-.69-.15-1.26-.06-1.43.76-.55.29-1.1.57-1.65.86-.13.05-.25.11-.38.16-.07.07-.14.14-.22.21-1.19.07-1.9,1.16-2.99,1.44-.03,0-.02.13-.03.19-.22.25-.45.49-.67.74h-.06s.03.03.03.03c-.26.21-.52.42-.78.63-.49-.04-.99-.07-1.37-.1-.52.68-1.02,1.32-1.51,1.96v.08c-.5.25-.97.61-1.5.72-.44.09-1.22.05-1.37-.22-.32-.55-.68-.61-1.19-.54l-.02-.03s-.1-.06-.15-.09c-.47.41-.95.81-1.42,1.22-.14.06-.28.13-.43.19-.43.36-.86.72-1.29,1.09-.11.02-.22.03-.33.05-.28.02-.55.04-.83.05l-.48.59c-1,.27-2,.53-3,.8-.19.07-.39.13-.58.2-.14.02-.29.04-.43.06-.27-.02-.58-.12-.82-.04-1.07.37-2.11,1.08-3.18,1.12-1.62.06-2.92.88-4.39,1.27-.27.14-.54.27-.82.41-.61.27-1.21.55-1.82.82-.07-.07-.14-.14-.21-.22-.12-.33-.25-.65-.37-.98.27-.34.54-.68.8-1.02.14-.14.28-.28.42-.42,1.07-.17.7-1.02.77-1.66,1.02-.81,2.03-1.62,3.05-2.44.8-.05,1.52-.21,1.66-1.18.13-.09.27-.17.4-.26.74.5.78-.03.83-.56.55-.42,1.1-.83,1.66-1.25.14-.14.28-.28.42-.42.06-.06.11-.11.17-.17.31-.1.68-.13.93-.31,1.38-.96,2.74-1.97,4.1-2.95.37-.09.86-.06,1.08-.29,1.21-1.21,2.32-2.52,3.53-3.74.45-.45,1.07-.73,1.61-1.09.2-.03.39-.07.59-.1.07.03.15.06.22.1.14-.03.27-.05.41-.08.43-.31.85-.62,1.28-.93.31.06.66.62.92-.06.63-.76,1.26-1.52,1.89-2.28.3-.26.6-.51.9-.77.43-.32,1.15-.58,1.24-.97.15-.72.58-.38.9-.46.08-.07.15-.13.23-.2,0,0,0,0,0,0,.14-.06.28-.12.42-.17h.02c.4-.3.8-.58,1.2-.86.07-.07.13-.14.2-.21.2-.07.41-.15.61-.22.2-.13.39-.27.61-.37.8-.39,1.66-.69,2.41-1.18.52-.34.82-1.24,1.33-1.34,1.18-.24,1.73-1.26,2.65-1.77.12-.07.24-.15.36-.22h0c.14-.06.28-.13.42-.19,0,0,0,0,0,0,.07-.07.13-.14.2-.2,0,0,0,0,0,0,.54-.28,1.08-.56,1.63-.85.36-.26.72-.52,1.08-.78.46-.27.92-.55,1.39-.82h0c.2-.08.4-.16.6-.24,1.04-.74,2.08-1.47,3.11-2.21.74-.47,1.47-.95,2.21-1.42,0,0,.01,0,.01,0,.2-.14.4-.27.6-.41,0,0,0,0,0,0,.41-.26.81-.53,1.22-.79.08-.13.16-.26.23-.39.42-.22.83-.43,1.25-.65.18-.08.35-.17.53-.25h0c.29-.23.58-.48.86-.73.06-.04.12-.06.19-.06.28-.15.56-.3.84-.46.09-.04.19-.08.27-.14,2.08-1.27,4.15-2.55,6.25-3.8.35-.21.8-.24,1.2-.38.16-.06.29-.21.44-.32.12-.14.25-.28.37-.43.21-.09.41-.18.62-.26-.01-.04-.02-.08-.04-.13-.19,0-.38,0-.57,0-.4-.06-.81-.12-1.21-.18-.48,0-.95,0-1.43,0-1.09-.09-2.18-.18-3.27-.27-.26-.13-.52-.34-.79-.36-.76-.05-1.52-.02-2.28-.02-.13,0-.26-.02-.39-.02-1.94-.12-3.87-.24-5.81-.36-.16,0-.32,0-.48,0-.34-.08-.69-.22-1.03-.22-1.3-.03-2.61-.01-3.91-.01-.56.06-1.13.22-1.67.16-1.26-.13-2.5-.37-3.75-.57-.1-.01-.2.02-.3.03-.74-.03-1.48-.06-2.23-.09-.07-.05-.14-.11-.2-.16-.32-.83-.79-.42-1.24-.15-.07,0-.14,0-.21,0-.14,0-.27,0-.41,0-.35-.07-.83-.33-1.03-.19-.68.48-1.23.14-1.83-.08-.75-.2-1.49-.4-2.24-.61-.62-.06-1.23-.12-1.85-.18-.95.27-1.64-.17-2.24-.84-.14,0-.27.02-.41.03-.53-.07-1.11-.31-1.57-.17-.97.29-1.87.23-2.83,0-.19-.04-.46.28-.69.43-.07.05-.14.1-.22.15-1.15.37-2.31.51-3.49.2l-1.22-.38c-.14-.02-.27-.04-.41-.05-.2-.01-.41-.02-.61-.03-.53.14-.96.08-1.27-.47-.09-.16-.38-.24-.6-.29-1.62-.42-3.24-.83-4.86-1.24-.56-.18-1.12-.35-1.68-.53-.2-.09-.4-.18-.6-.27h0c-.33-.08-.66-.16-.99-.25-.83-.06-1.65-.13-2.48-.19l-.41-.21-.41.02h-.41c.01-1.48.16-1.63,1.67-1.64.33,0,.67-.02,1-.04.07-.05.14-.11.21-.16.07,0,.13-.02.19-.04,1.12.66,1.96-.14,2.87-.57.33-.02.67-.03,1-.05,1.52-.32,3.04-.69,4.57-.95,1.59-.27,3.2-.38,4.79-.65.98-.17,1.93-.57,2.91-.78.63-.13,1.3-.1,1.95-.15.03.09.06.18.09.28.11-.29.23-.57.37-.92.46.13.87.25,1.27.37.47-.2.93-.4,1.4-.6l.02.02c.48.05.96.11,1.44.16h0c.07-.2.15-.39.22-.59h.01c.06-.09.12-.16.19-.23l.05-.04s.06.02.06.02l1.32-.17c.67.05,1.34.11,2.15.17.17-.12.52-.36.86-.6.56-.06,1.12-.12,1.68-.17l.06-.04h.08c.29-.05.59-.11.88-.16.92-.04,1.85-.03,2.76-.13.95-.11,1.87-.39,2.82-.48,1.01-.09,2.09.16,3.03-.1,1.26-.34,2.43-.11,3.63.07l.42-.39c.26-.03.52-.05.78-.08.21-.06.42-.11.62-.17.07-.01.13-.02.2-.02,1.31,0,2.62.01,3.93.02.55.08,1.11.15,1.66.23.05-.08.09-.16.14-.25-.03-.06-.02-.11.03-.15.95-.06,1.89-.12,2.84-.18,1.15-.03,2.3-.06,3.45-.09.68-.06,1.37-.12,2.05-.18.2-.01.4-.02.6-.03.09,0,.18,0,.28,0,.11,0,.23,0,.34,0,2.47.02,4.95,0,7.42.07.95.03,1.89.26,2.84.39.3-.14.6-.28.78-.37-1.21-1.25-2.45-2.52-3.69-3.8-.12-.11-.24-.21-.36-.32,0,0-.02-.01-.02-.01l-.19-.19s-.01-.01-.01-.01c-.09-.11-.18-.23-.28-.34h.01c-.11-.08-.22-.17-.34-.26-.07-.07-.15-.14-.22-.21l-.19-.19c-.14-.14-.28-.28-.42-.42-.09-.12-.18-.23-.27-.35h.01c-.07-.06-.14-.13-.21-.2l.04-.04s-.04.05-.04.05c-.07-.07-.14-.14-.21-.21,0,0,.01,0,.01,0-.09-.07-.17-.15-.26-.22-.21-.41-.42-.82-.72-1.41-.13-.05-.56-.12-.84-.36-1.08-.95-2.14-1.93-3.15-2.96-.27-.28-.27-.83-.54-1.11-.84-.87-1.76-1.68-2.64-2.51-.07-.08-.14-.17-.21-.25,0,0,0,.01,0,.01-.06-.08-.12-.15-.18-.23h0c-.06-.07-.12-.14-.19-.21h-.01c-.06-.08-.12-.14-.18-.21,0,0-.01-.02-.01-.02.02-.56-.25-.83-.81-.8h-.01c-.06-.08-.12-.14-.19-.2,0,0-.01-.02-.01-.02-.1-.12-.21-.24-.31-.36-.65-.96-1.3-1.92-1.95-2.88-.2-.34-.41-.68-.61-1.02h0c-.06-.07-.12-.14-.18-.21,0,0-.01-.02-.01-.02-.1-.12-.2-.24-.29-.37-.32.07-.65.13-.97.2-.03-.12-.02-.33-.09-.35-1.98-.7-3.26-2.28-4.56-3.77-1.77-2.03-3.5-4.1-5.15-6.23-.98-1.26-1.79-2.64-2.63-4-.47-.76-.55-.86-1.51-.79-.23-.77-.49-1.55-.67-2.35-.05-.2.11-.61.27-.67.39-.14.91-.29,1.23-.14,1.21.61,2.32,1.42,3.54,2,1.4.67,2.88,1.18,4.32,1.77,1.27.53,2.56,1.03,3.8,1.62,2.06.99,4.13,1.95,6.1,3.09,2.93,1.69,5.78,3.52,8.67,5.29.13.14.25.29.38.43.51.21,1.03.42,1.54.63.17.15.32.32.5.46,1.3.96,2.6,1.91,3.91,2.86.03.06.08.1.14.13.84.63,1.68,1.27,2.51,1.9.06.05.12.1.17.16.46.34.92.67,1.35.98.08-.27.09-.72.27-.81.93-.47.76-.95.14-1.37.21-.41.38-.73.54-1.06.06-.27.12-.54.18-.8.07-.14.14-.28.2-.42.06-.16.11-.33.17-.49,0-.05,0-.09.05-.12l.18-.42c.03-.27.06-.55.09-.82-.04-.05-.08-.1-.12-.15,0,0,.02,0,.02,0-.12-.09-.24-.17-.35-.26v-.02c-.11-.11-.2-.22-.29-.33h.01c-.11-.08-.23-.17-.34-.26h-.01c-.09-.13-.18-.25-.27-.36,0,0,.02,0,.02,0-.08-.07-.17-.15-.25-.22-.29-.23-.58-.47-.87-.7-.36-.38-.72-.76-1.02-1.08-.41.05-.77.09-1.13.13Zm31.12,22.24l-.03-.03c-.06-.06-.12-.12-.18-.18-.08-.07-.16-.14-.23-.21-.23-.06-.45-.11-.68-.17-.19-.07-.4-.11-.56-.21-.7-.47-1.32-1.14-2.08-1.39-1.32-.43-2.71-.63-4.09-.86-1.01-.17-1.22-.59-.63-1.47.29-.09.58-.17.87-.26-.33-.26-.67-.51-1-.77-.16-.12-.31-.24-.47-.36-1.48-.97-2.96-1.94-4.44-2.92-.1-.05-.19-.09-.29-.14-.75-.69-1.49-1.38-2.24-2.07-.15-.14-.32-.28-.5-.37-1.27-.67-2.2-1.67-2.71-2.59-1.66-.97-3.08-1.79-4.35-2.53-.31.75-.52,1.28-.74,1.81-.07.13-.13.26-.2.39,0,0-.01.02-.01.02-.06.08-.11.16-.17.24-.21.33-.43.66-.64.98-.05.08-.11.16-.16.24,0,0,.02-.01.02-.01-.08.13-.17.25-.25.38-.05.08-.1.15-.15.23-.09.12-.18.24-.27.36,0,0-.01.02-.01.02-.06.06-.12.11-.18.17-.04.04-.09.07-.15.06-.11.04-.22.08-.33.11.09.09.18.18.27.27.12.06.24.1.35.17,1.35.87,2.11,2.42,3.57,3.18.12.06.12.31.22.44.14.17.3.36.5.45,1.12.48,1.92,1.25,2.26,2.39.31.08.6.16.88.24.19.1.38.2.57.3l.02.02c.06.06.13.12.19.18,1.23,1.23,2.46,2.47,3.69,3.7.06.06.11.12.17.17.05.02.07.06.06.11.09.09.18.18.27.28.36.48.75.94,1.09,1.43.5.72.89,1.55,1.49,2.17.79.8,1.75,1.44,2.64,2.15.13-.04.26-.07.38-.11,1.34,0,2.69.01,4.03.02.89,0,1.8.16,2.64-.04.65-.15,1.18-.75,1.79-1.11.81-.47.99-.99.55-1.81-.14-.26-.3-.52-.44-.78-.06-.23-.11-.45-.17-.68-.04-.04-.05-.1-.03-.15v-1.09c0-.05,0-.1,0-.16-.05-.08-.11-.16-.16-.25Zm8.55-24.09h0c-.07-.14-.13-.28-.2-.41-.07-.14-.14-.28-.21-.41-.08-.2-.16-.41-.23-.61-.13-.2-.26-.4-.39-.6-.35-.47-.7-.95-1.05-1.42-1.13-1.91-2.19-3.86-3.41-5.71-.97-1.47-2.15-2.8-3.22-4.2-.34-.45-.64-.94-.82-1.2-2.49,1.37-4.84,2.6-7.12,3.94-2.16,1.27-4.3,2.59-6.35,4.03-.91.64-1.69,1.52-1.96,2.75-.13.57-.02.69.47.81,1.54.39,3.07.83,4.61,1.24.91.4,1.82.8,2.73,1.2l.8.19h.01c.34.14.68.27,1.02.4h0c.2.07.4.14.6.21,0,0,.01,0,.01,0,.08.07.15.13.23.2.7.45,1.38.92,2.11,1.33.18.1.49-.04.73-.07.2-.03.39-.06.59-.1-.02-.18-.04-.35-.06-.53.22,0,.45,0,.67-.01,0,0,.01.01.01.01.07.13.14.26.2.39.21.28.41.57.62.85.09.05.18.1.27.15.12.07.23.15.35.22.16.06.33.12.49.18.05,0,.1,0,.13.06.09.05.18.1.27.16h.08s.07.04.07.04c.14.06.27.13.41.19h0c.16.06.32.12.49.18.05-.01.1,0,.13.05l.27.16c.06,0,.1,0,.14.04.14.06.28.11.42.17h-.01c.16.06.31.13.47.19.06-.01.1,0,.14.05.08.05.17.11.25.16.06,0,.11,0,.16.05.13.06.26.12.39.18.28.15.56.29.84.44.09.05.19.1.28.15.04.07.08.14.13.2.2.08.4.16.59.23.49.51.97,1.02,1.47,1.53.49.5.96,1.05,1.51,1.47.46.35,1.03.55,1.55.81.06.09.12.18.17.27h0c.1.2.19.4.29.59.25-.06.51-.12.76-.18.19-.1.54-.21.54-.3-.01-.72-.1-1.43-.16-2.15,0,0,0,0,0,0-.06-.14-.12-.27-.18-.41-.15-.19-.3-.37-.45-.56-.13-.43-.26-.85-.39-1.28,0,0,0,0,0,0-.06-.14-.12-.27-.18-.41-.08-.21-.15-.41-.23-.62-.07-.2-.14-.4-.21-.61h0c-.13-.41-.26-.82-.39-1.23-.21-.41-.42-.81-.62-1.22-.07-.14-.14-.27-.21-.41l-.22-.37c-.06-.15-.12-.3-.18-.45Zm18.17,1.02s0,0,0,0c.27-.07.54-.15.81-.22h-.01c.07-.03.14-.07.21-.11.23-.51.46-1.01.69-1.52.12-.33.24-.66.35-.99h0c.02-.15.04-.28.06-.41-.04-.21-.08-.43-.11-.64.23-1.17.45-2.35.69-3.52.57-2.71.98-5.39,0-8.12-.95-2.65-1.74-5.36-2.64-8.03-.34-.99-.99-1.29-1.93-1.14-1.11.18-2.23.35-3.35.4-.32.02-.67-.37-1-.57.03-.12.07-.23.1-.35-3.61.66-7.22,1.31-10.49,2.98,1.91,2.11,3.89,4.14,5.68,6.33,2.64,3.22,4.45,6.88,5.2,11.02.02.14.05.27.07.41.05.62-.68,1.3.14,1.86,0,.81-.02,1.63.03,2.44.02.26.2.72.34.73,1.18.07,2.36.06,3.55.08.33-.14.67-.28,1-.42,0,0,0,0,0,0,.21-.07.41-.13.62-.2Z"/>
</svg>